<svg width="50" height="48" viewBox="0 0 50 48" fill="none" xmlns="http://www.w3.org/2000/svg">
<path d="M40.5128 0H8.71795C3.90316 0 0 3.90316 0 8.71795V39.2821C0 44.0968 3.90316 48 8.71795 48H40.5128C45.3276 48 49.2308 44.0968 49.2308 39.2821V8.71795C49.2308 3.90316 45.3276 0 40.5128 0Z" fill="#00005B"/>
<path d="M19.7757 28.7136H12.1467L10.5945 33.5445C10.5734 33.6325 10.5223 33.7103 10.4499 33.7645C10.3776 33.8188 10.2885 33.8461 10.1982 33.8418H6.33422C6.11387 33.8418 6.03681 33.7207 6.10304 33.4785L12.7082 14.5343C12.7742 14.3362 12.8403 14.1425 12.9063 13.8891C12.9928 13.4485 13.0371 13.0006 13.0384 12.5516C13.034 12.5202 13.0369 12.4882 13.0469 12.4581C13.0569 12.428 13.0738 12.4007 13.0963 12.3783C13.1187 12.3558 13.146 12.3389 13.1761 12.3289C13.2062 12.3188 13.2382 12.3159 13.2696 12.3204H18.5207C18.6745 12.3204 18.7625 12.3755 18.7849 12.4856L26.2817 33.5115C26.3477 33.7318 26.2817 33.8419 26.0836 33.8418H21.7902C21.7165 33.85 21.6423 33.831 21.5815 33.7885C21.5208 33.7459 21.4776 33.6827 21.46 33.6106L19.7757 28.7136ZM13.3357 24.6402H18.5538C18.4217 24.2 18.2675 23.7046 18.0913 23.154C17.9148 22.6039 17.7277 22.015 17.5299 21.3871C17.3318 20.7597 17.1337 20.1322 16.9355 19.5047C16.7373 18.8772 16.5557 18.2718 16.3905 17.6883C16.2254 17.1052 16.0768 16.5713 15.9447 16.0866H15.9116C15.7258 16.9785 15.4943 17.8603 15.2181 18.7286C14.9095 19.7194 14.5958 20.7322 14.2769 21.7669C13.9575 22.8021 13.6438 23.7599 13.3357 24.6402Z" fill="#9999FF"/>
<path d="M38.4343 26.8343H31.9283C32.008 27.478 32.2218 28.0979 32.5558 28.6539C32.9252 29.2045 33.4475 29.635 34.0584 29.8923C34.8865 30.2506 35.782 30.4262 36.684 30.407C37.3997 30.3932 38.1126 30.315 38.8141 30.1731C39.4416 30.0884 40.0566 29.9281 40.6456 29.6957C40.7555 29.608 40.8108 29.6627 40.8108 29.8608V32.9982C40.8162 33.0837 40.7991 33.1691 40.7612 33.2459C40.7234 33.306 40.6726 33.3568 40.6125 33.3945C39.9592 33.6839 39.2716 33.8888 38.5665 34.0041C37.6085 34.184 36.6348 34.267 35.6602 34.2518C34.0966 34.2518 32.7866 34.0096 31.7301 33.5252C30.7314 33.0852 29.8493 32.418 29.1542 31.5767C28.5049 30.7839 28.0219 29.8685 27.734 28.8851C27.449 27.9144 27.3044 26.9079 27.3047 25.8962C27.3017 24.7916 27.4745 23.6935 27.8166 22.6432C28.1461 21.6187 28.6673 20.6661 29.3523 19.836C30.028 19.0157 30.8729 18.351 31.8293 17.8875C32.7978 17.4143 33.9429 17.2446 35.2639 17.2446C36.3594 17.2169 37.4476 17.4311 38.4509 17.872C39.2945 18.2318 40.0372 18.7927 40.614 19.5058C41.1551 20.204 41.5688 20.9922 41.836 21.8341C42.0962 22.6454 42.2299 23.492 42.2323 24.3441C42.2323 24.8286 42.2158 25.2689 42.1827 25.6651C42.1498 26.0614 42.1223 26.3476 42.1002 26.5237C42.0916 26.5966 42.0566 26.6637 42.0018 26.7124C41.947 26.7611 41.8762 26.788 41.8029 26.788C41.6708 26.788 41.4452 26.8045 41.126 26.8375C40.8065 26.8705 40.4102 26.8925 39.937 26.9035C39.4633 26.9149 38.9628 26.8343 38.4343 26.8343ZM31.9283 23.8258H36.2547C36.7831 23.8258 37.1739 23.8203 37.427 23.8092C37.5964 23.7923 37.76 23.7381 37.906 23.6505V23.4523C37.8993 23.194 37.8548 22.9381 37.7739 22.6928C37.5957 22.1293 37.2375 21.64 36.7542 21.2999C36.2709 20.9598 35.6893 20.7878 35.0988 20.8103C34.543 20.7767 33.9895 20.9056 33.5057 21.1812C33.0219 21.4568 32.6287 21.8673 32.3742 22.3625C32.1479 22.8231 31.9974 23.3172 31.9283 23.8258V23.8258Z" fill="#9999FF"/>
</svg>
