<svg width="480" height="403" viewBox="0 0 480 403" fill="none" xmlns="http://www.w3.org/2000/svg">
<path opacity="0.74" d="M427.845 85.7207C420.549 64.2798 405.126 46.5608 384.896 36.3778C364.666 26.1948 341.246 24.362 319.678 31.274L318.556 31.6375C304.786 36.4348 290.103 38.0259 275.626 36.2895C261.148 34.553 247.258 29.5349 235.013 21.6174C215.845 9.03275 193.725 1.66821 170.838 0.25169C147.952 -1.16483 125.092 3.41571 104.518 13.5406C83.9446 23.6654 66.3693 38.984 53.5296 57.9822C40.6898 76.9804 33.0303 99.0005 31.3079 121.866C29.6168 144.245 43.1614 172.44 26.8036 187.739C-3.03543 215.745 -6.19634 258.86 8.64416 285.728C39.5105 341.802 88.5047 349.404 140.138 326.488C165.884 315.045 172.791 344.141 195.834 360.357C214.118 373.241 235.732 380.575 258.082 381.481C280.431 382.386 302.568 376.824 321.835 365.462C341.102 354.1 356.682 337.42 366.706 317.424C376.729 297.427 380.77 274.964 378.345 252.728C375.184 223.505 386.247 194.836 406.999 174.068C418.366 162.751 426.342 148.48 430.026 132.869C433.71 117.257 432.954 100.926 427.845 85.7207Z" fill="white"/>
<path d="M386.943 302.67C386.943 302.67 374.979 303.112 376.259 313.828C376.259 313.828 376.717 325.808 377.839 362.601" stroke="#2D5F5F" stroke-miterlimit="10"/>
<path d="M293.221 163.146C284.546 168.528 278.237 177 275.567 186.853C275.567 186.853 294.201 161.708 318.145 171.048C318.145 170.954 304.221 155.924 293.221 163.146Z" fill="#2D5F5F"/>
<path d="M289.776 165.501C289.776 165.501 316.802 152.857 321.812 201.583C324.863 231.343 338.154 251.73 368.783 258.479C368.783 258.479 431.417 200.35 338.154 159.637C338.154 159.637 327.186 155.417 318.715 159.637C318.715 159.685 299.812 156.808 289.776 165.501Z" fill="#50BE9C"/>
<path d="M321.147 161.174C324.624 163.892 328.007 166.753 331.326 169.677C334.645 172.601 337.932 175.588 341.061 178.717C344.191 181.846 347.288 185.039 350.18 188.421C353.147 191.773 355.827 195.368 358.193 199.168C362.693 206.961 365.655 215.546 366.918 224.455C368.372 233.259 369.162 242.109 369.731 250.944C370.3 259.779 370.758 268.613 371.106 277.448C371.453 286.283 371.785 295.133 372.054 303.968L372.939 330.472C373.271 339.307 373.587 348.142 373.334 356.993C372.196 348.205 371.659 339.37 371.185 330.551L369.826 304.095C368.798 286.441 368.245 268.771 367.091 251.149C366.507 242.346 365.938 233.543 364.594 224.882C363.505 216.218 360.752 207.846 356.486 200.227C354.271 196.462 351.761 192.879 348.979 189.511C346.229 186.082 343.274 182.81 340.255 179.602C334.123 173.185 327.738 167.085 321.147 161.174Z" fill="#50AA9B"/>
<path d="M469.032 220.044C474.902 224.626 478.821 231.261 480 238.614C480 238.614 468.431 218.89 450.303 223.758C450.303 223.774 461.603 213.943 469.032 220.044Z" fill="#2D5F5F"/>
<path d="M471.355 222.035C471.355 222.035 452.69 210.719 445.246 245.742C440.694 267.125 429.441 280.891 406.667 283.451C406.667 283.451 365.701 236.322 436.696 214.022C436.696 214.022 444.993 211.825 450.825 215.602C450.777 215.555 464.733 214.907 471.355 222.035Z" fill="#50BE9C"/>
<path d="M448.849 216.488C443.591 219.117 438.627 222.295 434.04 225.971C429.415 229.534 425.378 233.801 422.076 238.615C421.285 239.825 420.557 241.075 419.895 242.36L417.982 246.312L416.228 250.342C415.659 251.685 415.169 253.06 414.647 254.419C412.696 259.94 411.112 265.584 409.906 271.314C407.346 282.757 405.813 294.452 404.043 306.084L401.545 323.58C400.739 329.428 399.965 335.26 398.622 340.965C398.874 335.054 399.57 329.191 400.202 323.343L402.288 305.768C403.572 294.016 405.456 282.337 407.93 270.777C409.234 264.983 410.934 259.285 413.02 253.724C413.573 252.349 414.094 250.958 414.679 249.599L416.528 245.537L418.535 241.57C419.237 240.237 420.029 238.954 420.906 237.73C424.434 232.903 428.701 228.663 433.55 225.165C438.327 221.738 443.455 218.829 448.849 216.488Z" fill="#50AA9B"/>
<path d="M338.027 273.937C338.027 273.937 383.213 274.253 389.835 293.424C398.48 290.642 402.605 272.752 386.468 262.147C370.332 251.542 338.217 266.714 338.027 273.937Z" fill="#2D5F5F"/>
<path d="M336.636 260.222C336.636 260.222 320.01 255.638 311.096 266.97C297.236 284.561 311.57 331.5 329.888 331.548C342.531 331.548 350.924 298.516 356.629 288.654C364.531 274.92 371.327 263.667 386.516 262.15C378.908 258.021 370.451 255.699 361.801 255.364C353.151 255.03 344.54 256.692 336.636 260.222Z" fill="#50AA9B"/>
<path d="M331.531 264.344L332.654 263.079L333.902 261.941C334.345 261.625 334.771 261.262 335.23 260.961L335.925 260.535L336.557 260.203C335.557 259.958 334.544 259.768 333.523 259.634L332.559 260.408L331.247 261.72C330.836 262.194 330.457 262.684 330.062 263.158C329.312 264.132 328.631 265.157 328.023 266.224C327.42 267.282 326.892 268.38 326.442 269.512C325.958 270.624 325.556 271.77 325.241 272.941L324.767 274.68C324.688 274.964 324.593 275.265 324.53 275.549L324.388 276.434C324.182 277.619 323.961 278.805 323.803 279.99L323.518 283.562C323.455 284.752 323.455 285.944 323.518 287.134C323.518 288.335 323.518 289.52 323.518 290.706L323.835 294.262C323.945 295.447 323.993 296.632 324.214 297.802L324.783 301.31C324.988 302.48 325.115 303.65 325.415 304.803L326.995 311.726L325.684 304.756C325.415 303.602 325.352 302.417 325.178 301.247L324.751 297.739C324.577 296.569 324.577 295.384 324.498 294.214L324.325 290.674C324.325 289.504 324.325 288.335 324.404 287.15C324.401 285.977 324.47 284.805 324.609 283.641L325.004 280.164C325.21 279.01 325.478 277.872 325.715 276.734L325.889 275.881C325.889 275.596 326.063 275.328 326.142 275.043L326.664 273.384C327.008 272.301 327.431 271.245 327.928 270.223C328.389 269.173 328.916 268.154 329.508 267.173C329.801 266.684 330.123 266.215 330.473 265.766C330.791 265.267 331.145 264.792 331.531 264.344Z" fill="#50BE9C"/>
<path d="M380.89 272.261C380.89 272.261 396.694 277.666 390.625 291.432C390.625 291.432 389.44 313.953 380.89 359.391" stroke="#2D5F5F" stroke-miterlimit="10"/>
<path d="M397.326 390.213H370.979C369.657 390.218 368.376 389.756 367.361 388.909C366.346 388.062 365.663 386.884 365.432 385.582L356.771 336.872H411.518L402.873 385.598C402.636 386.895 401.95 388.068 400.936 388.911C399.923 389.755 398.644 390.215 397.326 390.213Z" fill="#E6E1DC"/>
<path d="M412.673 332.637H355.618C353.969 332.637 352.631 333.974 352.631 335.624V343.068C352.631 344.717 353.969 346.055 355.618 346.055H412.673C414.323 346.055 415.66 344.717 415.66 343.068V335.624C415.66 333.974 414.323 332.637 412.673 332.637Z" fill="#C8C1BE"/>
<path d="M416.087 312.721C416.087 312.721 384.952 303.554 376.402 315.376C371.044 311.662 371.913 298.497 385.221 294.546C398.528 290.595 417.414 307.711 416.087 312.721Z" fill="#2D5F5F"/>
<path d="M419.927 303.586C419.927 303.586 432.317 303.886 436.095 313.527C441.974 328.51 411.25 350.573 411.25 350.573C411.25 350.573 411.455 326.408 408.69 318.695C402.905 302.67 395.35 298.75 385.22 294.546C391.311 293.288 397.609 293.45 403.628 295.017C409.646 296.585 415.223 299.517 419.927 303.586Z" fill="#50AA9B"/>
<path d="M422.55 307.476L422.029 306.369L421.412 305.342C421.175 305.01 420.954 304.678 420.701 304.378L420.322 303.936L419.958 303.588C420.695 303.619 421.429 303.699 422.155 303.825L422.661 304.552L423.293 305.737L423.815 306.97C423.982 307.376 424.12 307.793 424.226 308.219C424.366 308.638 424.482 309.066 424.573 309.499C424.761 310.353 424.893 311.219 424.968 312.091C425.068 312.951 425.105 313.817 425.079 314.683V315.979C425.079 316.2 425.079 316.421 425.079 316.627L425 317.275C424.889 318.128 424.81 318.997 424.668 319.835L424.115 322.348C423.932 323.188 423.699 324.016 423.42 324.829C423.167 325.635 422.93 326.41 422.645 327.263L421.681 329.65C421.365 330.44 421.081 331.23 420.685 332.005L419.563 334.296C419.184 335.055 418.852 335.877 418.41 336.572L415.881 340.997L418.236 336.477C418.647 335.734 418.947 334.897 419.31 334.17L420.322 331.846C420.701 331.072 420.938 330.266 421.239 329.476L421.981 327.121C422.234 326.315 422.424 325.54 422.661 324.671C422.904 323.867 423.099 323.049 423.246 322.221L423.704 319.74C423.799 318.903 423.846 318.065 423.925 317.227V316.611C423.925 316.405 423.925 316.184 423.925 315.979V314.73C423.918 313.9 423.854 313.071 423.736 312.249C423.625 311.434 423.467 310.627 423.262 309.831C423.172 309.427 423.05 309.03 422.898 308.645C422.806 308.249 422.69 307.858 422.55 307.476Z" fill="#50BE9C"/>
<path d="M226.889 194.362C225.878 200.305 228.817 205.757 233.432 206.548C238.047 207.338 242.599 203.134 243.61 197.176C244.622 191.217 241.682 185.78 237.067 184.99C232.452 184.2 227.901 188.388 226.889 194.362Z" fill="#AFE6FF"/>
<path d="M241.574 196.827C242.859 189.228 239.122 182.259 233.227 181.262C227.331 180.265 221.51 185.617 220.225 193.217C218.939 200.816 222.677 207.785 228.572 208.782C234.467 209.779 240.289 204.427 241.574 196.827Z" fill="white"/>
<path d="M244.812 376.318C244.812 376.318 267.982 312.262 261.944 282.17C258.214 263.631 239.644 233.176 203.641 233.176C179.65 233.176 135.681 249.186 138.684 292.443C140.423 317.73 145.322 348.075 168.334 376.365C168.334 376.365 209.031 395.789 244.812 376.318Z" fill="#0091C8"/>
<path d="M225.435 327.421C227.427 298.04 228.865 259.461 232.389 240.828C223.674 235.727 213.739 233.083 203.641 233.178C193.523 233.392 183.54 235.537 174.229 239.5C177.737 256.569 181.056 273.654 183.237 290.944C185.487 310.88 186.379 330.945 185.908 351.001C185.813 361.359 185.487 371.695 184.928 382.01C197.356 385.205 210.305 385.839 222.986 383.875C222.274 365.415 224.187 345.802 225.435 327.421Z" fill="white"/>
<path opacity="0.1" d="M201.698 345.564C188.77 339.242 176.679 330.123 165.347 321.256C155.201 313.354 145.37 304.361 138.748 293.203C140.534 318.317 145.56 348.361 168.35 376.367C168.35 376.367 209.047 395.791 244.828 376.367C244.828 376.367 247.42 369.207 250.644 358.539C233.66 357.318 217.056 352.917 201.698 345.564Z" fill="#0073BA"/>
<path d="M203.641 252.348C200.288 252.348 197.072 251.016 194.701 248.645C192.33 246.274 190.998 243.058 190.998 239.705L194.158 194.978H213.013L216.174 239.705C216.174 243.039 214.857 246.238 212.51 248.606C210.163 250.974 206.975 252.319 203.641 252.348Z" fill="#FFA587"/>
<path d="M213.803 205.282L193.621 203.465L192.894 213.848C194.633 225.386 202.677 237.84 213.724 237.84C214.518 237.832 215.31 237.769 216.095 237.65L213.803 205.282Z" fill="#F5876E"/>
<path d="M212.317 233.129C201.475 231.2 192.372 217.008 192.23 205.976C192.119 196.383 195.153 182.269 195.153 182.269C195.153 182.269 229.244 174.494 235.755 182.269C240.497 188.006 233.89 204.996 231.773 212.14C228.627 222.682 217.074 233.982 212.317 233.129Z" fill="#FFB49B"/>
<path d="M186.003 193.08C185.579 195.396 186.091 197.785 187.428 199.723C188.764 201.661 190.815 202.99 193.131 203.416L196.292 185.841C193.968 185.438 191.578 185.973 189.649 187.331C187.719 188.688 186.408 190.756 186.003 193.08Z" fill="#FFA587"/>
<path d="M237.985 183.962L204.795 178.066L203.499 185.352C200.085 184.941 194.791 184.689 194.174 188.166C194.016 189.051 190.808 194.219 191.013 195.041C191.883 194.882 198.078 192.939 198.916 192.559C200.58 191.794 202.442 191.568 204.242 191.911C208.099 192.585 212.071 191.915 215.495 190.015C217.791 188.7 220.337 187.88 222.969 187.607C225.601 187.335 228.261 187.617 230.778 188.434C231.856 188.802 232.96 189.087 234.081 189.288C235.038 189.449 236.004 189.55 236.973 189.588L237.985 183.962Z" fill="#FFA587"/>
<path d="M241.256 135.062C237.664 134.524 233.998 134.756 230.502 135.742C227.007 136.728 223.76 138.447 220.979 140.784C215.123 145.371 207.871 147.809 200.433 147.69H200.165C196.077 147.826 192.121 149.166 188.792 151.542C185.463 153.918 182.909 157.224 181.452 161.045C181.079 162.05 180.778 163.08 180.551 164.127C179.924 167.563 178.512 170.808 176.426 173.61C175.39 174.903 174.695 176.435 174.403 178.067C174.195 179.519 174.276 180.999 174.64 182.421C175.004 183.842 175.645 185.179 176.525 186.353C177.406 187.527 178.509 188.516 179.772 189.264C181.035 190.011 182.433 190.503 183.886 190.71C186.352 191.158 188.897 190.815 191.156 189.73C193.131 188.817 195.343 188.552 197.478 188.972C202.057 189.749 206.764 188.953 210.833 186.712C213.569 185.161 216.599 184.198 219.728 183.885C222.858 183.572 226.019 183.916 229.008 184.894C230.292 185.336 231.607 185.68 232.943 185.921C236.34 186.527 239.825 186.445 243.19 185.679C246.554 184.914 249.731 183.48 252.532 181.464C255.332 179.447 257.699 176.889 259.493 173.941C261.286 170.993 262.469 167.715 262.972 164.301C264.979 150.835 254.738 137.069 241.256 135.062Z" fill="#214A80"/>
<path d="M196.134 376.998H323.488C324.074 376.997 324.652 377.136 325.173 377.406C325.693 377.675 326.142 378.065 326.48 378.544C326.818 379.023 327.035 379.577 327.114 380.158C327.193 380.738 327.131 381.33 326.933 381.882L324.657 388.203C324.4 388.914 323.929 389.528 323.31 389.961C322.69 390.394 321.952 390.624 321.196 390.622H193.859C193.272 390.622 192.694 390.482 192.173 390.213C191.652 389.944 191.204 389.554 190.865 389.075C190.526 388.597 190.306 388.044 190.225 387.463C190.144 386.883 190.203 386.291 190.397 385.738L192.689 379.416C192.943 378.707 193.411 378.094 194.028 377.661C194.645 377.228 195.381 376.996 196.134 376.998Z" fill="#E6DCDC"/>
<path d="M250.85 257.834C250.85 257.834 282.728 304.868 291.072 323.992C303.052 351.413 321.907 380.746 321.907 380.746C321.907 380.746 290.82 379.798 277.86 363.361C277.86 363.361 275.331 352.092 273.64 339.812C272.059 328.228 246.282 304.916 246.282 304.916L250.85 257.834Z" fill="#0091C8"/>
<path d="M353.705 390.701H236.325L255.922 299.824H373.303L353.705 390.701Z" fill="#E6DCDC"/>
<path d="M360.027 390.701H241.066L260.664 299.824H379.625L360.027 390.701Z" fill="#F5F0F0"/>
<path d="M323.101 347.584C324.392 340.526 319.716 333.759 312.658 332.469C305.6 331.178 298.833 335.854 297.542 342.912C296.252 349.97 300.928 356.737 307.986 358.028C315.044 359.318 321.811 354.642 323.101 347.584Z" fill="white"/>
<path d="M424.937 390.213H60.0723V402.035H424.937V390.213Z" fill="#E6DCDC"/>
<path d="M240.229 389.992C240.762 389.989 241.277 389.8 241.685 389.458C242.094 389.116 242.37 388.643 242.468 388.119C242.565 387.595 242.477 387.054 242.218 386.588C241.96 386.122 241.547 385.761 241.051 385.567C230.318 381.507 219.357 378.077 208.225 375.294L187.868 371.264L186.651 383.07L200.781 389.992H240.229Z" fill="#FFB49B"/>
<path d="M201.097 373.903L187.837 371.264L186.62 383.07L200.749 389.992C198.426 384.603 196.245 379.182 201.097 373.903Z" fill="#FFA587"/>
<path d="M155.785 250.671C155.785 250.671 105.89 310.286 97.4188 339.856C92.2191 357.952 94.2579 370.375 111.848 382.528C119.796 387.811 129.176 390.52 138.716 390.289H191.488C192.603 390.261 193.676 389.859 194.536 389.149C195.396 388.438 195.992 387.459 196.229 386.369C196.229 386.369 198.695 364.085 183.332 358.3C168.982 352.911 142.241 350.904 140.028 333.487C138.858 324.462 170.926 283.007 170.926 283.007C170.926 283.007 167.528 257.767 155.785 250.671Z" fill="#0091C8"/>
<path d="M219.066 142.3C220.24 141 221.644 139.928 223.207 139.139H216.205C208.909 139.151 201.915 142.056 196.757 147.217C191.599 152.378 188.698 159.374 188.689 166.67V182.68H191.85V166.67C191.855 160.211 194.421 154.017 198.987 149.448C203.553 144.879 209.746 142.308 216.205 142.3H219.066Z" fill="#AFE6FF"/>
<path d="M190.27 205.977C196.25 205.977 201.097 199.729 201.097 192.022C201.097 184.314 196.25 178.066 190.27 178.066C184.291 178.066 179.444 184.314 179.444 192.022C179.444 199.729 184.291 205.977 190.27 205.977Z" fill="white"/>
<path d="M194.395 192.021C194.395 198.058 190.602 202.957 185.908 202.957C181.214 202.957 177.437 198.058 177.437 192.021C177.437 185.983 181.23 181.1 185.908 181.1C190.586 181.1 194.395 185.999 194.395 192.021Z" fill="#AFE6FF"/>
<path d="M367.456 54.586C367.677 54.1592 343.512 66.8819 343.512 66.8819L346.815 106.393L360.202 77.9451L390.515 74.2468L435.953 37.1377L367.456 54.586Z" fill="#0091C8"/>
<path d="M435.952 37.1846L346.814 106.314L360.201 77.9288L435.952 37.1846Z" fill="#214A80"/>
<path d="M435.953 37.1846L323.298 53.005L343.512 66.8814L435.953 37.1846L360.202 77.9288L394.513 102.568L435.953 37.1846Z" fill="#AFE6FF"/>
<path d="M113.95 84.9774L114.393 133.087C114.405 134.909 113.696 136.662 112.419 137.962C111.142 139.262 109.403 140.004 107.581 140.025L20.6556 140.831C18.832 140.843 17.0773 140.134 15.7745 138.858C14.4718 137.582 13.7266 135.843 13.7016 134.019L13.3223 85.8941C13.3221 84.076 14.0389 82.3311 15.3171 81.0381C16.5953 79.7451 18.3318 79.0083 20.1498 78.9875L107.075 78.1973C108.88 78.2052 110.609 78.9192 111.894 80.1863C113.179 81.4534 113.917 83.1731 113.95 84.9774Z" fill="#AFE6FF"/>
<path d="M114.093 100.292L114.393 133.087C114.406 134.909 113.696 136.662 112.42 137.962C111.143 139.262 109.404 140.004 107.582 140.025L20.6564 140.831C18.8328 140.844 17.0782 140.135 15.7754 138.859C14.4726 137.582 13.7274 135.843 13.7024 134.019L13.4653 98.0322L66.142 125.026L114.093 100.292Z" fill="#0091C8"/>
<path d="M13.4653 98.0322L46.7024 115.117L13.7656 135.284L13.4653 98.0322Z" fill="#214A80"/>
<path d="M113.823 100.576L82.4829 117.029L114.155 134.019L113.823 100.576Z" fill="#214A80"/>
</svg>
