<svg width="24" height="24" viewBox="0 0 24 24" fill="none" xmlns="http://www.w3.org/2000/svg">
<path d="M17.3766 0H6.62295C2.97106 0 0 2.9712 0 6.62309V17.3768C0 21.0288 2.97106 23.9999 6.62295 23.9999H17.3766C21.0288 23.9999 23.9999 21.0287 23.9999 17.3768V6.62309C24 2.9712 21.0288 0 17.3766 0ZM21.8706 17.3768C21.8706 19.8547 19.8547 21.8705 17.3768 21.8705H6.62295C4.1452 21.8706 2.12938 19.8547 2.12938 17.3768V6.62309C2.12938 4.14534 4.1452 2.12938 6.62295 2.12938H17.3766C19.8545 2.12938 21.8705 4.14534 21.8705 6.62309V17.3768H21.8706Z" fill="#4B4B4B"/>
<path d="M12.0001 5.81641C8.59008 5.81641 5.81592 8.59057 5.81592 12.0006C5.81592 15.4104 8.59008 18.1844 12.0001 18.1844C15.4101 18.1844 18.1842 15.4104 18.1842 12.0006C18.1842 8.59057 15.4101 5.81641 12.0001 5.81641ZM12.0001 16.0549C9.76436 16.0549 7.9453 14.2361 7.9453 12.0004C7.9453 9.76457 9.76422 7.94565 12.0001 7.94565C14.2359 7.94565 16.0548 9.76457 16.0548 12.0004C16.0548 14.2361 14.2358 16.0549 12.0001 16.0549Z" fill="#4B4B4B"/>
<path d="M18.4434 4.01074C18.0331 4.01074 17.6301 4.17683 17.3404 4.46785C17.0492 4.75745 16.8818 5.16061 16.8818 5.57229C16.8818 5.98269 17.0493 6.38572 17.3404 6.67673C17.63 6.96633 18.0331 7.13384 18.4434 7.13384C18.8551 7.13384 19.2568 6.96633 19.5478 6.67673C19.8388 6.38572 20.0049 5.98255 20.0049 5.57229C20.0049 5.16061 19.8388 4.75745 19.5478 4.46785C19.2582 4.17683 18.8551 4.01074 18.4434 4.01074Z" fill="#4B4B4B"/>
</svg>
