<svg width="610" height="471" viewBox="0 0 610 471" fill="none" xmlns="http://www.w3.org/2000/svg">
<path d="M369.324 0.839844H185.329C167.156 0.839844 152.424 15.5636 152.424 33.7262V437.933C152.424 456.096 167.156 470.82 185.329 470.82H369.324C387.497 470.82 402.229 456.096 402.229 437.933V33.7262C402.229 15.5636 387.497 0.839844 369.324 0.839844Z" fill="#2B478B"/>
<path d="M389.847 36.844V431.68C389.847 445.074 378.959 456.028 365.643 456.028H188.989C175.69 456.028 164.807 445.074 164.807 431.68V36.844C164.807 23.4501 175.69 12.4922 188.989 12.4922H365.66C378.959 12.4922 389.847 23.4501 389.847 36.844Z" fill="#C0D8FB"/>
<path d="M365.66 12.4922L191.176 456.028H188.989C175.69 456.028 164.807 445.074 164.807 431.68V36.844C164.807 23.4501 175.69 12.4922 188.989 12.4922H365.66Z" fill="#CBE1FD"/>
<path d="M314.251 3.5957H240.408C234.369 3.5957 229.474 8.48842 229.474 14.5239V16.2469C229.474 22.2824 234.369 27.1751 240.408 27.1751H314.251C320.289 27.1751 325.185 22.2824 325.185 16.2469V14.5239C325.185 8.48842 320.289 3.5957 314.251 3.5957Z" fill="#2B478B"/>
<path d="M91.278 125.838H50.3269C39.5087 125.838 30.7388 134.603 30.7388 145.415V179.129C30.7388 189.941 39.5087 198.707 50.3269 198.707H91.278C102.096 198.707 110.866 189.941 110.866 179.129V145.415C110.866 134.603 102.096 125.838 91.278 125.838Z" fill="#F99746"/>
<path d="M49.5074 161.686C51.7324 167.547 70.8152 182.944 70.8152 182.944C70.8152 182.944 77.0318 177.893 82.7897 172.457C87.0997 168.429 91.1294 164.194 92.0849 161.686C94.3439 155.859 91.9405 147.524 83.5923 146.11C75.2441 144.697 70.8025 153.389 70.8025 153.389C70.8025 153.389 66.3142 144.697 57.9745 146.11C56.6305 146.328 55.3362 146.783 54.1528 147.456C48.9766 150.337 47.6688 156.869 49.5074 161.686Z" fill="white"/>
<path d="M489.851 220.699H448.9C438.081 220.699 429.312 229.464 429.312 240.277V273.991C429.312 284.803 438.081 293.568 448.9 293.568H489.851C500.669 293.568 509.439 284.803 509.439 273.991V240.277C509.439 229.464 500.669 220.699 489.851 220.699Z" fill="#F99746"/>
<path d="M448.08 256.533C450.305 262.394 469.384 277.791 469.384 277.791C469.384 277.791 475.604 272.741 481.362 267.304C485.672 263.277 489.702 259.041 490.658 256.533C492.917 250.706 490.513 242.371 482.165 240.962C473.817 239.553 469.375 248.236 469.375 248.236C469.375 248.236 464.891 239.549 456.551 240.962C455.207 241.176 453.913 241.63 452.73 242.303C447.558 245.198 446.241 251.733 448.08 256.533Z" fill="white"/>
<path d="M265.393 283.508C265.392 284.98 264.955 286.418 264.136 287.64C263.318 288.863 262.155 289.816 260.795 290.379C259.435 290.941 257.938 291.088 256.494 290.8C255.051 290.513 253.725 289.804 252.684 288.763C251.643 287.723 250.935 286.397 250.648 284.954C250.361 283.511 250.509 282.015 251.072 280.656C251.636 279.297 252.59 278.135 253.814 277.318C255.038 276.501 256.477 276.064 257.949 276.064C259.924 276.066 261.817 276.85 263.213 278.246C264.609 279.642 265.393 281.535 265.393 283.508V283.508Z" fill="#FFC800"/>
<path d="M280.646 283.508C280.644 284.979 280.206 286.415 279.388 287.637C278.569 288.859 277.407 289.81 276.047 290.372C274.688 290.933 273.192 291.079 271.75 290.791C270.307 290.504 268.982 289.795 267.943 288.755C266.903 287.714 266.195 286.389 265.909 284.947C265.623 283.505 265.77 282.011 266.334 280.653C266.897 279.294 267.851 278.134 269.074 277.317C270.297 276.5 271.735 276.064 273.206 276.064C274.184 276.065 275.151 276.258 276.054 276.632C276.957 277.007 277.778 277.555 278.468 278.246C279.159 278.938 279.707 279.758 280.081 280.661C280.454 281.564 280.646 282.531 280.646 283.508V283.508Z" fill="#C80000"/>
<path d="M295.915 283.508C295.914 284.98 295.477 286.418 294.659 287.64C293.84 288.863 292.677 289.816 291.317 290.379C289.957 290.941 288.46 291.088 287.017 290.8C285.573 290.513 284.247 289.804 283.207 288.763C282.166 287.723 281.457 286.397 281.171 284.954C280.884 283.511 281.031 282.015 281.595 280.656C282.158 279.297 283.112 278.135 284.336 277.318C285.561 276.501 287 276.064 288.472 276.064C289.449 276.064 290.418 276.257 291.321 276.631C292.225 277.005 293.045 277.554 293.737 278.245C294.428 278.936 294.976 279.757 295.35 280.66C295.724 281.563 295.916 282.531 295.915 283.508V283.508Z" fill="#004682"/>
<path d="M311.172 283.508C311.17 284.979 310.733 286.415 309.914 287.637C309.096 288.859 307.933 289.81 306.574 290.372C305.214 290.933 303.718 291.079 302.276 290.791C300.833 290.504 299.509 289.795 298.469 288.755C297.429 287.714 296.722 286.389 296.435 284.947C296.149 283.505 296.297 282.011 296.86 280.653C297.423 279.294 298.377 278.134 299.6 277.317C300.823 276.5 302.261 276.064 303.732 276.064C304.71 276.064 305.679 276.256 306.582 276.63C307.486 277.004 308.306 277.553 308.997 278.244C309.688 278.935 310.236 279.756 310.609 280.66C310.982 281.563 311.174 282.531 311.172 283.508Z" fill="#FFC800"/>
<path d="M226.993 312.809L220.292 308.166L278.369 224.496L285.065 229.147L226.993 312.809Z" fill="#005A87"/>
<path d="M336.441 312.809L278.369 229.147L285.066 224.496L343.142 308.166L336.441 312.809Z" fill="#005A87"/>
<path d="M257.749 270.14C257.748 271.612 257.31 273.051 256.491 274.275C255.672 275.499 254.508 276.452 253.146 277.015C251.785 277.577 250.287 277.723 248.842 277.435C247.398 277.147 246.071 276.436 245.03 275.394C243.989 274.352 243.281 273.025 242.995 271.581C242.709 270.136 242.858 268.64 243.423 267.28C243.988 265.92 244.944 264.758 246.17 263.942C247.396 263.125 248.836 262.69 250.31 262.691C251.287 262.692 252.256 262.885 253.159 263.26C254.062 263.634 254.882 264.183 255.573 264.875C256.264 265.567 256.812 266.388 257.185 267.291C257.559 268.194 257.75 269.162 257.749 270.14V270.14Z" fill="#004682"/>
<path d="M273.036 270.14C273.034 271.61 272.597 273.046 271.779 274.268C270.961 275.49 269.799 276.442 268.44 277.005C267.081 277.567 265.585 277.715 264.143 277.428C262.7 277.142 261.374 276.435 260.333 275.396C259.292 274.358 258.582 273.034 258.293 271.592C258.005 270.151 258.149 268.656 258.71 267.297C259.27 265.937 260.221 264.775 261.442 263.955C262.663 263.135 264.1 262.696 265.571 262.691C266.551 262.689 267.522 262.879 268.428 263.252C269.334 263.626 270.158 264.174 270.851 264.866C271.545 265.558 272.095 266.38 272.47 267.285C272.845 268.19 273.037 269.16 273.036 270.14V270.14Z" fill="#C80000"/>
<path d="M288.275 270.14C288.273 271.61 287.834 273.046 287.015 274.267C286.197 275.488 285.034 276.439 283.674 277C282.314 277.561 280.819 277.706 279.377 277.418C277.935 277.13 276.61 276.42 275.571 275.38C274.532 274.34 273.825 273.015 273.539 271.573C273.252 270.131 273.401 268.636 273.964 267.278C274.527 265.921 275.481 264.76 276.704 263.944C277.927 263.127 279.365 262.691 280.836 262.691C281.814 262.691 282.782 262.884 283.686 263.259C284.589 263.633 285.41 264.182 286.101 264.874C286.792 265.565 287.34 266.387 287.713 267.29C288.086 268.194 288.277 269.162 288.275 270.14Z" fill="#004682"/>
<path d="M303.546 270.14C303.544 271.611 303.106 273.048 302.287 274.27C301.468 275.493 300.305 276.445 298.945 277.007C297.584 277.569 296.088 277.715 294.645 277.427C293.201 277.139 291.876 276.429 290.835 275.389C289.795 274.348 289.087 273.022 288.801 271.579C288.514 270.136 288.662 268.641 289.226 267.282C289.789 265.923 290.743 264.762 291.967 263.945C293.191 263.128 294.63 262.691 296.102 262.691C297.08 262.691 298.049 262.884 298.953 263.259C299.856 263.633 300.677 264.182 301.368 264.873C302.06 265.565 302.608 266.386 302.981 267.29C303.355 268.193 303.547 269.162 303.546 270.14Z" fill="#C80000"/>
<path d="M323.036 273.303C323.036 274.774 322.599 276.213 321.781 277.436C320.964 278.66 319.801 279.613 318.441 280.176C317.081 280.739 315.584 280.887 314.14 280.6C312.696 280.313 311.37 279.604 310.329 278.564C309.288 277.523 308.579 276.198 308.291 274.754C308.004 273.311 308.152 271.815 308.715 270.456C309.278 269.097 310.233 267.935 311.457 267.117C312.681 266.3 314.12 265.863 315.592 265.863C316.57 265.863 317.538 266.055 318.441 266.428C319.345 266.802 320.166 267.35 320.857 268.041C321.548 268.732 322.097 269.552 322.47 270.455C322.844 271.358 323.036 272.326 323.036 273.303V273.303Z" fill="#C80000"/>
<path d="M315.202 260.422C315.203 261.893 314.767 263.332 313.949 264.556C313.132 265.78 311.97 266.734 310.61 267.298C309.25 267.862 307.753 268.01 306.309 267.723C304.864 267.437 303.538 266.728 302.496 265.688C301.455 264.648 300.745 263.322 300.458 261.879C300.17 260.436 300.317 258.94 300.881 257.58C301.444 256.22 302.398 255.058 303.622 254.24C304.846 253.423 306.286 252.986 307.758 252.986C309.732 252.986 311.624 253.77 313.02 255.164C314.416 256.558 315.201 258.449 315.202 260.422Z" fill="#004682"/>
<path d="M295.915 256.924C295.915 258.395 295.479 259.834 294.661 261.057C293.843 262.281 292.68 263.234 291.32 263.797C289.96 264.36 288.463 264.508 287.019 264.221C285.575 263.934 284.249 263.225 283.208 262.185C282.167 261.144 281.458 259.819 281.171 258.375C280.884 256.932 281.031 255.436 281.594 254.077C282.158 252.718 283.112 251.556 284.336 250.738C285.56 249.921 286.999 249.484 288.472 249.484C290.446 249.484 292.339 250.268 293.735 251.663C295.131 253.059 295.915 254.951 295.915 256.924Z" fill="#FFC800"/>
<path d="M333.796 262.334C333.796 263.806 333.359 265.244 332.541 266.467C331.723 267.691 330.561 268.644 329.201 269.208C327.84 269.771 326.344 269.918 324.9 269.631C323.456 269.344 322.129 268.635 321.088 267.595C320.047 266.554 319.338 265.229 319.051 263.786C318.764 262.342 318.911 260.847 319.475 259.487C320.038 258.128 320.992 256.966 322.216 256.148C323.441 255.331 324.88 254.895 326.352 254.895C327.33 254.893 328.298 255.085 329.202 255.459C330.105 255.832 330.926 256.38 331.618 257.071C332.309 257.762 332.858 258.583 333.231 259.486C333.605 260.389 333.797 261.357 333.796 262.334V262.334Z" fill="#004682"/>
<path d="M244.586 262.401C244.586 263.872 244.149 265.31 243.331 266.534C242.513 267.757 241.351 268.711 239.991 269.274C238.63 269.837 237.134 269.984 235.69 269.697C234.246 269.41 232.919 268.702 231.878 267.661C230.837 266.621 230.128 265.295 229.841 263.852C229.554 262.409 229.701 260.913 230.265 259.554C230.828 258.194 231.782 257.032 233.006 256.215C234.231 255.397 235.67 254.961 237.142 254.961C239.116 254.961 241.01 255.745 242.405 257.14C243.801 258.535 244.586 260.427 244.586 262.401Z" fill="#FFC800"/>
<path d="M257.945 254.699C257.945 256.171 257.51 257.609 256.692 258.833C255.875 260.057 254.712 261.012 253.352 261.575C251.992 262.139 250.495 262.287 249.051 262.001C247.607 261.714 246.28 261.006 245.239 259.965C244.197 258.925 243.488 257.6 243.2 256.156C242.913 254.713 243.06 253.217 243.623 251.857C244.187 250.498 245.141 249.335 246.365 248.518C247.589 247.7 249.028 247.264 250.501 247.264C252.474 247.264 254.367 248.047 255.763 249.441C257.159 250.835 257.943 252.727 257.945 254.699Z" fill="#C80000"/>
<path opacity="0.5" d="M253.278 295.447L213.057 255.244V198.396L253.278 158.197H310.157L350.378 198.396V255.244L310.157 295.447H253.278Z" fill="#C8F5FA"/>
<path d="M311.847 299.521H251.588L208.98 256.933V196.707L251.588 154.123H311.847L354.454 196.707V256.933L311.847 299.521ZM254.946 291.377H308.45L346.284 253.559V200.085L308.45 162.276H254.946L217.112 200.085V253.559L254.946 291.377Z" fill="#006496"/>
<path d="M255.162 157.417L251.396 158.977L308.279 296.228L312.045 294.669L255.162 157.417Z" fill="#006496"/>
<path d="M255.159 296.225L251.388 294.664L308.276 157.414L312.042 158.976L255.159 296.225Z" fill="#006496"/>
<path d="M213.834 257.128L212.276 253.368L349.596 196.516L351.163 200.28L213.834 257.128Z" fill="#006496"/>
<path d="M213.833 196.513L212.273 200.277L349.595 257.127L351.155 253.363L213.833 196.513Z" fill="#006496"/>
<path d="M296.293 226.823C296.294 229.705 295.44 232.522 293.838 234.919C292.237 237.315 289.961 239.183 287.297 240.287C284.634 241.39 281.702 241.679 278.874 241.117C276.046 240.556 273.448 239.168 271.409 237.131C269.37 235.094 267.981 232.498 267.419 229.671C266.856 226.845 267.144 223.915 268.247 221.253C269.351 218.59 271.219 216.315 273.616 214.714C276.014 213.112 278.832 212.258 281.716 212.258C283.63 212.257 285.525 212.634 287.294 213.365C289.063 214.097 290.67 215.17 292.023 216.522C293.377 217.875 294.451 219.481 295.183 221.248C295.916 223.016 296.293 224.91 296.293 226.823Z" fill="#006496"/>
<path d="M289.171 226.821C289.176 228.294 288.744 229.735 287.929 230.962C287.114 232.19 285.953 233.148 284.593 233.715C283.233 234.283 281.735 234.434 280.289 234.151C278.843 233.867 277.513 233.161 276.469 232.122C275.424 231.083 274.712 229.757 274.421 228.313C274.131 226.869 274.276 225.371 274.837 224.009C275.399 222.648 276.352 221.483 277.577 220.663C278.801 219.843 280.241 219.404 281.715 219.402C283.688 219.399 285.581 220.178 286.979 221.569C288.377 222.96 289.166 224.849 289.171 226.821Z" fill="#FFC800"/>
<path d="M234.085 306.582H213.197V314.391H234.085V306.582Z" fill="#005A87"/>
<path d="M350.229 306.582H329.346V314.391H350.229V306.582Z" fill="#005A87"/>
<path d="M486.093 353.99L591.061 320.535L610 379.878L505.04 413.338L486.093 353.99Z" fill="#2B478B"/>
<path d="M521.593 404.557L591.406 382.293C590.916 378.511 591.593 374.67 593.346 371.282C595.098 367.895 597.844 365.122 601.215 363.336L593.478 339.115C589.692 339.605 585.846 338.93 582.454 337.18C579.061 335.43 576.283 332.688 574.489 329.32L504.68 351.593C505.17 355.374 504.495 359.215 502.745 362.603C500.996 365.992 498.255 368.767 494.888 370.559L502.612 394.749C506.398 394.264 510.242 394.943 513.632 396.695C517.023 398.447 519.8 401.189 521.593 404.557V404.557Z" fill="#C0D8FB"/>
<path d="M539.529 340.469L504.68 351.584C505.17 355.365 504.495 359.206 502.745 362.594C500.996 365.983 498.255 368.758 494.888 370.55L502.612 394.74C506.397 394.255 510.241 394.933 513.632 396.684C517.022 398.435 519.799 401.177 521.593 404.544L556.412 393.433L539.529 340.469Z" fill="#CBE1FD"/>
<path d="M524.993 374.277C521.961 364.775 529.834 353.779 542.539 349.726C555.244 345.673 568.068 350.086 571.104 359.597C574.14 369.108 566.271 380.095 553.545 384.153C540.819 388.21 528.025 383.805 524.993 374.277Z" fill="#2B478B"/>
<path d="M576.747 357.782C576.445 356.827 576.433 355.804 576.712 354.842C576.992 353.879 577.551 353.022 578.318 352.377C579.085 351.732 580.026 351.329 581.023 351.218C582.019 351.108 583.026 351.295 583.916 351.757C584.806 352.218 585.539 352.932 586.022 353.81C586.506 354.688 586.718 355.689 586.633 356.687C586.547 357.685 586.168 358.636 585.542 359.418C584.916 360.201 584.072 360.781 583.117 361.084C582.481 361.286 581.813 361.36 581.149 361.304C580.485 361.247 579.838 361.06 579.247 360.753C578.655 360.446 578.13 360.026 577.701 359.516C577.272 359.007 576.948 358.417 576.747 357.782V357.782Z" fill="#2B478B"/>
<path d="M509.677 379.167C509.37 378.213 509.353 377.19 509.628 376.227C509.903 375.264 510.458 374.405 511.222 373.757C511.987 373.109 512.926 372.702 513.921 372.588C514.917 372.473 515.924 372.657 516.815 373.115C517.706 373.573 518.442 374.284 518.928 375.16C519.415 376.036 519.63 377.036 519.548 378.034C519.466 379.032 519.089 379.983 518.466 380.767C517.842 381.551 517 382.133 516.046 382.439C514.767 382.846 513.379 382.731 512.185 382.118C510.991 381.504 510.089 380.443 509.677 379.167V379.167Z" fill="#2B478B"/>
<path d="M545.031 351.193L546.127 354.631C547.618 354.221 549.148 353.968 550.692 353.876C551.893 353.816 552.895 353.816 553.706 353.85L555.515 359.524L549.21 361.519C549.106 361.056 548.843 360.645 548.466 360.356C548.157 360.157 547.617 360.178 546.895 360.403C546.418 360.515 545.984 360.764 545.647 361.12C545.546 361.259 545.481 361.421 545.46 361.592C545.438 361.763 545.46 361.936 545.524 362.096C545.565 362.232 545.637 362.356 545.732 362.461C545.827 362.566 545.945 362.649 546.076 362.703C546.576 362.872 547.098 362.964 547.626 362.979C549.211 363.064 550.614 363.178 551.834 363.323C552.917 363.444 553.979 363.714 554.989 364.125C555.843 364.471 556.607 365.004 557.227 365.686C557.877 366.492 558.362 367.418 558.653 368.411C558.936 369.28 559.079 370.188 559.078 371.102C559.062 371.941 558.859 372.766 558.483 373.517C558.037 374.353 557.419 375.086 556.67 375.668C555.691 376.437 554.609 377.066 553.456 377.536L554.496 380.825L550.738 382.021L549.715 378.783C548.81 379.008 547.974 379.174 547.252 379.28C546.58 379.368 545.904 379.417 545.227 379.428C544.647 379.46 544.065 379.46 543.486 379.428C543.03 379.414 542.577 379.348 542.135 379.233L540.505 374.119L546.496 372.188C546.538 372.409 546.634 372.615 546.777 372.789C546.919 372.963 547.103 373.097 547.312 373.181C547.713 373.277 548.133 373.253 548.522 373.113C548.997 373.002 549.436 372.769 549.796 372.439C549.908 372.306 549.981 372.145 550.007 371.973C550.032 371.801 550.009 371.626 549.94 371.467C549.9 371.313 549.814 371.176 549.695 371.072C549.575 370.968 549.426 370.903 549.269 370.885C548.772 370.822 548.271 370.792 547.77 370.796C546.556 370.796 545.388 370.741 544.271 370.656C543.226 370.573 542.198 370.348 541.214 369.986C540.29 369.641 539.45 369.102 538.751 368.407C537.993 367.585 537.441 366.596 537.137 365.521C536.433 363.318 536.53 361.426 537.422 359.813C538.314 358.2 539.97 356.842 542.377 355.845L541.265 352.386L545.031 351.193Z" fill="#CBE1FD"/>
<path d="M27.4862 3.5957L82.4034 52.1635L54.9172 83.2165L0 34.653L27.4862 3.5957Z" fill="#2B478B"/>
<path d="M10.6665 41.1144L47.1846 73.4109C49.182 71.8436 51.6103 70.9227 54.1453 70.771C56.6802 70.6193 59.2011 71.2442 61.3714 72.5621L72.6113 59.877C71.0443 57.8776 70.1236 55.4487 69.9719 52.9134C69.8202 50.3782 70.4446 47.857 71.762 45.6852L35.244 13.3887C33.2482 14.9577 30.8215 15.8818 28.2871 16.038C25.7526 16.1942 23.2307 15.575 21.0572 14.2629L9.80029 26.9269C11.369 28.9241 12.2921 31.3513 12.4469 33.8857C12.6016 36.42 11.9806 38.9414 10.6665 41.1144V41.1144Z" fill="#C0D8FB"/>
<path d="M53.4393 29.5118L35.2016 13.3848C33.2057 14.9538 30.779 15.8779 28.2446 16.0341C25.7102 16.1902 23.1883 15.5711 21.0147 14.259L9.80029 26.9272C11.3664 28.9262 12.2865 31.3543 12.4382 33.8887C12.5899 36.423 11.966 38.9434 10.6495 41.1148L28.8788 57.2418L53.4393 29.5118Z" fill="#CBE1FD"/>
<path d="M29.1462 32.7355C33.5453 27.7659 42.5177 28.517 49.1674 34.3949C55.8171 40.2728 57.66 49.1002 53.2608 54.0784C48.8617 59.0565 39.8893 58.3223 33.2268 52.419C26.5644 46.5156 24.73 37.7179 29.1462 32.7355Z" fill="#2B478B"/>
<path d="M56.2209 56.6822C56.6639 56.1829 57.2452 55.8261 57.8911 55.657C58.5371 55.4879 59.2187 55.514 59.8498 55.7321C60.4809 55.9502 61.033 56.3505 61.4365 56.8823C61.8399 57.4141 62.0765 58.0535 62.1163 58.7197C62.1561 59.3859 61.9974 60.0489 61.6601 60.6249C61.3228 61.2009 60.8222 61.664 60.2216 61.9556C59.621 62.2472 58.9473 62.3543 58.2858 62.2632C57.6243 62.1721 57.0047 61.887 56.5054 61.4439C55.841 60.847 55.4387 60.0126 55.3854 59.1214C55.3322 58.2302 55.6323 57.3539 56.2209 56.6822Z" fill="#2B478B"/>
<path d="M21.1254 25.6501C21.5664 25.1487 22.1464 24.7894 22.7918 24.6176C23.4372 24.4458 24.1192 24.4692 24.7513 24.6848C25.3834 24.9005 25.9373 25.2988 26.3429 25.8292C26.7484 26.3596 26.9875 26.9983 27.0297 27.6646C27.0719 28.3308 26.9154 28.9946 26.5801 29.5719C26.2447 30.1492 25.7455 30.6142 25.1456 30.9078C24.5458 31.2015 23.8723 31.3107 23.2103 31.2216C22.5483 31.1326 21.9277 30.8493 21.4269 30.4075C20.7614 29.8131 20.3567 28.9808 20.3003 28.0906C20.2438 27.2003 20.5402 26.3236 21.1254 25.6501V25.6501Z" fill="#2B478B"/>
<path d="M49.181 36.3155L47.5886 38.1107C48.3305 38.8237 48.9965 39.6117 49.5759 40.4619C50.0005 41.1282 50.3614 41.7011 50.6205 42.1594L47.9878 45.1302L44.7011 42.2104C44.9363 41.9953 45.0869 41.7033 45.1258 41.387C45.1258 41.1409 44.9432 40.8481 44.5653 40.5085C44.3375 40.2679 44.0409 40.1033 43.716 40.0375C43.6015 40.0275 43.4863 40.0463 43.381 40.0923C43.2757 40.1383 43.1835 40.2099 43.113 40.3006C43.0501 40.3707 43.0033 40.4538 42.9762 40.5441C42.949 40.6343 42.9421 40.7294 42.9559 40.8226C43.03 41.1658 43.1545 41.4962 43.3253 41.8029C43.8179 42.7366 44.2298 43.5769 44.561 44.3239C44.8602 44.9772 45.0688 45.6682 45.181 46.3779C45.2752 46.9842 45.2302 47.6038 45.0493 48.1901C44.8144 48.8379 44.4504 49.4313 43.9793 49.9344C43.5801 50.395 43.1099 50.789 42.5865 51.1015C42.1012 51.3787 41.5601 51.544 41.0026 51.5853C40.3722 51.6161 39.7424 51.512 39.1555 51.2797C38.3812 50.9867 37.6533 50.5837 36.9941 50.0829L35.4655 51.7805L33.4995 50.0702L35.0026 48.3726C34.578 47.9482 34.1874 47.5238 33.8816 47.1334C33.609 46.7821 33.3552 46.4166 33.1215 46.0384C32.8965 45.6947 32.6969 45.3594 32.5271 45.0453C32.3809 44.7762 32.2656 44.4915 32.1831 44.1965L34.5483 41.5229L37.6948 44.3069C37.5822 44.4048 37.4965 44.53 37.446 44.6704C37.3954 44.8108 37.3817 44.9618 37.406 45.109C37.4867 45.3719 37.6433 45.6052 37.8561 45.7795C38.0704 46.0133 38.3408 46.1886 38.6417 46.2888C38.7552 46.3093 38.8722 46.297 38.979 46.2534C39.0858 46.2098 39.1779 46.1367 39.2447 46.0427C39.3186 45.9675 39.3682 45.8719 39.3871 45.7683C39.4061 45.6646 39.3934 45.5576 39.3508 45.4612C39.2159 45.1567 39.0627 44.8605 38.8922 44.5743C38.4676 43.874 38.1067 43.195 37.7755 42.5244C37.4671 41.8997 37.2456 41.2357 37.1173 40.551C37.0043 39.9062 37.0318 39.2447 37.198 38.6115C37.4107 37.898 37.7873 37.244 38.2978 36.7017C39.3169 35.5516 40.4209 34.9617 41.6608 34.9193C42.9007 34.8768 44.2086 35.3437 45.6226 36.4004L47.2192 34.584L49.181 36.3155Z" fill="#CBE1FD"/>
<path d="M9.53244 399.602C9.52079 399.582 9.51085 399.561 9.50272 399.539C9.48097 399.464 9.46954 399.387 9.46875 399.31C9.46875 399.31 9.46875 399.284 9.46875 399.276C9.51971 396.831 18.7002 395.057 29.9741 395.295C37.1927 395.448 43.5282 396.398 47.129 397.701C49.146 398.427 50.3222 399.263 50.3053 400.137C50.3028 400.228 50.2856 400.319 50.2543 400.405C50.2427 400.433 50.2285 400.46 50.2118 400.485C50.1786 400.569 50.1359 400.649 50.0844 400.723C50.0448 400.789 49.9993 400.851 49.9486 400.91C49.8747 400.994 49.7953 401.073 49.7108 401.147C49.6471 401.202 49.5791 401.258 49.5027 401.313C49.3919 401.397 49.2756 401.473 49.1545 401.542C49.0653 401.597 48.9762 401.648 48.8785 401.699C48.7808 401.75 48.5855 401.847 48.4242 401.92C48.2628 401.992 48.2033 402.017 48.0845 402.064C47.9656 402.111 47.7278 402.204 47.5324 402.272L47.1333 402.408C46.9252 402.471 46.7087 402.539 46.4879 402.603L46.0377 402.722C45.7999 402.785 45.5579 402.845 45.3031 402.904L44.7978 403.01C44.5303 403.066 44.2628 403.125 43.9825 403.176L43.4263 403.273L42.5388 403.418L41.9358 403.503L40.9804 403.63L40.3477 403.698C40.0038 403.736 39.6641 403.774 39.3116 403.804L38.6789 403.859L37.5494 403.944C37.3498 403.944 37.1248 403.969 36.938 403.982L35.698 404.05H35.1545C34.7002 404.05 34.2416 404.084 33.7745 404.093H33.473C32.2755 404.093 31.0441 404.118 29.7872 404.093C28.5303 404.067 27.214 404.012 25.9656 403.936H25.7957C25.2819 403.902 24.7808 403.863 24.284 403.821L23.8806 403.791L22.5176 403.66L22.042 403.609C21.6174 403.562 21.1927 403.511 20.7893 403.456L20.2925 403.397L19.1375 403.227L18.6492 403.167C18.2798 403.108 17.9231 403.04 17.5707 402.976L17.1078 402.891L16.1014 402.684L15.6768 402.59C15.3541 402.518 15.0484 402.442 14.7511 402.361L14.3732 402.263C14.0802 402.187 13.8042 402.102 13.524 402.021L13.2055 401.894C12.9465 401.809 12.7044 401.724 12.4666 401.635L12.1779 401.525C11.9528 401.436 11.7533 401.347 11.5452 401.253L11.2989 401.139C11.1121 401.045 10.938 400.952 10.7766 400.854L10.5855 400.736C10.4474 400.645 10.3141 400.547 10.1864 400.443C10.134 400.402 10.0843 400.358 10.0378 400.311C9.93836 400.224 9.84737 400.127 9.76599 400.023C9.73094 399.977 9.69969 399.929 9.67257 399.878C9.6142 399.793 9.5671 399.7 9.53244 399.602V399.602Z" fill="#FFCD2E"/>
<path d="M9.34229 397.585L9.46118 392.102C9.46008 392.248 9.49049 392.393 9.55035 392.526V392.564C9.62319 392.72 9.72069 392.863 9.8391 392.989V392.989C9.96919 393.131 10.1113 393.261 10.2637 393.379L10.4039 393.477C10.5544 393.581 10.7103 393.677 10.8709 393.765C10.9304 393.799 10.9898 393.837 11.0578 393.871C11.2913 393.994 11.5461 394.117 11.8306 394.236L11.9707 394.296C12.217 394.393 12.476 394.495 12.752 394.588L13.0875 394.703L13.8221 394.932L14.2043 395.043C14.4973 395.123 14.803 395.2 15.1172 395.28L15.406 395.352C15.8306 395.45 16.2552 395.548 16.7223 395.637L17.0493 395.7C17.406 395.768 17.7712 395.836 18.1491 395.9L18.6501 395.985L19.7117 396.146L20.2255 396.218C20.6501 396.282 21.1215 396.337 21.5843 396.388L21.8518 396.422C22.4081 396.486 22.9728 396.541 23.5503 396.592L24.0514 396.634C24.476 396.672 24.9007 396.702 25.3465 396.732L25.9622 396.774L27.2616 396.846L27.8476 396.872C28.4718 396.897 29.1215 396.918 29.7499 396.931C41.0238 397.173 50.2127 395.395 50.2637 392.963L50.1448 398.446C50.0938 400.882 40.9049 402.656 29.631 402.419C28.9898 402.419 28.3571 402.385 27.7287 402.359L27.1767 402.317C26.752 402.317 26.3062 402.274 25.8773 402.245L25.2573 402.206L23.9835 402.109L23.4824 402.066C22.9049 402.015 22.3359 401.956 21.7839 401.897L21.5164 401.863L20.1533 401.693L19.6395 401.621C19.2786 401.566 18.9261 401.515 18.5779 401.455L18.0769 401.375C17.699 401.311 17.3338 401.243 16.9771 401.171L16.6501 401.111C16.1958 401.018 15.7584 400.925 15.338 400.823L15.0493 400.751C14.7351 400.674 14.4251 400.594 14.1321 400.513L13.7499 400.403C13.4951 400.326 13.2531 400.254 13.0153 400.174L12.6841 400.063C12.4081 399.966 12.1491 399.868 11.9028 399.766L11.7584 399.711C11.4782 399.592 11.2234 399.469 10.9856 399.346L10.7988 399.24C10.6926 399.176 10.578 399.117 10.4803 399.053C10.3826 398.989 10.3826 398.985 10.3359 398.951L10.1958 398.849C10.0427 398.734 9.90055 398.605 9.77116 398.463V398.463C9.65939 398.335 9.56515 398.192 9.49091 398.039V398.013C9.49201 398.002 9.49201 397.991 9.49091 397.979C9.41447 397.86 9.36386 397.725 9.34229 397.585V397.585Z" fill="#F5B026"/>
<path d="M9.53244 392.431C9.52079 392.411 9.51085 392.39 9.50272 392.368C9.48058 392.292 9.46915 392.213 9.46875 392.134C9.46875 392.134 9.46875 392.134 9.46875 392.104C9.51971 389.66 18.7002 387.882 29.9741 388.124C37.1927 388.276 43.5282 389.223 47.129 390.526C49.146 391.256 50.3222 392.092 50.3053 392.966C50.3028 393.057 50.2856 393.148 50.2543 393.233C50.2427 393.261 50.2285 393.288 50.2118 393.314C50.1786 393.398 50.1359 393.478 50.0844 393.552C50.0448 393.618 49.9993 393.68 49.9486 393.738C49.8746 393.821 49.7952 393.899 49.7108 393.972C49.6451 394.033 49.5756 394.089 49.5027 394.142C49.3909 394.224 49.2747 394.301 49.1545 394.371C49.0653 394.426 48.9762 394.477 48.8785 394.528C48.7808 394.579 48.5855 394.676 48.4242 394.748C48.2628 394.821 48.2033 394.846 48.0845 394.893C47.9656 394.939 47.7278 395.033 47.5324 395.101C47.405 395.147 47.2692 395.19 47.1333 395.232C46.9252 395.3 46.7087 395.368 46.4879 395.432L46.0377 395.551L45.3031 395.733L44.7978 395.839L43.9825 396.005L43.4263 396.102L42.5388 396.247L41.9358 396.331L40.9804 396.454L40.3477 396.527L39.3116 396.633C39.1036 396.633 38.887 396.667 38.6789 396.684C38.3053 396.718 37.9358 396.747 37.5494 396.773L36.9422 396.802C36.5176 396.824 36.1227 396.849 35.7023 396.866L35.1588 396.887C34.7044 396.887 34.2458 396.921 33.7787 396.93H33.4772C32.2798 396.93 31.0484 396.955 29.7915 396.93C28.5346 396.904 27.2182 396.849 25.9698 396.773H25.8C25.2862 396.739 24.7851 396.696 24.2883 396.658L23.8849 396.629L22.5218 396.493L22.0462 396.446C21.6216 396.399 21.197 396.348 20.7936 396.293L20.2968 396.234L19.1418 396.064L18.6407 395.988C18.2713 395.928 17.9146 395.86 17.5622 395.797L17.0993 395.712L16.093 395.504L15.6683 395.41C15.3456 395.338 15.0399 395.262 14.7426 395.181L14.3647 395.084L13.5155 394.842L13.18 394.736C12.921 394.651 12.6789 394.566 12.4411 394.477L12.1524 394.366C11.9273 394.277 11.7278 394.188 11.5197 394.095L11.2734 393.98C11.0866 393.887 10.9125 393.789 10.7511 393.696L10.56 393.573C10.421 393.485 10.2877 393.389 10.1609 393.284C10.1085 393.244 10.0588 393.2 10.0123 393.153C9.91288 393.065 9.82189 392.969 9.74051 392.864C9.70641 392.818 9.67521 392.77 9.64709 392.72C9.59659 392.629 9.55805 392.532 9.53244 392.431Z" fill="#FFCD2E"/>
<path d="M6.30566 390.433L6.42031 384.916C6.42289 385.062 6.45465 385.207 6.51373 385.34C6.51193 385.353 6.51193 385.366 6.51373 385.379C6.5866 385.534 6.68252 385.677 6.79823 385.803C6.92653 385.946 7.06878 386.075 7.22286 386.189L7.36299 386.291C7.50312 386.389 7.66023 386.482 7.82583 386.58L8.01267 386.686C8.25046 386.809 8.50524 386.932 8.78549 387.051L8.92987 387.11C9.17615 387.208 9.43517 387.305 9.71118 387.403L10.0424 387.518L10.7812 387.747L11.1592 387.853C11.4522 387.938 11.7621 388.014 12.0764 388.095L12.3651 388.167C12.7897 388.264 13.2144 388.358 13.6772 388.451L14.0084 388.515C14.3651 388.583 14.7303 388.651 15.104 388.714L15.6093 388.799L16.6666 388.961L17.1846 389.033C17.6093 389.092 18.0806 389.151 18.5434 389.202L18.811 389.236C19.3672 389.3 19.932 389.355 20.5095 389.406L21.0105 389.449L22.2844 389.546L22.9044 389.589C23.329 389.614 23.7536 389.64 24.2037 389.657L24.7897 389.686C25.4139 389.712 26.0636 389.733 26.6878 389.746C37.9659 389.988 47.1549 388.209 47.2059 385.778L47.1337 391.282C47.0827 393.718 37.8938 395.492 26.6199 395.254C25.9787 395.254 25.346 395.22 24.7175 395.191L24.1316 395.165C23.7069 395.165 23.2823 395.123 22.8364 395.093L22.2165 395.055L20.9426 394.957L20.4415 394.915C19.864 394.864 19.295 394.804 18.743 394.745L18.4713 394.711L17.1125 394.541L16.5987 394.465L15.5371 394.304L15.036 394.223C14.6581 394.159 14.2929 394.091 13.9362 394.019L13.588 393.956C13.1337 393.862 12.6963 393.765 12.2759 393.667L11.9872 393.595C11.6687 393.519 11.363 393.438 11.07 393.357L10.6878 393.247L9.95322 393.018L9.61776 392.907C9.34176 392.81 9.08273 392.712 8.84069 392.61L8.70481 392.555C8.42456 392.436 8.16554 392.313 7.93199 392.186C7.86405 392.152 7.80885 392.118 7.74515 392.08C7.68146 392.042 7.5201 391.961 7.42668 391.897L7.27806 391.795L7.14218 391.694C6.98908 391.578 6.84694 391.449 6.71755 391.307V391.307C6.60687 391.186 6.51264 391.05 6.4373 390.904V390.879V390.845C6.36494 390.718 6.32008 390.578 6.30566 390.433V390.433Z" fill="#F5B026"/>
<path d="M6.49296 385.257C6.48131 385.237 6.47137 385.216 6.46324 385.194C6.43747 385.119 6.42595 385.04 6.42927 384.96C6.42927 384.96 6.42927 384.939 6.42927 384.926C6.48447 382.486 15.6607 380.708 26.9346 380.95C34.1532 381.103 40.4929 382.049 44.0938 383.352C46.1108 384.082 47.287 384.918 47.2658 385.792C47.2668 385.883 47.251 385.974 47.219 386.059C47.219 386.089 47.1851 386.115 47.1766 386.14C47.1434 386.224 47.1006 386.304 47.0492 386.378C47.0081 386.443 46.9627 386.505 46.9133 386.565C46.8394 386.648 46.7599 386.726 46.6755 386.798C46.6118 386.857 46.5396 386.913 46.4675 386.968C46.3953 387.023 46.2424 387.12 46.1193 387.197C45.9961 387.273 45.9367 387.303 45.839 387.354C45.7413 387.405 45.5503 387.502 45.3889 387.575L45.0492 387.719C44.8708 387.791 44.6925 387.859 44.4972 387.927C44.3698 387.974 44.2339 388.016 44.098 388.058C43.89 388.126 43.6734 388.194 43.4526 388.258L42.9982 388.377L42.2636 388.559L41.7626 388.665L40.9473 388.831L40.391 388.924C40.098 388.975 39.8093 389.026 39.5036 389.073L38.9006 389.158L37.9452 389.281L37.3125 389.353L36.2721 389.459C36.0683 389.459 35.8475 389.493 35.6437 389.51C35.27 389.544 34.9006 389.574 34.5142 389.599L33.8985 389.633C33.4738 389.658 33.0832 389.684 32.6628 389.701L32.1193 389.722C31.6607 389.722 31.2063 389.756 30.7392 389.764H30.4377C29.2403 389.786 28.0089 389.79 26.7477 389.764C25.4866 389.739 24.2 389.684 22.9473 389.607H22.7775C22.2637 389.578 21.7626 389.535 21.2615 389.497L20.8624 389.463C20.3995 389.425 19.9494 389.378 19.4993 389.332L19.0237 389.285C18.5991 389.238 18.1745 389.187 17.7499 389.132L17.253 389.073C16.8539 389.018 16.476 388.958 16.0938 388.899L15.597 388.827L14.5184 388.636L14.0556 388.551L13.062 388.313L12.6373 388.22C12.3146 388.148 12.0089 388.067 11.7074 387.99L11.3337 387.893C11.0407 387.812 10.7647 387.732 10.4845 387.647L10.149 387.545C9.88999 387.46 9.6437 387.371 9.41016 387.286L9.12141 387.176C8.89211 387.087 8.69678 386.993 8.48447 386.904L8.24243 386.789C8.0556 386.696 7.8815 386.598 7.72014 386.505L7.52481 386.382C7.38648 386.293 7.25322 386.197 7.12566 386.093C7.0747 386.051 7.02375 386.009 6.97704 385.962C6.8801 385.873 6.79062 385.777 6.70952 385.673C6.67131 385.622 6.64158 385.576 6.61186 385.529C6.56104 385.444 6.5211 385.353 6.49296 385.257V385.257Z" fill="#FFCD2E"/>
<path d="M9.34229 383.241L9.46118 377.754C9.46021 377.9 9.49062 378.045 9.55035 378.178V378.217C9.62418 378.372 9.72157 378.515 9.8391 378.641V378.641C9.97038 378.78 10.1124 378.91 10.2637 379.027L10.4039 379.129C10.544 379.227 10.7011 379.32 10.8709 379.418C10.9304 379.451 10.9898 379.49 11.0578 379.524C11.2913 379.647 11.5461 379.77 11.8306 379.889C11.8731 379.91 11.9283 379.927 11.9707 379.944C12.217 380.046 12.476 380.143 12.752 380.241L13.0875 380.351C13.3211 380.432 13.5673 380.508 13.8221 380.58L14.2043 380.691C14.4973 380.771 14.803 380.852 15.1172 380.928L15.406 381.001C15.8306 381.102 16.2552 381.196 16.7223 381.289L17.0493 381.353C17.406 381.421 17.7712 381.489 18.1491 381.552L18.6501 381.637L19.7117 381.798L20.2255 381.871C20.6501 381.93 21.1215 381.989 21.5843 382.04L21.8518 382.074C22.4081 382.138 22.9728 382.193 23.5503 382.244L24.0514 382.286L25.3465 382.384L25.9622 382.427L27.2616 382.494L27.8476 382.524C28.4718 382.55 29.1215 382.571 29.7499 382.584C41.0238 382.825 50.2127 381.047 50.2637 378.615L50.1448 384.099C50.0938 386.53 40.9049 388.309 29.631 388.071C28.9898 388.071 28.3571 388.033 27.7287 388.007L27.1767 387.99L25.9028 387.918L25.2616 387.889C24.837 387.859 24.4123 387.825 23.9877 387.787L23.4867 387.748C22.9092 387.693 22.3402 387.638 21.7881 387.574L21.5206 387.545L20.1576 387.375L19.6438 387.299L18.5822 387.137L18.0641 387.04L16.9856 386.844C16.8794 386.844 16.7648 386.806 16.6586 386.781C16.2043 386.692 15.7669 386.594 15.3465 386.496L15.0578 386.424C14.7436 386.348 14.4336 386.267 14.1406 386.187L13.7584 386.076L13.0238 385.847L12.6926 385.737C12.4166 385.639 12.1576 385.542 11.9113 385.44L11.7669 385.385C11.4867 385.266 11.2319 385.143 10.9941 385.015C10.9261 384.981 10.8709 384.947 10.8073 384.909C10.7436 384.871 10.5864 384.79 10.4888 384.727C10.4382 384.695 10.39 384.659 10.3444 384.621C10.2954 384.592 10.2485 384.559 10.2043 384.523C10.0512 384.408 9.90904 384.278 9.77965 384.137V384.137C9.66845 384.016 9.57418 383.88 9.4994 383.734V383.712C9.4994 383.712 9.4994 383.687 9.4994 383.679C9.41458 383.547 9.36086 383.397 9.34229 383.241V383.241Z" fill="#F5B026"/>
<path d="M9.53244 378.086C9.52079 378.065 9.51085 378.044 9.50272 378.022C9.48105 377.946 9.46963 377.867 9.46875 377.788C9.46875 377.788 9.46875 377.767 9.46875 377.754C9.51971 375.314 18.7002 373.536 29.9741 373.778C37.1927 373.931 43.5282 374.877 47.129 376.18C49.146 376.91 50.3222 377.746 50.3053 378.62C50.3028 378.712 50.2856 378.802 50.2543 378.888C50.2418 378.915 50.2276 378.942 50.2118 378.968C50.1786 379.052 50.1359 379.132 50.0844 379.206C50.0458 379.271 50.0002 379.333 49.9486 379.388C49.8758 379.474 49.7963 379.553 49.7108 379.626C49.6451 379.687 49.5756 379.744 49.5027 379.796C49.3966 379.872 49.2819 379.949 49.1545 380.025C49.0271 380.101 48.9762 380.131 48.8785 380.182C48.7808 380.233 48.5855 380.331 48.4242 380.403L48.0845 380.547C47.9104 380.619 47.7278 380.687 47.5324 380.755C47.405 380.802 47.2692 380.844 47.1333 380.886C46.9252 380.954 46.7087 381.018 46.4879 381.082L46.0377 381.205C45.7999 381.264 45.5579 381.328 45.3031 381.383L44.7978 381.493L43.9825 381.659L43.4263 381.752C43.1375 381.803 42.8445 381.854 42.5388 381.901L41.9358 381.981C41.6216 382.028 41.3074 382.071 40.9804 382.109L40.3477 382.181L39.3116 382.287L38.6789 382.338C38.3053 382.368 37.9358 382.402 37.5494 382.427L36.938 382.461C36.5133 382.486 36.1184 382.512 35.698 382.529H35.1545C34.7002 382.529 34.2416 382.563 33.7745 382.571H33.473C32.2755 382.593 31.0441 382.593 29.7872 382.571C28.5303 382.55 27.214 382.486 25.9656 382.41H25.7957L24.284 382.3L23.8806 382.266C23.4178 382.228 22.9677 382.181 22.5176 382.134L22.042 382.088C21.6174 382.041 21.1927 381.986 20.7893 381.935C20.6237 381.935 20.4539 381.897 20.2925 381.871C19.8976 381.82 19.5155 381.761 19.1375 381.701C18.9719 381.676 18.8021 381.655 18.6365 381.625C18.267 381.566 17.9104 381.502 17.5579 381.438L17.0951 381.353C16.7511 381.285 16.4199 381.213 16.0887 381.141L15.6641 381.052L14.7384 380.823L14.3605 380.725C14.0675 380.645 13.7915 380.564 13.5112 380.479L13.1758 380.377C12.9167 380.292 12.6747 380.203 12.4369 380.118L12.1482 380.008C11.9231 379.919 11.7235 379.826 11.5155 379.736L11.2692 379.618C11.0823 379.524 10.9082 379.431 10.7469 379.337L10.5558 379.214C10.4168 379.127 10.2834 379.03 10.1566 378.926C10.1014 378.883 10.0547 378.837 10.008 378.794C9.90859 378.705 9.81761 378.607 9.73627 378.501C9.70221 378.457 9.67101 378.41 9.64285 378.361C9.5954 378.274 9.55835 378.181 9.53244 378.086V378.086Z" fill="#FFCD2E"/>
<path d="M15.8169 376.069L15.9358 370.582C15.9348 370.728 15.9652 370.873 16.025 371.006V371.04C16.0996 371.195 16.1969 371.338 16.3137 371.465V371.465C16.4431 371.606 16.5852 371.736 16.7383 371.851L16.8742 371.953C17.0143 372.05 17.1757 372.144 17.3413 372.241L17.5281 372.348C17.7617 372.471 18.0207 372.594 18.301 372.712L18.4453 372.768C18.6874 372.87 18.9464 372.967 19.2224 373.065L19.5579 373.175C19.7914 373.256 20.0377 373.332 20.2925 373.404L20.6746 373.515C20.9676 373.595 21.2734 373.676 21.5918 373.752L21.8806 373.824C22.3052 373.926 22.7298 374.02 23.1927 374.113L23.5196 374.172C23.8763 374.245 24.2415 374.312 24.6194 374.376L25.1205 374.457C25.4687 374.516 25.8211 374.567 26.1821 374.622L26.6959 374.694C27.1205 374.754 27.5961 374.813 28.0589 374.864L28.3264 374.898C28.8785 374.958 29.4475 375.017 30.025 375.068L30.526 375.11L31.7999 375.208L32.4199 375.25L33.7192 375.318L34.301 375.348C34.9294 375.373 35.5748 375.395 36.2033 375.407C47.4772 375.645 56.6661 373.871 56.7171 371.439L56.6024 376.922C56.5515 379.354 47.3625 381.132 36.0844 380.895C35.4446 380.878 34.8119 380.857 34.1863 380.831L33.6003 380.806L32.301 380.734L31.6853 380.695C31.2606 380.666 30.836 380.632 30.4114 380.593L29.9103 380.555C29.3328 380.5 28.7681 380.445 28.2118 380.381L27.9443 380.352C27.4814 380.296 27.0271 380.241 26.5855 380.178L26.0717 380.105L25.0101 379.944L24.5048 379.859C24.1311 379.796 23.7659 379.728 23.4092 379.66L23.078 379.596C22.6237 379.507 22.1863 379.409 21.7659 379.312L21.4772 379.24C21.163 379.163 20.8572 379.083 20.56 379.002L20.1821 378.892L19.4432 378.663L19.112 378.548C18.836 378.455 18.577 378.357 18.3307 378.255L18.1906 378.2C17.9061 378.077 17.6513 377.958 17.4135 377.831L17.2309 377.725C17.1205 377.665 17.0059 377.606 16.9082 377.542L16.7638 377.436L16.6237 377.338C16.4713 377.222 16.3292 377.093 16.1991 376.952V376.952C16.0833 376.827 15.9886 376.684 15.9188 376.528V376.528V376.49C15.8568 376.358 15.8221 376.215 15.8169 376.069V376.069Z" fill="#F5B026"/>
<path d="M16.0042 370.914C16.0042 370.914 15.9787 370.871 15.9745 370.85C15.9521 370.774 15.9421 370.695 15.9448 370.617C15.9448 370.617 15.9448 370.617 15.9448 370.583C15.9957 368.142 25.1762 366.364 36.4501 366.606C43.6687 366.759 50.0042 367.705 53.6093 369.008C55.6263 369.738 56.7982 370.574 56.7813 371.448C56.7823 371.54 56.7665 371.63 56.7345 371.716C56.7345 371.741 56.7006 371.767 56.6878 371.796C56.6553 371.88 56.614 371.959 56.5647 372.034C56.5232 372.098 56.4778 372.159 56.4288 372.217C56.3549 372.301 56.2755 372.38 56.191 372.454C56.1231 372.509 56.0551 372.569 55.9787 372.624C55.9023 372.679 55.7579 372.777 55.6305 372.853C55.5031 372.929 55.4522 372.959 55.3545 373.01C55.2568 373.061 55.0658 373.159 54.9044 373.231L54.5605 373.375C54.3864 373.443 54.2038 373.515 54.0127 373.583L53.6135 373.715C53.4055 373.783 53.1889 373.846 52.9681 373.91L52.5137 374.033C52.2759 374.092 52.0339 374.156 51.7791 374.211L51.2781 374.322C51.0106 374.377 50.743 374.432 50.4585 374.483L49.9065 374.58L49.0148 374.729L48.4161 374.81C48.1019 374.856 47.7876 374.899 47.4607 374.937L46.8237 375.005L45.7876 375.115L45.1592 375.166C44.7855 375.196 44.4118 375.23 44.0254 375.255L43.414 375.289C42.9893 375.315 42.5987 375.34 42.1783 375.357H41.6305C41.1762 375.357 40.7218 375.395 40.2505 375.404H39.949C38.7515 375.424 37.523 375.424 36.2632 375.404C34.961 375.373 33.6942 375.319 32.4628 375.242H32.293L30.7685 375.158L30.3651 375.124C29.9023 375.085 29.4522 375.039 29.0063 374.992L28.5265 374.945C28.1019 374.899 27.6772 374.844 27.2526 374.793L26.777 374.733C26.3821 374.682 26 374.623 25.622 374.563C25.4564 374.538 25.2866 374.517 25.1252 374.487C24.7516 374.428 24.3991 374.364 24.0424 374.3L23.5838 374.215C23.2356 374.148 22.9044 374.075 22.5775 374.003L22.1528 373.914L21.2314 373.664L20.8535 373.566C20.5647 373.485 20.2887 373.405 20.0042 373.32L19.6688 373.218C19.4097 373.133 19.1677 373.044 18.9299 372.959L18.6412 372.849C18.4161 372.76 18.2165 372.666 18.0085 372.573L17.7664 372.458C17.5753 372.365 17.4055 372.272 17.2441 372.174L17.0488 372.055C16.9098 371.968 16.7764 371.871 16.6497 371.767L16.501 371.635C16.4016 371.546 16.3106 371.448 16.2293 371.342L16.1359 371.202C16.0819 371.111 16.0378 371.014 16.0042 370.914V370.914Z" fill="#FFCD2E"/>
<path d="M9.34229 368.896L9.46118 363.408C9.4606 363.554 9.49099 363.699 9.55035 363.833V363.867C9.62345 364.022 9.72092 364.166 9.8391 364.291V364.291C9.97038 364.431 10.1124 364.56 10.2637 364.677L10.4039 364.779C10.5545 364.882 10.7104 364.977 10.8709 365.063L11.0578 365.174C11.2913 365.297 11.5461 365.42 11.8306 365.539L11.9707 365.594C12.217 365.696 12.476 365.793 12.752 365.891L13.0875 366.001L13.8221 366.23L14.2043 366.341C14.4973 366.421 14.803 366.502 15.1172 366.578L15.406 366.651C15.8306 366.752 16.2552 366.846 16.7223 366.939L17.0493 366.999C17.406 367.071 17.7712 367.139 18.1491 367.202L18.6501 367.283C18.9941 367.342 19.3508 367.393 19.7117 367.448L20.2255 367.521L21.5843 367.69L21.8518 367.724C22.4081 367.784 22.9728 367.843 23.5503 367.894L24.0514 367.937L25.3465 368.034L25.9622 368.072C26.3869 368.102 26.8115 368.123 27.2616 368.144L27.8476 368.17C28.4718 368.2 29.1215 368.221 29.7499 368.234C41.0238 368.471 50.2127 366.697 50.2637 364.261L50.1448 369.749C50.0938 372.18 40.9049 373.959 29.631 373.717C28.9898 373.717 28.3571 373.683 27.7287 373.657L27.1767 373.645L25.9028 373.573L25.2828 373.534C24.8582 373.5 24.4336 373.471 24.0089 373.432L23.5079 373.39C22.9304 373.339 22.3614 373.284 21.8094 373.22L21.5419 373.191C21.079 373.135 20.6247 373.08 20.1788 373.017L19.665 372.944L18.6034 372.783L18.1024 372.698C17.7244 372.635 17.3593 372.567 17.0026 372.499L16.6756 372.435C16.2213 372.346 15.7839 372.248 15.3635 372.151L15.0748 372.079C14.7605 371.998 14.4506 371.922 14.1576 371.841L13.7754 371.731L13.0408 371.501L12.7096 371.387C12.4336 371.293 12.1746 371.192 11.9283 371.094L11.7839 371.035C11.5036 370.916 11.2489 370.793 11.0111 370.67C10.9431 370.636 10.8879 370.597 10.8242 370.564L10.5058 370.381C10.4506 370.347 10.4081 370.309 10.3614 370.275C10.3147 370.241 10.2637 370.211 10.2213 370.177C10.0682 370.062 9.92602 369.933 9.79664 369.791V369.791C9.68382 369.663 9.58948 369.521 9.51638 369.367C9.51818 369.354 9.51818 369.341 9.51638 369.329C9.42562 369.2 9.36603 369.051 9.34229 368.896V368.896Z" fill="#F5B026"/>
<path d="M9.53244 363.741C9.52079 363.721 9.51085 363.7 9.50272 363.678C9.48105 363.602 9.46963 363.523 9.46875 363.444C9.46875 363.444 9.46875 363.444 9.46875 363.41C9.51971 360.97 18.7002 359.192 29.9741 359.43C37.1927 359.587 43.5282 360.533 47.129 361.836C49.146 362.562 50.3222 363.402 50.3053 364.276C50.3028 364.367 50.2856 364.458 50.2543 364.543C50.2543 364.569 50.2246 364.594 50.2118 364.624C50.1777 364.708 50.135 364.787 50.0844 364.862C50.0447 364.927 49.9992 364.988 49.9486 365.044C49.8758 365.13 49.7963 365.209 49.7108 365.282C49.6471 365.337 49.5791 365.397 49.5027 365.452C49.4263 365.507 49.2819 365.604 49.1545 365.681L48.8785 365.838C48.7341 365.91 48.5855 365.986 48.4242 366.059L48.0845 366.203C47.9104 366.271 47.7278 366.343 47.5324 366.411L47.1333 366.542C46.9252 366.61 46.7087 366.674 46.4879 366.738C46.3435 366.78 46.1906 366.818 46.0377 366.856C45.7999 366.92 45.5579 366.98 45.3031 367.039L44.7978 367.149C44.5303 367.204 44.2628 367.26 43.9825 367.311L43.4263 367.408C43.1375 367.459 42.8445 367.51 42.5388 367.552L41.9358 367.637C41.6216 367.68 41.3074 367.726 40.9804 367.765L40.3477 367.833L39.3116 367.943L38.6789 367.994C38.3053 368.024 37.9358 368.058 37.5494 368.083L36.938 368.117C36.5133 368.142 36.1184 368.168 35.698 368.185H35.1545L33.7745 368.231H33.473C32.2755 368.231 31.0441 368.231 29.7872 368.231C28.5303 368.231 27.214 368.147 25.9656 368.07H25.7957C25.2819 368.036 24.7808 367.998 24.284 367.956L23.8806 367.926C23.4178 367.888 22.9677 367.841 22.5176 367.794L22.042 367.748C21.6174 367.701 21.1927 367.646 20.7893 367.595L20.2925 367.531C19.8976 367.48 19.5155 367.421 19.1375 367.361L18.6365 367.285C18.267 367.226 17.9104 367.162 17.5579 367.098L17.0951 367.013C16.7511 366.946 16.4199 366.873 16.0887 366.801L15.6641 366.712L14.7384 366.483L14.3605 366.385C14.0675 366.305 13.7915 366.224 13.5112 366.139L13.1758 366.033C12.9167 365.952 12.6747 365.863 12.4369 365.774L12.1482 365.664C11.9231 365.575 11.7235 365.486 11.5155 365.392L11.2692 365.278C11.0823 365.184 10.9082 365.091 10.7469 364.993L10.5558 364.875C10.4177 364.785 10.2845 364.689 10.1566 364.586L10.008 364.454C9.90959 364.364 9.8187 364.266 9.73627 364.162C9.70221 364.117 9.67101 364.07 9.64285 364.021C9.59509 363.933 9.55803 363.839 9.53244 363.741V363.741Z" fill="#FFCD2E"/>
<path d="M14.5261 356.563C14.5261 356.542 14.5006 356.525 14.4964 356.504C14.4747 356.428 14.4633 356.349 14.4624 356.27C14.4624 356.27 14.4624 356.27 14.4624 356.237C14.5134 353.796 23.6938 352.018 34.9677 352.256C42.1864 352.408 48.5218 353.359 52.1227 354.662C54.1397 355.388 55.3159 356.228 55.2989 357.102C55.3 357.192 55.2841 357.281 55.2522 357.365C55.2382 357.395 55.2227 357.423 55.2055 357.45C55.1729 357.534 55.1316 357.613 55.0823 357.688C55.0399 357.747 54.9974 357.811 54.9465 357.87C54.87 357.954 54.7892 358.033 54.7044 358.108C54.6407 358.163 54.5728 358.218 54.4963 358.274C54.3846 358.358 54.2684 358.436 54.1482 358.507L53.8721 358.66C53.7278 358.736 53.5792 358.808 53.4178 358.885L53.0781 359.025C52.904 359.097 52.7214 359.169 52.5303 359.237L52.1057 359.369C51.9019 359.436 51.6811 359.5 51.4645 359.564L51.0101 359.683C50.7724 359.746 50.5303 359.806 50.2755 359.865L49.7702 359.971C49.507 360.031 49.2394 360.086 48.9549 360.137L48.4029 360.234L47.5112 360.379L46.9082 360.464C46.594 360.506 46.284 360.553 45.9571 360.591L45.3201 360.659C44.9804 360.697 44.6365 360.735 44.284 360.765L43.6556 360.82C43.2819 360.85 42.9082 360.884 42.5218 360.909L41.9104 360.943C41.4857 360.969 41.0951 360.994 40.6747 361.011H40.1269L38.7469 361.058H38.4454C37.248 361.083 36.0194 361.083 34.7596 361.058C33.456 361.028 32.1906 360.973 30.938 360.896H30.7681C30.2543 360.862 29.7533 360.824 29.2564 360.782L28.8318 360.752C28.369 360.714 27.9189 360.667 27.473 360.621C27.3116 360.621 27.1503 360.591 26.9932 360.57L25.7193 360.421L25.2225 360.357L24.0675 360.188L23.5707 360.111C23.197 360.052 22.8403 359.988 22.4879 359.92L22.0293 359.835C21.6811 359.772 21.3499 359.7 21.0229 359.627L20.5983 359.534C20.2756 359.462 19.9741 359.386 19.6726 359.309L19.2947 359.212C19.0017 359.131 18.7299 359.046 18.4454 358.965L18.11 358.859C17.8509 358.774 17.6089 358.69 17.3711 358.6L17.0824 358.49C16.8573 358.401 16.6577 358.312 16.4497 358.218L16.2034 358.104C16.0165 358.011 15.8467 357.917 15.6853 357.82L15.49 357.701C15.3519 357.612 15.2187 357.515 15.0909 357.412L14.9422 357.281C14.8438 357.191 14.7529 357.093 14.6705 356.988L14.5771 356.848C14.5497 356.755 14.5326 356.66 14.5261 356.563V356.563Z" fill="#FFCD2E"/>
<path d="M17.062 354.55L17.1767 349.066C17.1797 349.213 17.2114 349.357 17.2701 349.491C17.269 349.502 17.269 349.513 17.2701 349.525C17.343 349.68 17.4389 349.823 17.5546 349.949C17.6859 350.089 17.8278 350.218 17.9792 350.335L18.1193 350.433C18.2699 350.537 18.4258 350.634 18.5864 350.722L18.769 350.828C19.0068 350.955 19.2616 351.074 19.5461 351.197L19.6862 351.252C19.9325 351.354 20.1915 351.451 20.4675 351.549L20.7987 351.659L21.5376 351.889L21.9155 351.999C22.2128 352.08 22.5185 352.16 22.8327 352.237L23.1215 352.309C23.5461 352.406 23.9707 352.504 24.4336 352.593C24.5397 352.619 24.6544 352.636 24.7648 352.657L25.8603 352.86L26.3656 352.941L27.4272 353.102L27.941 353.179L29.2998 353.349L29.5673 353.378C30.1236 353.442 30.6883 353.497 31.2658 353.552L31.7669 353.59C32.1915 353.629 32.6161 353.663 33.0408 353.692L33.6607 353.731L34.9601 353.803L35.5461 353.828C36.1689 353.854 36.8016 353.875 37.4442 353.892C48.7223 354.129 57.9112 352.351 57.9622 349.919L57.8433 355.407C57.7923 357.839 48.6034 359.617 37.3295 359.375C36.6883 359.375 36.0556 359.341 35.4272 359.316L34.8454 359.286L33.5461 359.218L32.9261 359.175L31.6522 359.078L31.1512 359.035C30.5737 358.985 30.0047 358.929 29.4527 358.866L29.1809 358.832C28.7223 358.781 28.2679 358.721 27.8221 358.662L27.3423 358.607L26.2807 358.446L25.7796 358.361C25.4017 358.297 25.0365 358.229 24.6798 358.161L24.3529 358.098C23.8985 358.004 23.4612 357.911 23.0408 357.809L22.752 357.737C22.4336 357.66 22.1278 357.58 21.8348 357.499L21.4527 357.389C21.1979 357.317 20.9516 357.24 20.7181 357.16L20.3826 357.049C20.1066 356.952 19.8476 356.854 19.6055 356.752L19.4612 356.697C19.1809 356.578 18.9219 356.455 18.6883 356.332C18.6204 356.298 18.5652 356.26 18.5015 356.226C18.4378 356.192 18.2764 356.103 18.183 356.043L18.0344 355.937L17.8985 355.835C17.7456 355.721 17.6034 355.594 17.4739 355.454V355.454C17.3614 355.333 17.267 355.198 17.1936 355.05C17.1947 355.043 17.1947 355.036 17.1936 355.029V354.991C17.1168 354.856 17.0717 354.705 17.062 354.55V354.55Z" fill="#F5B026"/>
<path d="M17.2489 349.389C17.2373 349.369 17.2273 349.348 17.2192 349.326C17.1931 349.252 17.1816 349.174 17.1852 349.097C17.1852 349.097 17.1852 349.075 17.1852 349.063C17.2404 346.622 26.4166 344.844 37.6948 345.082C44.9134 345.235 51.2489 346.185 54.8497 347.488C56.8667 348.214 58.0429 349.05 58.0259 349.928C58.023 350.018 58.0058 350.107 57.975 350.192C57.975 350.221 57.941 350.247 57.9325 350.276C57.8984 350.36 57.8557 350.44 57.8051 350.514C57.764 350.578 57.7186 350.639 57.6693 350.697C57.5954 350.781 57.516 350.86 57.4315 350.934C57.3678 350.989 57.2956 351.045 57.2234 351.1C57.1117 351.184 56.9955 351.262 56.8752 351.333L56.595 351.486C56.4548 351.562 56.3062 351.635 56.1448 351.707L55.8051 351.851C55.631 351.923 55.4485 351.995 55.2531 352.063L54.854 352.195C54.6459 352.258 54.4294 352.326 54.2085 352.39C54.0642 352.432 53.9071 352.471 53.7542 352.509C53.5164 352.572 53.2744 352.632 53.0196 352.691L52.5185 352.797C52.251 352.857 51.9835 352.912 51.7032 352.963L51.147 353.061L50.2595 353.205L49.6565 353.29L48.7011 353.417L48.0684 353.485C47.7245 353.523 47.3848 353.561 47.0323 353.591L46.3996 353.646L45.2701 353.735L44.6544 353.769L43.4187 353.837H42.8752C42.4166 353.837 41.9623 353.871 41.4952 353.88H41.1894C39.992 353.901 38.7606 353.905 37.4994 353.88C36.2383 353.854 34.9517 353.795 33.6778 353.718H33.5079C32.9941 353.684 32.4931 353.646 31.992 353.604L31.5929 353.574L30.2298 353.442L29.7542 353.392L28.4803 353.243L28.026 353.192L26.8667 353.022L26.3699 352.946C26.0005 352.887 25.6438 352.823 25.2914 352.755L24.8285 352.67C24.4803 352.602 24.1491 352.534 23.8222 352.462L23.3975 352.369C23.0748 352.297 22.7691 352.22 22.4676 352.14L22.0939 352.042C21.8009 351.966 21.5249 351.881 21.2447 351.8C21.13 351.766 21.0154 351.732 20.9092 351.694C20.6502 351.609 20.4039 351.524 20.1704 351.435L19.8816 351.325C19.6566 351.236 19.457 351.146 19.2447 351.053L19.0026 350.939C18.8158 350.845 18.6417 350.752 18.4803 350.654L18.285 350.535C18.1406 350.438 18.0047 350.34 17.8859 350.243L17.7372 350.115C17.6412 350.024 17.5518 349.926 17.4697 349.822C17.4343 349.778 17.4017 349.731 17.3721 349.682C17.3189 349.59 17.2776 349.492 17.2489 349.389V349.389Z" fill="#FFCD2E"/>
<path d="M482.28 108.982L482.471 100.125C482.472 100.362 482.521 100.596 482.615 100.813V100.872C482.733 101.124 482.889 101.356 483.078 101.559V101.559C483.298 101.788 483.538 101.997 483.796 102.183C483.864 102.238 483.94 102.294 484.016 102.345C484.242 102.502 484.501 102.659 484.768 102.811C484.87 102.867 484.963 102.926 485.07 102.981C485.452 103.185 485.864 103.38 486.318 103.575L486.552 103.664C486.946 103.826 487.363 103.987 487.825 104.144L488.365 104.322C488.747 104.45 489.142 104.573 489.554 104.692L490.169 104.87C490.641 105.001 491.138 105.129 491.647 105.256L492.114 105.371C492.794 105.532 493.501 105.686 494.237 105.833L494.768 105.935C495.346 106.045 495.936 106.156 496.543 106.262L497.354 106.393C497.915 106.482 498.484 106.572 499.053 106.656L499.902 106.775C500.619 106.873 501.35 106.962 502.097 107.047L502.522 107.102C503.418 107.204 504.331 107.293 505.265 107.378L506.076 107.446C506.76 107.501 507.456 107.556 508.161 107.603L509.159 107.671C509.851 107.713 510.552 107.751 511.256 107.781L512.199 107.828C513.214 107.87 514.233 107.904 515.269 107.925C533.477 108.312 548.314 105.443 548.39 101.517L548.203 110.374C548.123 114.3 533.282 117.165 515.082 116.783C514.046 116.76 513.023 116.727 512.012 116.685L511.07 116.638C510.36 116.609 509.664 116.57 508.972 116.528L507.97 116.46C507.265 116.413 506.573 116.358 505.885 116.303L505.078 116.235C504.144 116.15 503.227 116.061 502.335 115.959L501.91 115.908C501.163 115.819 500.428 115.73 499.715 115.632L498.866 115.514C498.284 115.429 497.711 115.344 497.167 115.25L496.356 115.119C495.749 115.013 495.159 114.902 494.581 114.792C494.407 114.758 494.225 114.728 494.055 114.69C493.32 114.546 492.611 114.389 491.932 114.228L491.469 114.113C490.959 113.986 490.462 113.858 489.987 113.727L489.375 113.553C488.951 113.43 488.564 113.307 488.186 113.179L487.647 113.001C487.201 112.844 486.798 112.683 486.373 112.522L486.144 112.432C485.69 112.237 485.273 112.042 484.896 111.838C484.785 111.783 484.696 111.728 484.594 111.669C484.42 111.571 484.233 111.473 484.076 111.372C483.991 111.316 483.923 111.261 483.842 111.202L483.617 111.04C483.363 110.856 483.126 110.648 482.908 110.421V110.421C482.727 110.227 482.576 110.009 482.458 109.772V109.733C482.458 109.733 482.458 109.695 482.437 109.674C482.335 109.457 482.282 109.221 482.28 108.982V108.982Z" fill="#F5B026"/>
<path d="M482.581 100.657C482.581 100.623 482.543 100.589 482.535 100.556C482.497 100.433 482.479 100.306 482.48 100.178C482.48 100.178 482.48 100.144 482.48 100.127C482.56 96.1842 497.384 93.3111 515.601 93.7015C527.278 93.9477 537.49 95.4797 543.308 97.5805C546.564 98.7561 548.463 100.127 548.433 101.523C548.439 101.72 548.387 101.915 548.284 102.083C548.229 102.218 548.161 102.348 548.08 102.47C548.014 102.572 547.94 102.67 547.86 102.762C547.742 102.899 547.614 103.027 547.477 103.144C547.371 103.238 547.261 103.327 547.138 103.42C547.015 103.514 546.781 103.666 546.577 103.789C546.373 103.912 546.284 103.959 546.127 104.04C545.898 104.163 545.66 104.282 545.397 104.401L544.849 104.63C544.564 104.744 544.271 104.859 543.957 104.969C543.753 105.041 543.533 105.114 543.312 105.181C542.981 105.288 542.637 105.398 542.271 105.5L541.541 105.691C541.155 105.793 540.764 105.89 540.352 105.984L539.541 106.158C539.116 106.251 538.692 106.34 538.225 106.425C537.936 106.48 537.63 106.531 537.329 106.582C536.857 106.663 536.386 106.743 535.894 106.815L534.921 106.951C534.416 107.023 533.906 107.091 533.38 107.155L532.352 107.269C531.8 107.329 531.252 107.388 530.679 107.439C530.348 107.473 530.004 107.499 529.664 107.524C529.061 107.575 528.458 107.626 527.838 107.668L526.845 107.724C526.186 107.762 525.528 107.804 524.849 107.834L523.97 107.864C523.231 107.893 522.496 107.919 521.741 107.936H521.252C519.32 107.97 517.333 107.974 515.308 107.936C513.184 107.893 511.159 107.8 509.167 107.677H508.896C508.046 107.622 507.257 107.558 506.45 107.494L505.8 107.443C505.053 107.38 504.327 107.303 503.605 107.231L502.832 107.151C502.144 107.074 501.473 106.994 500.811 106.909L500.008 106.807C499.367 106.722 498.734 106.624 498.14 106.531L497.337 106.408C496.739 106.31 496.161 106.208 495.592 106.102L494.845 105.967C494.284 105.856 493.749 105.742 493.223 105.627L492.539 105.478C492.021 105.36 491.528 105.237 491.044 105.109C490.84 105.058 490.62 105.007 490.437 104.952C489.966 104.825 489.52 104.693 489.083 104.558C488.904 104.502 488.717 104.447 488.543 104.388C488.119 104.252 487.732 104.112 487.35 103.963L486.883 103.785C486.518 103.641 486.182 103.492 485.86 103.361L485.465 103.178C485.162 103.025 484.879 102.873 484.615 102.72L484.301 102.525C484.078 102.379 483.862 102.222 483.656 102.054C483.571 101.986 483.49 101.914 483.418 101.846C483.264 101.7 483.122 101.543 482.993 101.375C482.938 101.301 482.887 101.225 482.84 101.145C482.733 100.995 482.646 100.831 482.581 100.657Z" fill="#FFCD2E"/>
<path d="M527.223 96.3551C526.187 96.3324 525.163 96.2999 524.153 96.2575L523.21 96.2108C522.501 96.1768 521.8 96.1429 521.112 96.0962C520.777 96.0962 520.441 96.058 520.11 96.0325C519.405 95.9859 518.713 95.9307 518.025 95.8713L517.218 95.8076C516.284 95.7227 515.367 95.6294 514.475 95.5317L514.051 95.4766C513.303 95.3917 512.569 95.3026 511.851 95.205L511.002 95.0861C510.42 95.0013 509.847 94.9121 509.303 94.823L508.492 94.6914C507.885 94.5853 507.295 94.475 506.717 94.3647L506.191 94.2628C505.455 94.1157 504.747 93.9615 504.068 93.8002L503.605 93.6856C503.095 93.5583 502.598 93.431 502.123 93.2994L501.507 93.1212C501.097 93.0024 500.702 92.8793 500.322 92.752L499.783 92.5737C499.358 92.4167 498.934 92.2554 498.509 92.0942L498.28 92.005C497.826 91.8098 497.431 91.6146 497.032 91.4109C496.921 91.3557 496.832 91.2963 496.73 91.2411C496.458 91.0883 496.204 90.9313 495.978 90.7743L495.753 90.613C495.497 90.4268 495.259 90.218 495.04 89.9891V89.9891C494.85 89.7864 494.693 89.5543 494.577 89.3016V89.2422C494.48 89.0259 494.43 88.7917 494.429 88.5547L494.242 97.4118C494.243 97.6484 494.292 97.8824 494.386 98.0993V98.1588C494.388 98.17 494.388 98.1815 494.386 98.1927C494.506 98.4311 494.659 98.6511 494.84 98.8463V98.8463C495.058 99.0736 495.295 99.281 495.55 99.4659C495.622 99.5211 495.694 99.5762 495.775 99.6272C495.855 99.6781 495.923 99.7418 496.008 99.7969C496.165 99.8988 496.352 99.9964 496.526 100.094C496.624 100.149 496.717 100.209 496.823 100.264C497.206 100.467 497.618 100.663 498.072 100.858L498.305 100.947C498.7 101.108 499.116 101.27 499.579 101.427L500.119 101.605C500.501 101.732 500.896 101.855 501.308 101.974L501.923 102.152C502.399 102.284 502.891 102.411 503.401 102.539L503.868 102.653C504.547 102.814 505.255 102.969 505.991 103.116C506.165 103.154 506.348 103.184 506.522 103.218C507.099 103.328 507.69 103.438 508.297 103.544L509.108 103.676C509.668 103.765 510.237 103.854 510.806 103.939L511.656 104.058C512.373 104.155 513.104 104.245 513.851 104.334L514.276 104.385C515.172 104.486 516.089 104.576 517.019 104.66L517.83 104.728C518.518 104.784 519.21 104.839 519.915 104.885L520.913 104.953C521.605 104.996 522.305 105.034 523.01 105.064L523.957 105.11C524.968 105.153 525.987 105.187 527.023 105.208C541.885 105.526 554.484 103.672 558.666 100.845V92.1026C554.318 94.8697 541.868 96.6649 527.223 96.3551Z" fill="#F5B026"/>
<path d="M555.227 85.9981C549.41 83.8761 539.202 82.3653 527.525 82.1149C509.321 81.7287 494.497 84.6018 494.403 88.5445C494.403 88.5445 494.403 88.5784 494.403 88.5954C494.401 88.7231 494.419 88.8505 494.454 88.9731C494.454 89.0071 494.493 89.041 494.505 89.075C494.561 89.2383 494.635 89.3949 494.726 89.5418C494.777 89.6182 494.824 89.6946 494.883 89.771C495.012 89.9391 495.154 90.0966 495.308 90.242C495.384 90.31 495.465 90.3821 495.55 90.45C495.754 90.6194 495.968 90.7767 496.191 90.9211L496.51 91.1163C496.769 91.2691 497.045 91.4219 497.359 91.5704L497.75 91.7571C498.072 91.9057 498.412 92.0542 498.773 92.1815L499.244 92.3598C499.622 92.4998 500.017 92.6399 500.437 92.7842C500.612 92.8436 500.794 92.8988 500.977 92.9539C501.401 93.0897 501.856 93.2213 502.327 93.3486L502.934 93.5057C503.423 93.633 503.915 93.756 504.433 93.8749L505.113 94.0234C505.643 94.138 506.178 94.2526 506.739 94.3629L507.486 94.4987C508.055 94.6048 508.629 94.7067 509.227 94.8043L510.03 94.9274C510.646 95.0207 511.261 95.1141 511.902 95.2032L512.701 95.3008C513.367 95.3857 514.034 95.4706 514.726 95.547C514.977 95.5767 515.24 95.5979 515.495 95.6234C516.221 95.6998 516.947 95.7762 517.694 95.8398C517.907 95.8398 518.119 95.8695 518.34 95.8908C519.147 95.9544 519.958 96.0181 520.786 96.0732H521.062C523.043 96.1977 525.09 96.284 527.202 96.3321C529.236 96.3746 531.219 96.3703 533.147 96.3321H533.631C534.391 96.3321 535.125 96.2854 535.864 96.26L536.743 96.2303C537.423 96.2006 538.081 96.1581 538.739 96.1199L539.728 96.0648C540.353 96.0223 540.951 95.9714 541.554 95.9205C541.894 95.895 542.242 95.8695 542.573 95.8356C543.147 95.7847 543.694 95.7252 544.246 95.6616L545.274 95.5512C545.801 95.4876 546.306 95.4154 546.815 95.3475L547.784 95.2117C548.28 95.1396 548.752 95.0589 549.223 94.9783L550.119 94.8213C550.573 94.7364 551.006 94.6473 551.435 94.5539L552.246 94.3799C552.671 94.2865 553.049 94.1889 553.431 94.0871L554.166 93.8961C554.531 93.79 554.871 93.6839 555.206 93.5778L555.852 93.3656C556.166 93.2553 556.459 93.1407 556.739 93.0261C556.93 92.9497 557.117 92.8733 557.291 92.7927C557.55 92.6781 557.792 92.5592 558.021 92.4362C558.178 92.3555 558.327 92.2707 558.446 92.1858C558.514 92.1476 558.565 92.1051 558.624 92.067V87.649C557.561 86.9664 556.421 86.4122 555.227 85.9981V85.9981Z" fill="#FFCD2E"/>
<path d="M479.894 85.8184L480.085 76.957C480.081 77.1955 480.131 77.4318 480.229 77.6488V77.7082C480.349 77.9588 480.505 78.1905 480.692 78.3957V78.3957C480.911 78.6246 481.15 78.8334 481.406 79.0196L481.631 79.1809C481.856 79.3379 482.111 79.4949 482.382 79.6477C482.484 79.7029 482.578 79.7623 482.684 79.8175C483.066 80.0212 483.478 80.2164 483.932 80.4116L484.162 80.5007C484.556 80.662 484.977 80.8233 485.435 80.9761C485.61 81.0397 485.792 81.0991 485.975 81.1585C486.357 81.2859 486.752 81.4089 487.164 81.5278L487.779 81.706C488.251 81.8376 488.748 81.9649 489.257 82.0922L489.724 82.2068C490.399 82.3681 491.108 82.5209 491.847 82.6694L492.378 82.7712C492.956 82.8816 493.546 82.9919 494.153 83.0938L494.964 83.2296C495.52 83.3187 496.094 83.4078 496.663 83.4927L497.512 83.6073C498.225 83.7049 498.96 83.7983 499.707 83.8832L500.132 83.9383C501.024 84.0359 501.941 84.1293 502.875 84.2142L503.682 84.2779C504.37 84.3373 505.066 84.3924 505.771 84.4391C506.102 84.4603 506.433 84.4858 506.769 84.5028C507.461 84.5495 508.162 84.5834 508.866 84.6174L509.809 84.6641C510.82 84.7065 511.843 84.739 512.879 84.7617C531.083 85.1479 545.924 82.2789 546 78.349L545.813 87.2104C545.728 91.1361 530.892 94.0007 512.692 93.6188C511.656 93.599 510.633 93.5665 509.622 93.5212L508.675 93.4745C507.97 93.4405 507.274 93.4066 506.582 93.3599C506.246 93.3599 505.911 93.3217 505.58 93.2963C504.875 93.2496 504.183 93.1944 503.495 93.135L502.688 93.0713C501.754 92.9864 500.837 92.8973 499.945 92.7955L499.52 92.7445C498.773 92.6554 498.038 92.5663 497.321 92.4687L496.471 92.3499C495.89 92.265 495.316 92.1758 494.773 92.0867L493.962 91.9509C493.355 91.8491 492.764 91.7387 492.187 91.6284L491.66 91.5265C490.924 91.3766 490.217 91.2224 489.537 91.0639L489.074 90.9493C488.565 90.822 488.068 90.6947 487.593 90.5631L486.977 90.3849C486.566 90.2661 486.171 90.143 485.792 90.0157L485.253 89.8374C484.828 89.6804 484.404 89.5191 483.979 89.3579L483.75 89.2687C483.295 89.0735 482.9 88.8783 482.501 88.6746C482.391 88.6194 482.302 88.56 482.2 88.5048C482.026 88.4072 481.839 88.3096 481.682 88.2077C481.597 88.1526 481.529 88.0932 481.448 88.038L481.223 87.8767C480.969 87.6918 480.731 87.4845 480.514 87.2571C480.332 87.063 480.18 86.8427 480.064 86.6035V86.5696C480.062 86.5498 480.062 86.5299 480.064 86.5102C479.959 86.2942 479.901 86.0584 479.894 85.8184Z" fill="#F5B026"/>
<path d="M480.195 77.4949C480.178 77.4604 480.162 77.4249 480.148 77.3888C480.111 77.2679 480.093 77.1419 480.093 77.0154C480.093 77.0154 480.093 76.9814 480.093 76.9602C480.174 73.0175 494.998 70.1486 513.214 70.5348C524.892 70.7852 535.104 72.313 540.921 74.4181C544.178 75.5936 546.076 76.9644 546.046 78.3607C546.044 78.5057 546.017 78.6492 545.966 78.7851C545.966 78.8275 545.915 78.87 545.898 78.9166C545.842 79.0499 545.773 79.1777 545.694 79.2986C545.627 79.4023 545.553 79.5016 545.473 79.5957C545.355 79.7334 545.226 79.8612 545.087 79.9776C544.985 80.071 544.87 80.1601 544.751 80.2492C544.633 80.3384 544.395 80.4996 544.191 80.6227C543.987 80.7458 543.898 80.7925 543.741 80.8731C543.511 80.9962 543.269 81.115 543.01 81.2296C542.836 81.3102 542.649 81.3866 542.463 81.463C542.178 81.5776 541.885 81.6922 541.571 81.8025L540.926 82.0147C540.59 82.1208 540.25 82.2269 539.885 82.3288C539.647 82.3967 539.401 82.4603 539.155 82.524C538.768 82.6259 538.378 82.7235 537.966 82.8168L537.155 82.9908C536.73 83.0842 536.306 83.1733 535.838 83.2582C535.545 83.3134 535.244 83.3601 534.943 83.411C534.471 83.4959 534 83.5723 533.507 83.6487L532.535 83.7845C532.025 83.8524 531.52 83.9245 530.993 83.9882L529.966 84.0985C529.414 84.1622 528.866 84.2216 528.293 84.2725L527.278 84.3574C526.671 84.4083 526.072 84.4593 525.448 84.5017L524.458 84.5569C523.8 84.5951 523.142 84.6375 522.463 84.6672L521.584 84.6969C520.845 84.7224 520.11 84.7521 519.354 84.7691H518.866C516.934 84.803 514.947 84.8073 512.921 84.7691C510.821 84.721 508.774 84.6347 506.781 84.5102H506.509C505.66 84.455 504.866 84.3913 504.064 84.3277L503.414 84.2768C502.667 84.2089 501.94 84.1367 501.214 84.0603C500.96 84.0349 500.696 84.0136 500.446 83.9839C499.754 83.9075 499.087 83.8227 498.42 83.7378L497.622 83.6402C496.981 83.551 496.348 83.4577 495.754 83.3643L494.951 83.2412C494.348 83.1436 493.775 83.0418 493.206 82.9357L492.458 82.7999C491.898 82.6895 491.363 82.5749 490.836 82.4604L490.153 82.3118C489.635 82.193 489.142 82.0699 488.658 81.9426C488.454 81.8917 488.233 81.8407 488.051 81.7856C487.575 81.6582 487.134 81.5224 486.696 81.3909C486.514 81.3357 486.331 81.2805 486.157 81.2211C485.732 81.0853 485.346 80.9453 484.964 80.7967L484.497 80.6185C484.131 80.4742 483.796 80.3256 483.473 80.1941C483.337 80.1347 483.206 80.071 483.078 80.0073C482.776 79.8602 482.492 79.7074 482.229 79.549L481.915 79.358C481.691 79.2136 481.475 79.0563 481.27 78.8869C481.185 78.819 481.104 78.7469 481.027 78.6747C480.874 78.5306 480.732 78.3745 480.603 78.2079C480.547 78.1345 480.496 78.058 480.45 77.9787C480.345 77.8291 480.259 77.6665 480.195 77.4949V77.4949Z" fill="#FFCD2E"/>
<path d="M479.894 74.2341L480.081 65.377C480.081 65.615 480.13 65.8504 480.225 66.0687V66.1281C480.345 66.3797 480.503 66.6115 480.692 66.8157V66.8157C480.911 67.0446 481.15 67.2533 481.406 67.4395C481.474 67.4947 481.55 67.5456 481.627 67.6008C481.856 67.7578 482.111 67.9106 482.382 68.0676C482.48 68.1228 482.573 68.1822 482.68 68.2374C483.062 68.4368 483.474 68.6363 483.928 68.8315L484.162 68.9207C484.556 69.0819 484.973 69.2432 485.435 69.396C485.61 69.4596 485.796 69.5191 485.975 69.5785C486.357 69.7015 486.752 69.8289 487.164 69.9477L487.779 70.1259C488.251 70.2575 488.748 70.3848 489.257 70.5079L489.724 70.6267C490.404 70.788 491.111 70.9422 491.847 71.0893L492.378 71.1912C492.956 71.3015 493.546 71.4119 494.153 71.5137L494.964 71.6495C495.525 71.7386 496.094 71.8278 496.663 71.9126L497.512 72.0272C498.229 72.1248 498.96 72.2182 499.707 72.3031L500.132 72.3583C501.028 72.4559 501.945 72.5492 502.875 72.6341L503.686 72.6978C504.37 72.7572 505.066 72.8124 505.771 72.859L506.769 72.9227C507.461 72.9651 508.162 73.0033 508.866 73.0373L509.813 73.084C510.824 73.1264 511.843 73.1604 512.879 73.1816C531.087 73.5678 545.924 70.6989 546 66.769L545.809 75.6261C545.728 79.556 530.892 82.4164 512.688 82.0387C511.652 82.0189 510.629 81.9864 509.618 81.9411L508.705 81.8987C508 81.8647 507.3 81.8308 506.607 81.7841C506.272 81.7841 505.941 81.7416 505.609 81.7204C504.905 81.6737 504.208 81.6186 503.52 81.5591L502.714 81.4955C501.779 81.4106 500.862 81.3172 499.97 81.2196L499.546 81.1645C498.798 81.0796 498.064 80.9862 497.35 80.8929L496.501 80.774C495.919 80.6891 495.346 80.6 494.803 80.5109L493.992 80.3751C493.38 80.2732 492.794 80.1629 492.217 80.0525L491.686 79.9507C490.951 79.8022 490.242 79.6494 489.563 79.4881L489.096 79.3735C488.586 79.2462 488.089 79.1189 487.618 78.9873L487.002 78.8091C486.578 78.6902 486.195 78.5672 485.813 78.4398L485.274 78.2616C484.849 78.1046 484.425 77.9433 484 77.782L483.771 77.6929C483.317 77.4977 482.922 77.3025 482.522 77.0988C482.416 77.0436 482.323 76.9842 482.221 76.929C482.047 76.8271 481.86 76.7295 481.707 76.6319C481.554 76.5343 481.55 76.5173 481.469 76.4622L481.244 76.3009C480.99 76.116 480.753 75.9086 480.535 75.6813C480.356 75.485 480.205 75.2651 480.085 75.0277V74.9938V74.9343C479.969 74.7185 479.904 74.479 479.894 74.2341V74.2341Z" fill="#F5B026"/>
<path d="M480.19 65.9073C480.19 65.8733 480.152 65.8394 480.144 65.8054C480.106 65.6847 480.088 65.5584 480.093 65.4319C480.09 65.4136 480.09 65.3951 480.093 65.3768C480.178 61.4341 494.997 58.5864 513.214 58.9514C524.887 59.2018 535.099 60.7296 540.916 62.8346C544.173 64.0102 546.071 65.3598 546.042 66.773C546.038 66.9176 546.012 67.0607 545.965 67.1974C545.965 67.2399 545.91 67.2823 545.893 67.329C545.837 67.4622 545.768 67.5901 545.689 67.7109C545.623 67.8157 545.55 67.915 545.468 68.008C545.352 68.1457 545.224 68.2735 545.086 68.39C544.98 68.4833 544.87 68.5725 544.746 68.6616C544.623 68.7507 544.39 68.912 544.186 69.0351C544.046 69.1199 543.893 69.2048 543.736 69.2854C543.506 69.4085 543.269 69.5274 543.005 69.6419C542.831 69.7226 542.644 69.799 542.458 69.8754C542.173 69.9899 541.88 70.1045 541.566 70.2149C541.362 70.287 541.141 70.3549 540.925 70.4271C540.589 70.5332 540.245 70.6393 539.88 70.7411C539.647 70.809 539.396 70.8727 539.15 70.9363C538.763 71.0382 538.377 71.1358 537.961 71.2292L537.15 71.4032C536.725 71.4923 536.301 71.5857 535.833 71.6705L534.938 71.8233C534.466 71.904 533.995 71.9846 533.502 72.061L532.53 72.1968C532.025 72.2647 531.519 72.3368 530.988 72.4005L529.965 72.5109C529.413 72.5745 528.861 72.6339 528.267 72.6849L527.252 72.7697C526.649 72.8207 526.046 72.8716 525.426 72.914L524.436 72.9692C523.774 73.0074 523.116 73.0498 522.436 73.0795L521.557 73.1092C520.823 73.1347 520.084 73.1644 519.328 73.1814H518.844C516.908 73.2154 514.925 73.2196 512.899 73.1814C510.874 73.1432 508.751 73.0456 506.763 72.9225H506.487C505.638 72.8716 504.848 72.8079 504.042 72.74L503.392 72.6933C502.645 72.6254 501.918 72.5533 501.197 72.4769C500.942 72.4514 500.679 72.4302 500.424 72.4005C499.736 72.3241 499.069 72.2392 498.403 72.1544L497.6 72.0567C496.959 71.9676 496.326 71.8743 495.732 71.7809L494.929 71.6578C494.33 71.5602 493.757 71.4583 493.184 71.3523L492.441 71.2164C491.876 71.1061 491.345 70.9915 490.814 70.8769L490.131 70.7284C489.613 70.6096 489.12 70.4865 488.636 70.3592C488.432 70.3082 488.212 70.2573 488.029 70.2021C487.558 70.0748 487.112 69.939 486.674 69.8075C486.496 69.7523 486.309 69.6971 486.135 69.6377C485.71 69.5019 485.324 69.3618 484.942 69.2133L484.475 69.0351C484.11 68.8908 483.774 68.7422 483.451 68.6107C483.32 68.547 483.184 68.4876 483.061 68.4239C482.755 68.2754 482.475 68.1226 482.212 67.9656C482.105 67.9019 481.999 67.8383 481.897 67.7704C481.675 67.6274 481.461 67.4715 481.256 67.3035C481.172 67.2372 481.091 67.1664 481.014 67.0913C480.859 66.9481 480.717 66.7919 480.589 66.6245C480.533 66.5481 480.482 66.4717 480.437 66.3953C480.333 66.2442 480.25 66.0801 480.19 65.9073V65.9073Z" fill="#FFCD2E"/>
<path d="M68.3394 405.712L68.4583 400.229C68.4577 400.375 68.4881 400.519 68.5474 400.653V400.687C68.6203 400.843 68.7178 400.986 68.8362 401.111V401.111C68.9675 401.251 69.1094 401.38 69.2608 401.497L69.4009 401.595C69.5515 401.699 69.7074 401.796 69.868 401.884C69.9283 401.922 69.9907 401.958 70.0549 401.99C70.3059 402.126 70.5638 402.249 70.8277 402.359C70.8701 402.359 70.9253 402.393 70.9678 402.414C71.2141 402.516 71.4731 402.614 71.7491 402.711L72.0846 402.822L72.8192 403.051L73.2013 403.161C73.4943 403.242 73.8001 403.322 74.1143 403.399L74.403 403.471C74.8277 403.568 75.2523 403.666 75.7194 403.759L76.0464 403.819C76.403 403.891 76.7682 403.955 77.1461 404.023L77.6472 404.103L78.7088 404.265L79.2226 404.341L80.5814 404.511L80.8489 404.54C81.4052 404.604 81.9699 404.659 82.5474 404.714L83.0485 404.753C83.4731 404.791 83.8977 404.825 84.3224 404.854L84.9381 404.893L86.2374 404.965L86.8234 404.99C87.4476 405.016 88.0973 405.041 88.7258 405.054C99.9996 405.292 109.189 403.513 109.24 401.082L109.121 406.569C109.07 409.001 99.8807 410.779 88.6069 410.537C87.9657 410.537 87.333 410.503 86.7045 410.478L86.1228 410.448L84.8234 410.38L84.2035 410.338L82.9296 410.24L82.4285 410.198C81.851 410.147 81.282 410.091 80.73 410.028L80.4625 409.994C79.9996 409.943 79.5453 409.883 79.0994 409.824L78.5856 409.752L77.5241 409.591L77.023 409.506C76.6451 409.442 76.2799 409.374 75.9232 409.306L75.5962 409.243C75.1419 409.149 74.7045 409.056 74.2842 408.958L73.9954 408.882C73.6769 408.806 73.3712 408.729 73.0782 408.644L72.696 408.538C72.4413 408.462 72.1992 408.385 71.9614 408.305L71.6302 408.194C71.3542 408.097 71.0909 407.999 70.8489 407.902L70.7045 407.842C70.4243 407.723 70.1695 407.6 69.9317 407.477C69.8638 407.443 69.8086 407.405 69.7449 407.371L69.4264 407.189C69.3712 407.155 69.3287 407.116 69.282 407.082L69.1419 406.981C68.9889 406.867 68.8468 406.739 68.7173 406.599V406.599C68.6061 406.478 68.5118 406.342 68.437 406.196C68.4381 406.188 68.4381 406.181 68.437 406.174C68.4388 406.162 68.4388 406.149 68.437 406.136C68.3744 406.003 68.3411 405.859 68.3394 405.712V405.712Z" fill="#F5B026"/>
<path d="M68.5261 400.575C68.5144 400.555 68.5045 400.533 68.4964 400.511C68.4746 400.437 68.4632 400.36 68.4624 400.282C68.4624 400.282 68.4624 400.261 68.4624 400.248C68.5134 397.808 77.6896 396.03 88.9677 396.267C96.1864 396.42 102.522 397.371 106.123 398.674C108.14 399.399 109.316 400.235 109.299 401.114C109.296 401.204 109.279 401.293 109.248 401.377C109.235 401.406 109.221 401.435 109.205 401.462C109.171 401.545 109.129 401.625 109.078 401.7C109.038 401.764 108.993 401.825 108.942 401.882C108.868 401.967 108.789 402.046 108.704 402.12C108.641 402.175 108.573 402.23 108.496 402.285C108.385 402.369 108.268 402.447 108.148 402.519L107.872 402.672C107.728 402.748 107.579 402.82 107.418 402.892C107.256 402.964 107.197 402.99 107.078 403.036C106.959 403.083 106.721 403.181 106.526 403.249L106.127 403.38C105.919 403.444 105.702 403.512 105.481 403.575C105.337 403.618 105.184 403.656 105.031 403.694C104.794 403.758 104.552 403.817 104.297 403.877L103.791 403.983C103.524 404.042 103.256 404.097 102.976 404.148L102.42 404.246L101.532 404.39L100.929 404.475L99.9741 404.603L99.3414 404.67C98.9974 404.709 98.6577 404.747 98.3053 404.777L97.6726 404.832L96.5431 404.921L95.9316 404.955L94.6917 405.023H94.1482L92.7681 405.069H92.4666C91.2692 405.091 90.0378 405.095 88.7809 405.069C87.524 405.044 86.2076 404.984 84.9592 404.908H84.7894C84.2756 404.874 83.7745 404.836 83.2734 404.794L82.8743 404.764L81.5112 404.632L81.0356 404.581L79.7618 404.433L79.2649 404.369L78.1057 404.199L77.6089 404.123C77.2395 404.064 76.8828 404 76.5303 403.932L76.0675 403.847C75.7193 403.783 75.3923 403.711 75.0611 403.639L74.6365 403.546C74.3138 403.474 74.008 403.397 73.7108 403.317L73.3329 403.223C73.0399 403.143 72.7639 403.058 72.4836 402.977L72.1482 402.871C71.8892 402.786 71.6471 402.701 71.4093 402.612L71.1206 402.502C70.8955 402.413 70.6959 402.324 70.4879 402.23L70.2416 402.116C70.0548 402.022 69.8807 401.929 69.7193 401.831L69.5282 401.712C69.3891 401.623 69.2558 401.526 69.1291 401.42L68.9762 401.292C68.8802 401.201 68.7908 401.103 68.7087 400.999L68.611 400.859C68.5734 400.768 68.545 400.672 68.5261 400.575V400.575Z" fill="#FFCD2E"/>
<path d="M113.516 391.498C109.915 390.195 103.588 389.244 96.357 389.092C85.0831 388.854 75.9069 390.628 75.8517 393.072C75.8517 393.072 75.8517 393.072 75.8517 393.106C75.8481 393.184 75.8596 393.262 75.8857 393.336C75.8938 393.358 75.9038 393.379 75.9154 393.399C75.9481 393.502 75.9938 393.601 76.0513 393.692C76.081 393.741 76.1136 393.787 76.149 393.832C76.2301 393.936 76.3195 394.032 76.4165 394.121C76.4632 394.167 76.5141 394.21 76.5651 394.252C76.684 394.35 76.8199 394.448 76.9642 394.545L77.1596 394.664C77.3209 394.762 77.495 394.855 77.6819 394.948L77.9239 395.063C78.1235 395.156 78.3485 395.245 78.5608 395.334L78.8496 395.445C79.0831 395.534 79.3294 395.619 79.5884 395.704L79.9239 395.81C80.1914 395.89 80.4674 395.975 80.7732 396.052L81.1468 396.149C81.4483 396.23 81.754 396.306 82.0768 396.379L82.5014 396.472C82.8284 396.544 83.1596 396.612 83.5078 396.68L83.9706 396.765C84.3231 396.833 84.6797 396.896 85.0492 396.956L85.546 397.032L86.7052 397.202L87.202 397.261C87.6267 397.316 88.0258 397.367 88.4547 397.414L88.9303 397.465L90.2933 397.597L90.6925 397.626C91.1935 397.669 91.6946 397.707 92.2084 397.741H92.3782C93.6097 397.817 94.8793 397.872 96.1787 397.902C97.478 397.932 98.6712 397.902 99.8687 397.902H100.17C100.637 397.902 101.092 397.877 101.55 397.86H102.094L103.329 397.792C103.533 397.792 103.754 397.792 103.945 397.754L105.075 397.669L105.707 397.613C106.06 397.584 106.399 397.546 106.743 397.507L107.376 397.439L108.332 397.312L108.935 397.227L109.822 397.083L110.378 396.985C110.658 396.934 110.926 396.875 111.194 396.82L111.695 396.714C111.954 396.654 112.191 396.595 112.429 396.531L112.884 396.412C113.109 396.349 113.308 396.281 113.529 396.217L113.928 396.086C114.123 396.014 114.306 395.946 114.48 395.873L114.82 395.729C114.981 395.657 115.13 395.585 115.27 395.508L115.55 395.356L115.661 395.279V392.529C114.99 392.1 114.27 391.754 113.516 391.498V391.498Z" fill="#FFCD2E"/>
<path d="M66.8623 391.386L66.9769 385.902C66.9794 386.049 67.0112 386.193 67.0704 386.327V386.365C67.1432 386.52 67.2392 386.663 67.3549 386.789V386.789C67.485 386.931 67.627 387.062 67.7795 387.18L67.9196 387.277C68.0702 387.382 68.2261 387.478 68.3867 387.566L68.5693 387.672C68.8071 387.795 69.0619 387.918 69.3464 388.037L69.4865 388.096C69.7328 388.194 69.9918 388.296 70.2678 388.389L70.599 388.504L71.3379 388.733L71.7158 388.843L72.633 389.081L72.9217 389.153C73.3464 389.251 73.771 389.348 74.2381 389.438L74.5651 389.501C74.9217 389.569 75.2869 389.637 75.6606 389.701L76.1659 389.786L77.2275 389.947L77.7413 390.019C78.1659 390.083 78.6372 390.138 79.1001 390.193L79.3676 390.223C79.9239 390.286 80.4886 390.342 81.0661 390.392L81.5672 390.435C81.9918 390.473 82.4164 390.503 82.8411 390.537L83.461 390.575L84.7604 390.647L85.3464 390.673C85.9706 390.698 86.6203 390.719 87.2445 390.732C98.5226 390.974 107.712 389.196 107.762 386.764L107.644 392.251C107.593 394.683 98.4037 396.457 87.1298 396.219C86.4886 396.219 85.8559 396.185 85.2275 396.16L84.6457 396.13C84.2211 396.13 83.7752 396.088 83.3464 396.058C83.1383 396.058 82.9217 396.033 82.7264 396.02L81.4525 395.922L80.9515 395.88C80.374 395.829 79.805 395.77 79.253 395.71L78.9854 395.676L77.6224 395.506L77.1086 395.434C76.7476 395.379 76.3952 395.328 76.047 395.269L75.546 395.188C75.168 395.124 74.8029 395.057 74.4462 394.984L74.1192 394.925C73.6648 394.832 73.2275 394.738 72.8071 394.636L72.5183 394.564C72.1999 394.488 71.8941 394.407 71.6012 394.327L71.219 394.216C70.9642 394.144 70.7222 394.068 70.4844 393.987L70.1489 393.877C69.8729 393.779 69.6139 393.682 69.3719 393.58L69.2275 393.525C68.9472 393.406 68.6882 393.283 68.4547 393.16L68.2678 393.053C68.1617 392.99 68.0428 392.93 67.9494 392.867L67.8007 392.765L67.6649 392.663C67.5118 392.548 67.3696 392.418 67.2402 392.277V392.277C67.1285 392.148 67.0342 392.006 66.96 391.852V391.827V391.793C66.8996 391.665 66.8664 391.527 66.8623 391.386V391.386Z" fill="#F5B026"/>
<path d="M67.0491 386.229C67.0375 386.209 67.0275 386.188 67.0194 386.166C66.9957 386.092 66.9842 386.014 66.9854 385.937C66.9854 385.937 66.9854 385.911 66.9854 385.903C67.0406 383.458 76.2169 381.684 87.495 381.922C94.7137 382.075 101.049 383.021 104.65 384.328C106.667 385.054 107.843 385.89 107.826 386.764C107.824 386.855 107.806 386.946 107.775 387.031C107.775 387.061 107.741 387.087 107.733 387.112C107.7 387.196 107.657 387.276 107.605 387.35C107.564 387.415 107.519 387.477 107.469 387.536C107.397 387.621 107.317 387.699 107.232 387.77C107.168 387.829 107.096 387.884 107.024 387.94C106.913 388.024 106.797 388.1 106.675 388.169C106.586 388.224 106.493 388.275 106.395 388.326C106.298 388.377 106.106 388.474 105.945 388.547C105.784 388.619 105.72 388.644 105.605 388.691C105.491 388.738 105.249 388.831 105.053 388.899C104.926 388.945 104.79 388.988 104.654 389.03C104.446 389.098 104.23 389.166 104.009 389.23L103.559 389.349C103.317 389.412 103.079 389.472 102.82 389.531L102.319 389.637C102.051 389.692 101.784 389.752 101.503 389.803L100.947 389.9L100.06 390.045L99.4568 390.13L98.5013 390.253L97.8686 390.325C97.5247 390.363 97.185 390.401 96.8326 390.431C96.6245 390.431 96.4079 390.465 96.1999 390.482C95.8262 390.516 95.4568 390.545 95.0704 390.571L94.4546 390.609L93.219 390.677H92.6754C92.2168 390.677 91.7625 390.711 91.2954 390.719H90.9939C89.7965 390.719 88.565 390.745 87.3039 390.719C86.0428 390.694 84.7349 390.639 83.4822 390.562H83.3124C82.7986 390.528 82.2975 390.49 81.7965 390.448L81.3973 390.418L80.0343 390.282L79.5587 390.236C79.1341 390.189 78.7094 390.138 78.306 390.083L77.8092 390.023L76.65 389.854L76.1532 389.777C75.7837 389.718 75.4271 389.65 75.0746 389.586L74.6118 389.501C74.2636 389.434 73.9324 389.366 73.6054 389.293L73.1808 389.2C72.858 389.128 72.5523 389.052 72.2508 388.971L71.8772 388.873C71.5842 388.797 71.3082 388.712 71.0279 388.631L70.6924 388.525C70.4334 388.44 70.1871 388.356 69.9536 388.266L69.6648 388.156C69.4398 388.067 69.2402 387.978 69.0279 387.884L68.7859 387.77C68.599 387.677 68.4249 387.579 68.2636 387.486L68.0682 387.367C67.9239 387.268 67.7922 387.17 67.6733 387.074C67.6196 387.033 67.5685 386.989 67.5205 386.942C67.4235 386.854 67.3341 386.757 67.253 386.654C67.2166 386.608 67.1839 386.56 67.1553 386.509C67.1082 386.421 67.0726 386.327 67.0491 386.229V386.229Z" fill="#FFCD2E"/>
<path d="M66.8624 384.212L66.977 378.725C66.9761 378.871 67.0065 379.016 67.0662 379.149V379.187C67.1404 379.342 67.2377 379.486 67.3549 379.612C67.4842 379.755 67.6263 379.885 67.7796 380.002L67.9155 380.1C68.0556 380.197 68.2169 380.295 68.3825 380.388C68.4462 380.422 68.5014 380.46 68.5694 380.494C68.8029 380.617 69.062 380.74 69.3422 380.859L69.4866 380.919C69.7286 381.016 69.9919 381.118 70.2637 381.212L70.5991 381.326L71.3337 381.555L71.7159 381.661C72.0089 381.746 72.3146 381.823 72.6331 381.903L72.9218 381.975C73.3465 382.073 73.7711 382.171 74.2339 382.26L74.5609 382.323C74.9176 382.391 75.2828 382.459 75.6607 382.523L76.1617 382.608L77.2233 382.769L77.7371 382.841C78.1617 382.901 78.6373 382.96 79.1002 383.011L79.3677 383.045C79.9197 383.109 80.4887 383.164 81.0662 383.215L81.5673 383.257L82.8411 383.355L83.4611 383.397C83.8857 383.423 84.3104 383.448 84.7605 383.465L85.3422 383.495C85.9707 383.52 86.6161 383.541 87.2445 383.554C98.5184 383.796 107.707 382.018 107.758 379.586L107.644 385.069C107.593 387.505 98.4038 389.279 87.1256 389.042C86.483 389.042 85.8503 389.02 85.2276 388.978L84.6416 388.952C84.2169 388.952 83.7923 388.91 83.3422 388.88L82.7265 388.842L81.4314 388.745L80.9303 388.702C80.3528 388.651 79.7881 388.592 79.2318 388.532L78.9643 388.498C78.5014 388.443 78.0471 388.388 77.6055 388.329L77.0917 388.256C76.7307 388.201 76.3741 388.15 76.0301 388.091L75.529 388.01C75.1511 387.947 74.7859 387.879 74.4293 387.807L74.1023 387.747C73.6437 387.654 73.2063 387.56 72.7859 387.459L72.4972 387.386C72.183 387.31 71.8772 387.229 71.5842 387.149L71.2021 387.038L70.4675 386.809L70.132 386.699C69.856 386.601 69.597 386.504 69.3507 386.402L69.2106 386.347C68.9261 386.228 68.6713 386.105 68.4335 385.982L68.2509 385.871C68.1405 385.812 68.0259 385.753 67.9282 385.689L67.7838 385.587L67.6437 385.485C67.4913 385.369 67.3492 385.24 67.2191 385.099C67.1043 384.973 67.0097 384.83 66.9388 384.675V384.649V384.615C66.8867 384.487 66.8607 384.35 66.8624 384.212Z" fill="#F5B026"/>
<path d="M67.0452 379.056C67.0371 379.034 67.0272 379.013 67.0155 378.993C66.9931 378.917 66.9831 378.838 66.9858 378.759C66.9858 378.759 66.9858 378.759 66.9858 378.725C67.0367 376.285 76.2172 374.507 87.4911 374.749C94.7098 374.901 101.045 375.848 104.65 377.151C106.667 377.881 107.844 378.717 107.822 379.591C107.823 379.682 107.808 379.773 107.776 379.858C107.763 379.887 107.747 379.914 107.729 379.939C107.697 380.023 107.656 380.102 107.606 380.177C107.563 380.24 107.521 380.3 107.47 380.363C107.395 380.445 107.315 380.523 107.232 380.597C107.164 380.656 107.096 380.711 107.02 380.767C106.943 380.822 106.799 380.919 106.676 380.996C106.553 381.072 106.493 381.102 106.396 381.153C106.298 381.204 106.107 381.301 105.945 381.373L105.601 381.518C105.427 381.59 105.245 381.658 105.054 381.726C104.926 381.772 104.79 381.815 104.655 381.857C104.446 381.925 104.23 381.993 104.009 382.057L103.555 382.176L102.82 382.358L102.319 382.464L101.5 382.63L100.948 382.723C100.655 382.774 100.362 382.825 100.056 382.872L99.4571 382.956L98.5017 383.08L97.8648 383.152L96.8287 383.258C96.6248 383.258 96.404 383.292 96.2002 383.309C95.8265 383.343 95.4529 383.372 95.0665 383.398L94.455 383.436C94.0304 383.436 93.6397 383.483 93.2193 383.5L92.6715 383.521C92.2172 383.521 91.7628 383.555 91.2915 383.563H90.99C89.7926 383.563 88.5654 383.589 87.3042 383.563C86.0431 383.538 84.7352 383.483 83.4826 383.406H83.3127C82.7947 383.377 82.2936 383.334 81.7968 383.296L81.3934 383.262C80.9306 383.224 80.4805 383.177 80.0346 383.13L79.5548 383.084C79.1302 383.037 78.7055 382.986 78.3021 382.931L77.8096 382.872L76.6503 382.702C76.4847 382.672 76.3149 382.651 76.1535 382.625L75.0707 382.434L74.6121 382.35C74.2639 382.282 73.9327 382.214 73.6057 382.142L73.1811 382.048C72.8626 381.976 72.5569 381.9 72.2554 381.819L71.8775 381.721C71.5888 381.641 71.3127 381.56 71.0282 381.475L70.697 381.373C70.4338 381.289 70.1917 381.204 69.9539 381.115L69.6652 381.004C69.4401 380.915 69.2406 380.822 69.0325 380.733L68.7905 380.618C68.5994 380.525 68.4295 380.427 68.2682 380.334L68.0728 380.211C67.9338 380.123 67.8005 380.027 67.6737 379.922C67.6227 379.88 67.5718 379.837 67.5251 379.79C67.4259 379.704 67.3363 379.607 67.2575 379.502C67.2221 379.456 67.1895 379.408 67.1599 379.358C67.1101 379.262 67.0716 379.161 67.0452 379.056V379.056Z" fill="#FFCD2E"/>
<path d="M39.2822 426.06L39.4011 420.568C39.3996 420.715 39.43 420.859 39.4903 420.993V421.031C39.5645 421.186 39.6618 421.329 39.779 421.455C39.9072 421.599 40.0495 421.73 40.2037 421.846L40.3395 421.943C40.4797 422.041 40.641 422.139 40.8066 422.232C40.8703 422.266 40.9255 422.304 40.9935 422.338C41.227 422.465 41.486 422.584 41.7663 422.707L41.9107 422.762C42.1527 422.86 42.416 422.962 42.6877 423.055L43.0232 423.17L43.7578 423.399L44.14 423.509C44.433 423.59 44.7387 423.671 45.0572 423.747L45.3459 423.819C45.7705 423.917 46.1952 424.014 46.658 424.104L46.985 424.167C47.3417 424.235 47.7068 424.303 48.0848 424.367L48.5858 424.452L49.6474 424.613L50.1612 424.685C50.6071 424.749 51.0614 424.804 51.5243 424.859L51.7918 424.889C52.3438 424.952 52.9128 425.008 53.4903 425.058L53.9913 425.101C54.416 425.139 54.8406 425.173 55.2652 425.203L55.8852 425.241L57.1845 425.313L57.7663 425.339C58.3947 425.364 59.0402 425.385 59.6686 425.402C70.9425 425.64 80.1315 423.862 80.1824 421.43L80.0678 426.917C80.0168 429.349 70.8279 431.127 59.5497 430.885C58.9085 430.885 58.2758 430.851 57.6516 430.826L57.0657 430.796L55.7663 430.728L55.1506 430.686L53.8767 430.588L53.3756 430.546C52.7981 430.495 52.2334 430.436 51.6771 430.376L51.4096 430.342C50.9468 430.291 50.4924 430.232 50.0508 430.172L49.537 430.1C49.1761 430.045 48.8194 429.994 48.4754 429.935L47.9701 429.854C47.5964 429.79 47.2313 429.723 46.8746 429.655L46.5476 429.591C46.089 429.498 45.6516 429.404 45.2313 429.302L44.9425 429.23C44.6283 429.154 44.3226 429.073 44.0296 428.993L43.6474 428.882C43.3926 428.81 43.1463 428.734 42.9128 428.653L42.5773 428.543C42.3013 428.445 42.0423 428.348 41.796 428.246C41.7483 428.23 41.7016 428.211 41.6559 428.191C41.3714 428.072 41.1166 427.949 40.8788 427.826L40.6962 427.719C40.5858 427.656 40.4712 427.596 40.3735 427.533L40.2291 427.431L40.089 427.329C39.9377 427.213 39.7958 427.085 39.6644 426.947V426.947C39.5514 426.827 39.4569 426.691 39.3841 426.544C39.3852 426.537 39.3852 426.53 39.3841 426.523V426.484C39.3221 426.351 39.2875 426.207 39.2822 426.06V426.06Z" fill="#F5B026"/>
<path d="M39.4906 420.903C39.4906 420.903 39.4651 420.861 39.4609 420.839C39.4383 420.765 39.4282 420.688 39.4312 420.61C39.4312 420.61 39.4312 420.585 39.4312 420.576C39.4821 418.132 48.6626 416.358 59.9364 416.596C67.1551 416.748 73.4906 417.699 77.0957 419.002C79.0829 419.719 80.2549 420.568 80.2549 421.442C80.256 421.532 80.2401 421.621 80.2082 421.705C80.1943 421.734 80.1787 421.763 80.1615 421.79C80.1289 421.872 80.0876 421.95 80.0383 422.024C79.9969 422.088 79.9515 422.151 79.9025 422.21C79.8275 422.294 79.7481 422.373 79.6647 422.448C79.5967 422.503 79.5288 422.558 79.4524 422.613C79.3424 422.697 79.2275 422.773 79.1084 422.843C79.0192 422.898 78.9258 422.949 78.8282 423C78.7305 423.051 78.5394 423.148 78.378 423.22C78.2167 423.292 78.153 423.318 78.0341 423.365C77.9152 423.411 77.6774 423.505 77.4863 423.573L77.0872 423.708C76.8791 423.772 76.6626 423.84 76.4417 423.904L75.9874 424.022C75.7496 424.086 75.5076 424.146 75.2528 424.205L74.7517 424.311C74.4842 424.366 74.2167 424.426 73.9322 424.477L73.3802 424.574L72.4885 424.718L71.8897 424.803L70.9343 424.931L70.2974 424.999C69.9577 425.037 69.618 425.075 69.2613 425.105L68.6328 425.16L67.4991 425.245C67.2995 425.245 67.0745 425.27 66.8876 425.283L65.6519 425.351H65.1042C64.6498 425.351 64.1955 425.385 63.7241 425.393H63.4226C62.2252 425.414 60.998 425.419 59.7369 425.393C58.4757 425.368 57.1891 425.313 55.9365 425.236H55.7666C55.2486 425.202 54.7475 425.164 54.2507 425.122L53.8261 425.092L52.4672 424.96L51.9874 424.909C51.5628 424.863 51.1382 424.812 50.7135 424.757L50.221 424.697L49.0617 424.527L48.5649 424.451C48.1912 424.392 47.8388 424.324 47.4821 424.26L47.0235 424.175C46.6753 424.107 46.3441 424.039 46.0171 423.967L45.5925 423.874C45.274 423.802 44.9683 423.725 44.6668 423.645L44.2889 423.547C44.0002 423.471 43.7242 423.386 43.4397 423.305L43.1084 423.199C42.8452 423.114 42.6031 423.029 42.3653 422.94L42.0766 422.83C41.8515 422.741 41.652 422.652 41.4439 422.558L41.2019 422.444C41.0108 422.35 40.8409 422.257 40.6796 422.159L40.4842 422.041C40.3461 421.95 40.2128 421.852 40.0851 421.748C40.0341 421.705 39.9832 421.663 39.9365 421.616C39.8373 421.53 39.7477 421.433 39.669 421.328C39.6326 421.282 39.5999 421.234 39.5713 421.183C39.5346 421.093 39.5076 420.999 39.4906 420.903V420.903Z" fill="#FFCD2E"/>
</svg>
