<svg width="14" height="14" viewBox="0 0 14 14" fill="none" xmlns="http://www.w3.org/2000/svg">
<path d="M7.97997 9.06671C7.17174 9.06508 6.39781 8.74172 5.82797 8.16975C5.71368 8.06575 5.66633 7.90813 5.70388 7.75864C5.74144 7.60915 5.85899 7.49215 6.00758 7.45478C6.15779 7.4174 6.31617 7.46453 6.41904 7.57827C7.28604 8.42811 8.67553 8.42811 9.54253 7.57827L12.5468 4.58515C13.4089 3.72556 13.4089 2.33137 12.5468 1.47178C11.6847 0.612193 10.2854 0.612193 9.42334 1.47178L6.88764 4.0018C6.78314 4.11554 6.62477 4.16429 6.47618 4.12529C6.32597 4.08792 6.21004 3.97093 6.17249 3.82143C6.13493 3.67194 6.18228 3.51432 6.29658 3.41032L8.83064 0.883556C10.0128 -0.294519 11.9296 -0.294519 13.1134 0.883556C14.2955 2.06163 14.2955 3.97255 13.1134 5.15062L10.1091 8.14375C9.55723 8.7336 8.78656 9.06671 7.97997 9.06671ZM3.0343 14C1.80809 13.9984 0.702698 13.2623 0.232459 12.133C-0.237779 11.0036 0.0185661 9.70368 0.882303 8.83597L3.88661 5.84285C4.45481 5.27737 5.22385 4.95888 6.02717 4.95888C6.8305 4.95888 7.60116 5.27737 8.16774 5.84285C8.28203 5.94684 8.32938 6.10446 8.29183 6.25395C8.25427 6.40345 8.13671 6.52044 7.98813 6.55782C7.83792 6.59519 7.67954 6.54807 7.57667 6.43432C6.70967 5.58448 5.32018 5.58448 4.45318 6.43432L1.44888 9.42744C0.586771 10.287 0.586771 11.6812 1.44888 12.5408C2.31098 13.4004 3.71027 13.4004 4.57237 12.5408L7.10807 10.0124C7.27298 9.86292 7.52769 9.86942 7.68607 10.027C7.84445 10.1847 7.85098 10.4382 7.70076 10.6023L5.16343 13.1274C4.59196 13.6783 3.82946 13.9902 3.0343 14Z" fill="white"/>
<path d="M3.17122 13.9999C2.32885 14.0077 1.52112 13.6701 0.935401 13.0654C0.338657 12.4749 0.00170944 11.6708 0.000134918 10.8321C-0.00773769 9.9903 0.32921 9.18304 0.935401 8.5988L3.83252 5.70588C4.42454 5.11065 5.22912 4.77455 6.06834 4.77141C6.91071 4.76356 7.71844 5.10123 8.30416 5.70588C8.42225 5.82681 8.48838 5.98858 8.48524 6.15819C8.47894 6.32467 8.41438 6.48487 8.30416 6.61051C8.18765 6.73144 8.02705 6.79897 7.85858 6.79897C7.6901 6.79897 7.53108 6.73144 7.41299 6.61051C6.66351 5.88178 5.47003 5.88178 4.72055 6.61051L1.82343 9.50343C1.46916 9.86151 1.27392 10.3452 1.28022 10.8478C1.28495 11.3488 1.47861 11.8294 1.82343 12.1922C2.18085 12.5456 2.6658 12.7419 3.16965 12.734C3.67035 12.7293 4.15215 12.5361 4.51586 12.1922L6.96267 9.75C7.2083 9.505 7.60665 9.505 7.85228 9.75C8.0979 9.99501 8.0979 10.3939 7.85228 10.6389L5.40862 13.0811C4.81345 13.6701 4.00887 13.9999 3.17122 13.9999ZM6.0463 5.27555C5.33147 5.26613 4.64498 5.55511 4.15215 6.07339L1.25503 8.96631C0.749607 9.46731 0.463044 10.1473 0.456746 10.8588C0.447299 11.5734 0.737011 12.2581 1.25503 12.7497C1.75573 13.2554 2.4375 13.5413 3.14918 13.5476C3.86401 13.557 4.5505 13.268 5.04333 12.7497L7.48856 10.3075C7.5295 10.2667 7.54525 10.207 7.53108 10.1521C7.5169 10.0971 7.47282 10.0531 7.41771 10.0374C7.3626 10.0217 7.30277 10.039 7.26183 10.0798L4.81502 12.5236C3.89393 13.4423 2.40128 13.4423 1.48176 12.522C0.562239 11.6017 0.562239 10.1112 1.48333 9.19246L4.38046 6.29954C5.311 5.3902 6.79892 5.3902 7.72947 6.29954C7.75781 6.33252 7.80032 6.35137 7.84283 6.35137C7.88692 6.35137 7.92785 6.33252 7.9562 6.29954C8.0176 6.23515 8.0176 6.13621 7.9562 6.07181C7.45707 5.55511 6.76586 5.2677 6.0463 5.27555ZM7.94045 9.24115C7.09808 9.249 6.29035 8.91134 5.70463 8.30668C5.459 8.06168 5.459 7.66276 5.70463 7.41776C5.95025 7.17276 6.34861 7.17276 6.59423 7.41776C7.34371 8.14649 8.53719 8.14649 9.28667 7.41776L12.1838 4.52484C12.5381 4.16676 12.7333 3.68303 12.727 3.18046C12.7223 2.67946 12.5286 2.19888 12.1838 1.83609C11.8264 1.48272 11.3414 1.2864 10.8376 1.29425C10.3369 1.29896 9.85507 1.49214 9.49135 1.83609L7.04612 4.2767C6.79735 4.5217 6.39742 4.51856 6.15337 4.26884C5.90932 4.0207 5.91247 3.62021 6.16124 3.37678L8.6049 0.934601C9.19692 0.339369 10.0015 0.00327503 10.8407 0.000133968C11.6831 -0.0077187 12.4908 0.329946 13.0765 0.934601C14.3078 2.16904 14.3078 4.16519 13.0765 5.4012L10.1794 8.29412C9.5874 8.88935 8.78282 9.22544 7.9436 9.22859L7.94045 9.24115ZM6.13762 7.70988C6.09511 7.70988 6.05417 7.72716 6.02426 7.75543C5.99119 7.7837 5.9723 7.8261 5.9723 7.87007C5.9723 7.91405 5.99119 7.95488 6.02426 7.98472C6.52496 8.49044 7.20672 8.77627 7.91841 8.78255C8.63324 8.79198 9.31973 8.503 9.81256 7.98472L12.7097 5.0918C13.478 4.32224 13.7095 3.16633 13.2954 2.15962C12.8813 1.15133 11.9035 0.491711 10.814 0.483858C10.0991 0.476006 9.41263 0.764984 8.92138 1.28483L6.47772 3.72544C6.43678 3.76627 6.42104 3.82595 6.43521 3.88092C6.44938 3.93589 6.49346 3.97986 6.54857 3.99557C6.60368 4.01128 6.66351 3.994 6.70445 3.95317L9.14968 1.51099C10.0692 0.592225 11.5603 0.592225 12.4798 1.51099C13.3993 2.42975 13.3993 3.91861 12.4798 4.83738L9.58268 7.7303C8.65213 8.63964 7.16421 8.63964 6.23367 7.7303C6.23367 7.70831 6.18801 7.70831 6.14392 7.70831L6.13762 7.70988Z" fill="white"/>
</svg>
