<svg width="120" height="62" viewBox="0 0 120 62" fill="none" xmlns="http://www.w3.org/2000/svg">
<path d="M49.476 31.5987C46.8537 34.094 43.9935 36.3266 40.9362 38.2647C39.4993 39.1164 37.781 40.0497 36.0479 39.8497C35.1841 39.7074 34.3781 39.3239 33.7229 38.7434C33.0676 38.1628 32.5898 37.4089 32.3446 36.5686C32.0612 35.5489 32.1052 34.4659 32.4705 33.4726C29.3301 35.5465 26.7378 38.598 23.1752 39.9904C21.9383 40.4793 20.3014 38.5091 20.5532 37.3685C21.3383 33.88 23.2344 30.2655 26.16 28.088C26.6701 27.679 27.2571 27.3765 27.8862 27.1987C28.5153 27.0209 29.1738 26.9712 29.8225 27.0527C30.4711 27.1343 31.0968 27.3453 31.6624 27.6732C32.228 28.0012 32.7219 28.4395 33.1148 28.962C33.4272 28.8444 33.7462 28.7455 34.0703 28.6657C34.3031 28.6331 34.5401 28.6499 34.766 28.715C34.9919 28.78 35.2015 28.892 35.3813 29.0435C35.7181 29.2387 36.0118 29.5001 36.2448 29.812C36.4777 30.1239 36.6451 30.4797 36.7367 30.8581C36.7888 31.0352 36.773 31.2253 36.6922 31.3913C36.5446 32.3072 36.2962 33.2039 35.9516 34.0651C35.6662 34.9354 35.4507 35.827 35.3072 36.7315H35.4405C38.9883 36.2871 45.1802 31.6432 47.4022 29.6212C48.5206 28.6287 50.55 30.6211 49.476 31.5987ZM30.8706 30.0582H30.8188L30.1448 30.1693C29.4997 30.3788 28.9099 30.7306 28.4191 31.1988C27.6352 31.8812 26.9297 32.6489 26.3156 33.4874L26.2489 33.5837C27.6991 32.2945 29.244 31.116 30.8706 30.0582Z" fill="#231815"/>
<path d="M72.3551 31.7087C69.3476 33.1957 66.4272 34.8525 63.6079 36.6712C61.8377 37.7747 59.9046 39.3375 57.8085 39.819C57.3264 39.9038 56.8311 39.8737 56.3628 39.731C55.8946 39.5884 55.4666 39.3373 55.1137 38.9981C54.7608 38.6589 54.4929 38.2411 54.3318 37.7789C54.1707 37.3167 54.121 36.8229 54.1867 36.3379C54.4067 35.1247 54.8193 33.9545 55.4088 32.8716C52.0475 34.7318 49.0633 37.2036 46.6097 40.1597C45.6321 41.3299 43.4693 38.7376 43.736 37.6859C44.5934 34.6855 45.8384 31.8097 47.4393 29.1312C48.2688 27.6499 51.1426 30.1607 50.4686 31.3532L50.3501 31.568C52.9944 29.7558 55.8955 28.3502 58.9565 27.3981C60.2453 26.9981 62.1636 29.072 61.4229 30.2718C60.4008 31.9457 59.5194 33.627 58.6751 35.338C62.7487 33.2937 67.1927 31.4717 71.2071 29.5756C72.4662 28.9609 73.8438 31.0051 72.3551 31.7087Z" fill="#231815"/>
<path d="M97.9823 31.8414C92.5903 35.0484 87.7389 39.3072 83.2579 43.6919C80.1683 50.0537 76.4462 56.0884 72.148 61.7048C71.3333 62.7787 69.4817 60.6234 69.2891 59.9198C68.2596 56.2165 70.1853 52.8169 72.3702 49.9283C74.3291 47.3971 76.452 44.9971 78.7251 42.7439C79.2732 42.1884 79.8287 41.6329 80.3842 41.0848C81.7519 38.3295 82.9765 35.4953 84.0578 32.582C82.7938 33.5992 81.4828 34.5596 80.1249 35.4632C77.1623 37.4185 74.0145 39.5961 70.4445 38.0037C69.7631 37.7 68.778 36.7001 68.8521 35.8706C69.0943 32.8233 70.2537 29.9209 72.1777 27.5455C73.0739 26.4345 75.881 29.0787 74.8959 30.2638C73.665 31.7829 72.7804 33.5522 72.3036 35.4484C73.3732 35.1433 74.3898 34.6762 75.3181 34.0633C76.7327 33.2264 78.0955 32.2932 79.4213 31.3303C81.9822 29.4506 84.3895 27.3702 86.6205 25.1088C87.6797 24.0422 89.8128 26.479 89.4943 27.5826C88.7388 30.1354 87.8895 32.6586 86.9464 35.1521C89.7313 32.819 93.3383 31.197 96.3306 29.5379C97.5231 28.8787 99.4265 31.0118 97.9823 31.8414Z" fill="#231815"/>
<path d="M119.246 31.5987C116.943 33.9762 114.573 36.4944 111.795 38.3461C110.499 39.2127 109.099 39.9385 107.61 39.0497C106.122 38.1609 105.588 36.4352 105.833 34.7094C105.833 34.6354 105.833 34.5613 105.833 34.4947C104.013 36.2206 102.029 37.7637 99.9076 39.1016C97.9597 40.2718 95.8488 40.7606 94.2786 38.6868C92.1973 35.9389 94.8711 31.1395 96.7524 28.9323C97.6856 27.8361 100.456 30.5025 99.4706 31.6579C98.6574 32.6687 97.9985 33.7944 97.5153 34.9983C97.3021 35.482 97.1142 35.9764 96.9524 36.4796C97.9127 35.9452 98.8247 35.3281 99.678 34.6354C102.537 32.4134 105.092 29.8507 107.766 27.4362C108.87 26.4363 110.995 28.7619 110.64 29.9026C110.107 31.6061 109.61 33.3244 109.21 35.0872C109.166 35.2575 109.136 35.4279 109.107 35.5982C111.558 35.0427 115.506 31.6357 117.387 29.673C118.409 28.6286 120.239 30.5321 119.246 31.5987Z" fill="#231815"/>
<path d="M2.62211 27.9398C2.96281 30.2951 5.9773 36.0426 9.18436 38.9904C10.5694 37.3313 11.073 33.7614 11.5174 32.2134C12.421 29.0582 13.2728 25.8906 14.0727 22.7107C15.7565 16.2521 17.2674 9.74915 18.6056 3.20171C18.887 1.83889 22.6866 1.48338 22.3533 3.0832C21.1238 9.06774 19.7561 15.0226 18.25 20.9479C17.5242 23.797 16.7663 26.6411 15.9762 29.4803C15.3332 32.2439 14.5194 34.9649 13.5394 37.6276C12.7321 39.5459 11.4582 41.0865 9.39174 41.6642C7.3253 42.2419 6.14024 40.968 4.94778 39.5015C2.45934 36.2214 0.836803 32.3675 0.229775 28.2953C0.000170514 26.814 2.40732 26.4807 2.62211 27.9398Z" fill="#231815"/>
<path d="M14.5686 5.92012C10.4406 6.90766 6.33985 8.031 2.26621 9.29012C1.25892 9.62342 -0.955659 6.92001 0.459003 6.49042C6.48304 4.66346 12.5663 3.08586 18.7089 1.7576C24.1824 0.579954 29.8262 -0.923586 35.5515 0.735493C36.781 1.09101 38.0771 3.92774 36.1218 3.36484C30.5743 1.76501 24.7453 3.65369 19.4569 4.84616" fill="#231815"/>
</svg>
