<svg width="24" height="24" viewBox="0 0 24 24" fill="none" xmlns="http://www.w3.org/2000/svg">
<mask id="mask0_2599_6" style="mask-type:alpha" maskUnits="userSpaceOnUse" x="0" y="0" width="24" height="24">
<rect width="24" height="24" fill="#C4C4C4"/>
</mask>
<g mask="url(#mask0_2599_6)">
<path d="M23.9934 4.73322L11.8427 12.2373L0.0033105 4.92799V3.83727C0.0033105 2.54823 0.979997 1.5 2.18844 1.5H21.8149C23.02 1.5 24 2.54469 24 3.83727V4.73322H23.9934ZM23.9934 7.42816V20.1627C23.9934 21.4518 23.0167 22.5 21.8082 22.5H2.18513C0.979997 22.5 0 21.4553 0 20.1627V7.62293L11.2998 14.5993C11.6871 14.8401 12.154 14.7941 12.4917 14.5285C12.5082 14.5214 12.5215 14.5108 12.538 14.5037L23.9934 7.42816V7.42816Z" fill="#4B4B4B"/>
</g>
</svg>
