<svg width="36" height="34" viewBox="0 0 36 34" fill="none" xmlns="http://www.w3.org/2000/svg">
<path d="M15.5002 1.47534V7.48208C15.5002 8.29711 14.8395 8.95724 14.025 8.95724C11.1185 8.95724 9.53735 11.9381 9.31789 17.8223H14.025C14.8394 17.8223 15.5002 18.4833 15.5002 19.2974V31.9809C15.5002 32.7957 14.8395 33.4558 14.025 33.4558H1.47526C0.660954 33.4558 0 32.7949 0 31.9809V19.2973C0 16.4769 0.284737 13.8886 0.843697 11.6028C1.41792 9.2595 2.29936 7.21085 3.46296 5.51315C4.65967 3.76851 6.15792 2.39948 7.91349 1.44605C9.68235 0.486542 11.7385 -0.000431061 14.0256 -0.000431061C14.8394 0.00018692 15.5002 0.660934 15.5002 1.47534ZM34.5252 8.95775C35.3396 8.95775 36 8.29711 36 7.48322V1.47524C36 0.660934 35.3396 0.000705719 34.5252 0.000705719C32.2392 0.000705719 30.182 0.487782 28.4143 1.44719C26.6578 2.40051 25.1597 3.76841 23.9631 5.51428C22.7988 7.21198 21.9175 9.26074 21.3432 11.6052C20.784 13.891 20.4998 16.4793 20.4998 19.2986V31.9822C20.4998 32.7969 21.1609 33.457 21.975 33.457H34.5252C35.3396 33.457 36 32.7963 36 31.9822V19.2986C36 18.484 35.3396 17.8234 34.5252 17.8234H29.8842C30.1009 11.9387 31.6593 8.95775 34.5252 8.95775Z" fill="#313E51"/>
</svg>
