<svg width="16" height="16" viewBox="0 0 16 16" fill="none" xmlns="http://www.w3.org/2000/svg">
<path d="M7.99181 0.526432C7.85054 0.52864 7.71592 0.586806 7.61749 0.688163C7.51907 0.789519 7.46487 0.925787 7.46681 1.06706V2.66706C7.46581 2.73773 7.47886 2.8079 7.50522 2.87348C7.53157 2.93906 7.5707 2.99875 7.62032 3.04909C7.66995 3.09942 7.72908 3.13938 7.79428 3.16666C7.85949 3.19394 7.92946 3.20799 8.00014 3.20799C8.07082 3.20799 8.1408 3.19394 8.206 3.16666C8.2712 3.13938 8.33034 3.09942 8.37996 3.04909C8.42958 2.99875 8.46871 2.93906 8.49506 2.87348C8.52142 2.8079 8.53447 2.73773 8.53347 2.66706V1.06706C8.53445 0.995703 8.5211 0.924878 8.49421 0.858776C8.46732 0.792675 8.42744 0.732641 8.37694 0.68223C8.32643 0.631818 8.26632 0.592055 8.20016 0.565294C8.13401 0.538532 8.06316 0.525318 7.99181 0.526432ZM3.09181 2.55977C2.9858 2.56 2.88226 2.59182 2.79442 2.65116C2.70657 2.7105 2.6384 2.79467 2.59861 2.89292C2.55881 2.99118 2.5492 3.09907 2.571 3.20281C2.59279 3.30656 2.64501 3.40145 2.72097 3.47539L3.85222 4.60664C3.90137 4.65783 3.96023 4.69869 4.02537 4.72684C4.0905 4.75499 4.1606 4.76986 4.23155 4.77059C4.30251 4.77131 4.37289 4.75786 4.43859 4.73104C4.50428 4.70422 4.56396 4.66456 4.61414 4.61439C4.66431 4.56421 4.70397 4.50453 4.73079 4.43884C4.75761 4.37314 4.77106 4.30276 4.77034 4.2318C4.76961 4.16085 4.75474 4.09075 4.72659 4.02562C4.69844 3.96048 4.65758 3.90162 4.60639 3.85247L3.47514 2.72122C3.42532 2.67001 3.36571 2.62932 3.29986 2.60159C3.23401 2.57385 3.16326 2.55963 3.09181 2.55977ZM12.8918 2.55977C12.7532 2.56389 12.6217 2.6218 12.5251 2.72122L11.3939 3.85247C11.3427 3.90162 11.3018 3.96048 11.2737 4.02562C11.2455 4.09075 11.2307 4.16085 11.2299 4.2318C11.2292 4.30276 11.2427 4.37314 11.2695 4.43883C11.2963 4.50453 11.336 4.56421 11.3861 4.61438C11.4363 4.66456 11.496 4.70422 11.5617 4.73104C11.6274 4.75786 11.6978 4.7713 11.7687 4.77058C11.8397 4.76986 11.9098 4.75499 11.9749 4.72684C12.04 4.69869 12.0989 4.65782 12.1481 4.60664L13.2793 3.47539C13.3564 3.40048 13.409 3.30403 13.4303 3.19869C13.4516 3.09334 13.4406 2.98402 13.3987 2.88504C13.3568 2.78606 13.286 2.70204 13.1956 2.644C13.1051 2.58596 12.9992 2.5566 12.8918 2.55977ZM8.00014 4.26706C7.01 4.26706 6.06041 4.66039 5.36028 5.36053C4.66014 6.06066 4.26681 7.01025 4.26681 8.00039C4.26681 8.99053 4.66014 9.94012 5.36028 10.6403C6.06041 11.3404 7.01 11.7337 8.00014 11.7337C8.99028 11.7337 9.93987 11.3404 10.64 10.6403C11.3401 9.94012 11.7335 8.99053 11.7335 8.00039C11.7335 7.01025 11.3401 6.06066 10.64 5.36053C9.93987 4.66039 8.99028 4.26706 8.00014 4.26706ZM1.06681 7.46706C0.996135 7.46606 0.925968 7.47911 0.860385 7.50547C0.794802 7.53182 0.735111 7.57095 0.68478 7.62057C0.63445 7.6702 0.594484 7.72933 0.567205 7.79453C0.539926 7.85974 0.525879 7.92971 0.525879 8.00039C0.525879 8.07107 0.539926 8.14105 0.567205 8.20625C0.594484 8.27145 0.63445 8.33059 0.68478 8.38021C0.735111 8.42983 0.794802 8.46896 0.860385 8.49531C0.925968 8.52167 0.996135 8.53472 1.06681 8.53372H2.66681C2.73748 8.53472 2.80765 8.52167 2.87323 8.49531C2.93881 8.46896 2.99851 8.42983 3.04884 8.38021C3.09917 8.33059 3.13913 8.27145 3.16641 8.20625C3.19369 8.14105 3.20774 8.07107 3.20774 8.00039C3.20774 7.92971 3.19369 7.85974 3.16641 7.79453C3.13913 7.72933 3.09917 7.6702 3.04884 7.62057C2.99851 7.57095 2.93881 7.53182 2.87323 7.50547C2.80765 7.47911 2.73748 7.46606 2.66681 7.46706H1.06681ZM13.3335 7.46706C13.2628 7.46606 13.1926 7.47911 13.1271 7.50547C13.0615 7.53182 13.0018 7.57095 12.9514 7.62057C12.9011 7.6702 12.8611 7.72933 12.8339 7.79453C12.8066 7.85974 12.7925 7.92971 12.7925 8.00039C12.7925 8.07107 12.8066 8.14105 12.8339 8.20625C12.8611 8.27145 12.9011 8.33059 12.9514 8.38021C13.0018 8.42983 13.0615 8.46896 13.1271 8.49531C13.1926 8.52167 13.2628 8.53472 13.3335 8.53372H14.9335C15.0041 8.53472 15.0743 8.52167 15.1399 8.49531C15.2055 8.46896 15.2652 8.42983 15.3155 8.38021C15.3658 8.33059 15.4058 8.27145 15.4331 8.20625C15.4604 8.14105 15.4744 8.07107 15.4744 8.00039C15.4744 7.92971 15.4604 7.85974 15.4331 7.79453C15.4058 7.72933 15.3658 7.6702 15.3155 7.62057C15.2652 7.57095 15.2055 7.53182 15.1399 7.50547C15.0743 7.47911 15.0041 7.46606 14.9335 7.46706H13.3335ZM4.21889 11.2327C4.08033 11.2368 3.94882 11.2947 3.85222 11.3941L2.72097 12.5254C2.66979 12.5745 2.62893 12.6334 2.60078 12.6985C2.57262 12.7637 2.55775 12.8338 2.55703 12.9047C2.55631 12.9757 2.56975 13.0461 2.59658 13.1118C2.6234 13.1774 2.66306 13.2371 2.71323 13.2873C2.76341 13.3375 2.82309 13.3771 2.88878 13.404C2.95447 13.4308 3.02486 13.4442 3.09581 13.4435C3.16677 13.4428 3.23686 13.4279 3.302 13.3998C3.36713 13.3716 3.426 13.3307 3.47514 13.2796L4.60639 12.1483C4.68346 12.0734 4.7361 11.9769 4.75741 11.8716C4.77872 11.7663 4.76771 11.6569 4.72582 11.558C4.68393 11.459 4.61312 11.375 4.52266 11.3169C4.43221 11.2589 4.32632 11.2295 4.21889 11.2327ZM11.7658 11.2327C11.6597 11.2327 11.556 11.2644 11.468 11.3236C11.38 11.3829 11.3116 11.4671 11.2717 11.5654C11.2318 11.6637 11.2221 11.7716 11.2439 11.8755C11.2656 11.9793 11.3179 12.0743 11.3939 12.1483L12.5251 13.2796C12.5743 13.3307 12.6331 13.3716 12.6983 13.3998C12.7634 13.4279 12.8335 13.4428 12.9045 13.4435C12.9754 13.4442 13.0458 13.4308 13.1115 13.404C13.1772 13.3771 13.2369 13.3375 13.287 13.2873C13.3372 13.2371 13.3769 13.1774 13.4037 13.1117C13.4305 13.0461 13.444 12.9757 13.4432 12.9047C13.4425 12.8338 13.4277 12.7637 13.3995 12.6985C13.3714 12.6334 13.3305 12.5745 13.2793 12.5254L12.1481 11.3941C12.0984 11.3431 12.0389 11.3024 11.9733 11.2747C11.9076 11.247 11.837 11.2327 11.7658 11.2327ZM7.99181 12.7931C7.85054 12.7953 7.71592 12.8535 7.61749 12.9548C7.51907 13.0562 7.46487 13.1925 7.46681 13.3337V14.9337C7.46581 15.0044 7.47886 15.0746 7.50522 15.1401C7.53157 15.2057 7.5707 15.2654 7.62032 15.3158C7.66995 15.3661 7.72908 15.406 7.79428 15.4333C7.85949 15.4606 7.92946 15.4747 8.00014 15.4747C8.07082 15.4747 8.1408 15.4606 8.206 15.4333C8.2712 15.406 8.33034 15.3661 8.37996 15.3158C8.42958 15.2654 8.46871 15.2057 8.49506 15.1401C8.52142 15.0746 8.53447 15.0044 8.53347 14.9337V13.3337C8.53445 13.2624 8.5211 13.1915 8.49421 13.1254C8.46732 13.0593 8.42744 12.9993 8.37694 12.9489C8.32643 12.8985 8.26632 12.8587 8.20016 12.832C8.13401 12.8052 8.06316 12.792 7.99181 12.7931Z" fill="#D0D0D0"/>
</svg>
