<svg width="692" height="579" viewBox="0 0 692 579" fill="none" xmlns="http://www.w3.org/2000/svg">
<g clip-path="url(#clip0_2722_46)">
<path d="M8.37288 9.57403C8.25137 10.6158 7.86647 11.4209 7.21826 11.9891C6.5746 12.5529 5.71706 12.8347 4.64571 12.8347C3.48433 12.8347 2.55253 12.4175 1.8503 11.5832C1.15257 10.7489 0.803711 9.63268 0.803711 8.2346V7.28753C0.803711 6.37204 0.965763 5.567 1.28987 4.87248C1.61847 4.17795 2.08212 3.64578 2.68082 3.27597C3.27952 2.90164 3.97274 2.71448 4.76049 2.71448C5.80482 2.71448 6.64208 3.00763 7.27231 3.59392C7.90248 4.1757 8.2694 4.98297 8.37288 6.01575H7.06972C6.95719 5.23101 6.71185 4.66276 6.33376 4.31099C5.96016 3.95922 5.43571 3.78334 4.76049 3.78334C3.93222 3.78334 3.28176 4.09001 2.80911 4.70336C2.34096 5.3167 2.10688 6.1894 2.10688 7.32136V8.27518C2.10688 9.34405 2.32971 10.1942 2.77535 10.8256C3.22099 11.457 3.84445 11.7726 4.64571 11.7726C5.36594 11.7726 5.91735 11.6103 6.29999 11.2856C6.68713 10.9564 6.94371 10.3858 7.06972 9.57403H8.37288ZM9.62206 8.972C9.62206 8.25492 9.76161 7.60999 10.0407 7.03723C10.3243 6.46446 10.7159 6.02251 11.2156 5.71132C11.7197 5.40014 12.2937 5.24455 12.9374 5.24455C13.9322 5.24455 14.7357 5.58955 15.3479 6.27956C15.9646 6.96957 16.273 7.88737 16.273 9.03285V9.12082C16.273 9.8334 16.1357 10.4738 15.8611 11.042C15.591 11.6058 15.2016 12.0455 14.693 12.3612C14.1888 12.6769 13.6081 12.8347 12.9509 12.8347C11.9606 12.8347 11.1571 12.4897 10.5404 11.7997C9.92818 11.1097 9.62206 10.1964 9.62206 9.05992V8.972ZM10.878 9.12082C10.878 9.93258 11.0648 10.5843 11.4384 11.0759C11.8165 11.5675 12.3207 11.8132 12.9509 11.8132C13.5856 11.8132 14.0897 11.5652 14.4634 11.0691C14.837 10.5685 15.0238 9.86948 15.0238 8.972C15.0238 8.16919 14.8325 7.51977 14.4499 7.02372C14.0718 6.52311 13.5676 6.27281 12.9374 6.27281C12.3207 6.27281 11.8233 6.51861 11.4452 7.01015C11.067 7.50176 10.878 8.20527 10.878 9.12082ZM19.1967 12.6994H17.9475V2.30859H19.1967V12.6994ZM20.8712 8.972C20.8712 8.25492 21.0107 7.60999 21.2898 7.03723C21.5734 6.46446 21.9651 6.02251 22.4647 5.71132C22.9689 5.40014 23.5428 5.24455 24.1866 5.24455C25.1813 5.24455 25.9849 5.58955 26.5971 6.27956C27.2138 6.96957 27.5221 7.88737 27.5221 9.03285V9.12082C27.5221 9.8334 27.3848 10.4738 27.1102 11.042C26.8401 11.6058 26.4507 12.0455 25.9421 12.3612C25.4379 12.6769 24.8572 12.8347 24.2 12.8347C23.2097 12.8347 22.4062 12.4897 21.7895 11.7997C21.1773 11.1097 20.8712 10.1964 20.8712 9.05992V8.972ZM22.1271 9.12082C22.1271 9.93258 22.3139 10.5843 22.6875 11.0759C23.0656 11.5675 23.5698 11.8132 24.2 11.8132C24.8348 11.8132 25.3389 11.5652 25.7125 11.0691C26.0861 10.5685 26.273 9.86948 26.273 8.972C26.273 8.16919 26.0816 7.51977 25.699 7.02372C25.3209 6.52311 24.8167 6.27281 24.1866 6.27281C23.5698 6.27281 23.0724 6.51861 22.6943 7.01015C22.3162 7.50176 22.1271 8.20527 22.1271 9.12082ZM32.62 6.50279C32.431 6.47122 32.2261 6.45546 32.0056 6.45546C31.1863 6.45546 30.6304 6.80499 30.3377 7.50401V12.6994H29.0886V5.37984H30.304L30.3243 6.22547C30.7339 5.57151 31.3146 5.24455 32.0663 5.24455C32.3094 5.24455 32.494 5.27611 32.62 5.33925V6.50279ZM38.0285 10.7579C38.0285 10.4197 37.9002 10.1581 37.6436 9.97316C37.3915 9.78376 36.9482 9.62143 36.3134 9.48612C35.6833 9.3508 35.1813 9.18848 34.8077 8.99902C34.4386 8.80962 34.164 8.58413 33.984 8.32257C33.8084 8.06096 33.7206 7.74981 33.7206 7.38902C33.7206 6.78918 33.9727 6.28182 34.4768 5.86693C34.9856 5.452 35.6338 5.24455 36.4215 5.24455C37.2497 5.24455 37.9205 5.45876 38.4336 5.88719C38.9513 6.31564 39.2102 6.86359 39.2102 7.53108H37.9542C37.9542 7.1883 37.8079 6.89291 37.5154 6.64486C37.2273 6.39681 36.8627 6.27281 36.4215 6.27281C35.9669 6.27281 35.6112 6.37204 35.3547 6.57045C35.0981 6.76891 34.9698 7.02822 34.9698 7.34843C34.9698 7.65058 35.089 7.87831 35.3276 8.03169C35.5662 8.18501 35.9961 8.33158 36.6173 8.47139C37.243 8.61121 37.7494 8.77804 38.1365 8.972C38.5237 9.16591 38.8095 9.40045 38.9941 9.67552C39.1831 9.94614 39.2777 10.2776 39.2777 10.67C39.2777 11.3239 39.0166 11.8493 38.4944 12.2462C37.9722 12.6385 37.2948 12.8347 36.462 12.8347C35.8768 12.8347 35.3592 12.731 34.909 12.5235C34.4589 12.3161 34.1055 12.0274 33.8489 11.6576C33.5968 11.2833 33.4708 10.8797 33.4708 10.4467H34.7199C34.7425 10.8661 34.909 11.1999 35.2196 11.4479C35.5347 11.6915 35.9488 11.8132 36.462 11.8132C36.9347 11.8132 37.3128 11.7185 37.5964 11.5291C37.8845 11.3352 38.0285 11.0781 38.0285 10.7579Z" fill="white"/>
<path d="M7.934 437.448H4.77399V446.229H3.48433V437.448H0.331055V436.379H7.934V437.448ZM11.1008 444.395L12.8024 438.909H14.1393L11.2021 447.358C10.7474 448.576 10.0249 449.185 9.03463 449.185L8.79828 449.165L8.33237 449.077V448.062L8.67002 448.089C9.09311 448.089 9.42177 448.003 9.65581 447.832C9.89441 447.66 10.0902 447.348 10.2432 446.891L10.5201 446.147L7.91377 438.909H9.27772L11.1008 444.395ZM21.4316 442.65C21.4316 443.764 21.1773 444.661 20.6686 445.343C20.16 446.024 19.4713 446.364 18.6025 446.364C17.7157 446.364 17.018 446.082 16.5093 445.519V449.043H15.2602V438.909H16.4012L16.462 439.721C16.9707 439.09 17.6774 438.774 18.5822 438.774C19.46 438.774 20.1532 439.105 20.6619 439.769C21.1751 440.431 21.4316 441.354 21.4316 442.535V442.65ZM20.1825 442.508C20.1825 441.683 20.0069 441.031 19.6558 440.553C19.3047 440.075 18.8231 439.836 18.2109 439.836C17.4546 439.836 16.8874 440.172 16.5093 440.844V444.341C16.8829 445.009 17.4546 445.343 18.2243 445.343C18.8231 445.343 19.298 445.106 19.6491 444.632C20.0047 444.154 20.1825 443.446 20.1825 442.508ZM22.6943 442.501C22.6943 441.784 22.8338 441.14 23.1129 440.566C23.3965 439.994 23.7882 439.552 24.2878 439.241C24.7919 438.929 25.3659 438.774 26.0096 438.774C27.0044 438.774 27.8079 439.119 28.4201 439.809C29.0368 440.499 29.3452 441.417 29.3452 442.562V442.65C29.3452 443.363 29.2079 444.003 28.9333 444.571C28.6632 445.135 28.2738 445.575 27.7652 445.89C27.261 446.206 26.6803 446.364 26.0231 446.364C25.0328 446.364 24.2293 446.019 23.6126 445.329C23.0004 444.639 22.6943 443.726 22.6943 442.589V442.501ZM23.9502 442.65C23.9502 443.462 24.137 444.114 24.5107 444.605C24.8887 445.097 25.3929 445.343 26.0231 445.343C26.6578 445.343 27.162 445.094 27.5356 444.599C27.9092 444.098 28.096 443.399 28.096 442.501C28.096 441.698 27.9047 441.049 27.5221 440.553C27.144 440.053 26.6398 439.802 26.0096 439.802C25.3929 439.802 24.8955 440.048 24.5174 440.54C24.1392 441.031 23.9502 441.735 23.9502 442.65ZM30.6146 442.508C30.6146 441.367 30.8779 440.461 31.4046 439.789C31.9313 439.112 32.629 438.774 33.4978 438.774C34.3891 438.774 35.0845 439.09 35.5842 439.721L35.645 438.909H36.7861V446.053C36.7861 447 36.5048 447.746 35.9421 448.292C35.3839 448.838 34.6322 449.11 33.6868 449.11C33.1602 449.11 32.6447 448.998 32.1406 448.772C31.6364 448.547 31.2516 448.238 30.986 447.846L31.6342 447.095C32.1698 447.757 32.8248 448.089 33.5991 448.089C34.2068 448.089 34.6794 447.918 35.017 447.575C35.3591 447.232 35.5302 446.749 35.5302 446.127V445.498C35.0305 446.075 34.3486 446.364 33.4843 446.364C32.629 446.364 31.9358 446.019 31.4046 445.329C30.8779 444.639 30.6146 443.699 30.6146 442.508ZM31.8705 442.65C31.8705 443.475 32.0393 444.125 32.3769 444.599C32.7145 445.067 33.1872 445.302 33.7949 445.302C34.5826 445.302 35.1611 444.943 35.5302 444.226V440.884C35.1476 440.185 34.5736 439.836 33.8084 439.836C33.2007 439.836 32.7258 440.073 32.3837 440.546C32.0416 441.02 31.8705 441.721 31.8705 442.65ZM42.2081 440.032C42.0191 440.001 41.8142 439.985 41.5937 439.985C40.7744 439.985 40.2185 440.334 39.9259 441.033V446.229H38.6767V438.909H39.8921L39.9123 439.755C40.322 439.101 40.9027 438.774 41.6544 438.774C41.8975 438.774 42.0821 438.806 42.2081 438.869V440.032ZM47.6031 446.229C47.5311 446.084 47.4725 445.828 47.4275 445.458C46.8469 446.062 46.1537 446.364 45.3479 446.364C44.6276 446.364 44.0357 446.161 43.5721 445.755C43.1129 445.345 42.8833 444.826 42.8833 444.199C42.8833 443.437 43.1714 442.847 43.7476 442.427C44.3283 442.003 45.1431 441.791 46.1919 441.791H47.4073V441.216C47.4073 440.779 47.2768 440.431 47.0157 440.174C46.7546 439.913 46.3697 439.782 45.8611 439.782C45.4154 439.782 45.0418 439.894 44.7402 440.12C44.4386 440.346 44.2878 440.618 44.2878 440.939H43.0319C43.0319 440.573 43.1601 440.222 43.4168 439.883C43.6778 439.54 44.029 439.27 44.4701 439.072C44.9157 438.873 45.4042 438.774 45.9353 438.774C46.7771 438.774 47.4365 438.986 47.9137 439.41C48.3909 439.829 48.6385 440.409 48.6564 441.148V444.517C48.6564 445.189 48.742 445.724 48.913 446.12V446.229H47.6031ZM45.5302 445.275C45.9218 445.275 46.2932 445.174 46.6443 444.97C46.9954 444.768 47.2497 444.504 47.4073 444.179V442.677H46.4282C44.8977 442.677 44.1325 443.126 44.1325 444.024C44.1325 444.416 44.263 444.723 44.5241 444.943C44.7852 445.164 45.1206 445.275 45.5302 445.275ZM56.7861 442.65C56.7861 443.764 56.5318 444.661 56.0231 445.343C55.5144 446.024 54.8257 446.364 53.9569 446.364C53.0701 446.364 52.3724 446.082 51.8637 445.519V449.043H50.6146V438.909H51.7557L51.8165 439.721C52.3251 439.09 53.0319 438.774 53.9367 438.774C54.8144 438.774 55.5076 439.105 56.0164 439.769C56.5295 440.431 56.7861 441.354 56.7861 442.535V442.65ZM55.5369 442.508C55.5369 441.683 55.3613 441.031 55.0103 440.553C54.6591 440.075 54.1775 439.836 53.5653 439.836C52.809 439.836 52.2419 440.172 51.8637 440.844V444.341C52.2374 445.009 52.809 445.343 53.5788 445.343C54.1775 445.343 54.6524 445.106 55.0035 444.632C55.3591 444.154 55.5369 443.446 55.5369 442.508ZM59.6286 439.795C60.1823 439.114 60.9025 438.774 61.7893 438.774C63.3335 438.774 64.1125 439.647 64.1257 441.392V446.229H62.8765V441.385C62.8719 440.857 62.7504 440.468 62.5118 440.215C62.2779 439.962 61.9109 439.836 61.4113 439.836C61.0062 439.836 60.6507 439.944 60.3442 440.16C60.0383 440.377 59.7997 440.661 59.6286 441.013V446.229H58.3794V435.838H59.6286V439.795ZM68.3866 444.395L70.0881 438.909H71.4248L68.4875 447.358C68.0328 448.576 67.3103 449.185 66.3204 449.185L66.0836 449.165L65.618 449.077V448.062L65.9557 448.089C66.3786 448.089 66.707 448.003 66.9415 447.832C67.1801 447.66 67.376 447.348 67.5287 446.891L67.8058 446.147L65.1992 438.909H66.563L68.3866 444.395Z" fill="white"/>
<path d="M204.546 45.3164H2.88093C1.44894 45.3164 0.288086 46.4794 0.288086 47.9141V205.508C0.288086 206.943 1.44894 208.106 2.88093 208.106H204.546C205.978 208.106 207.139 206.943 207.139 205.508V47.9141C207.139 46.4794 205.978 45.3164 204.546 45.3164Z" fill="white" stroke="#ECECEC"/>
<path d="M446.544 45.3164H244.879C243.447 45.3164 242.286 46.4794 242.286 47.9141V205.508C242.286 206.943 243.447 208.106 244.879 208.106H446.544C447.976 208.106 449.137 206.943 449.137 205.508V47.9141C449.137 46.4794 447.976 45.3164 446.544 45.3164Z" fill="white" stroke="#ECECEC"/>
<path d="M688.543 45.3164H486.878C485.446 45.3164 484.285 46.4794 484.285 47.9141V205.508C484.285 206.943 485.446 208.106 486.878 208.106H688.543C689.975 208.106 691.136 206.943 691.136 205.508V47.9141C691.136 46.4794 689.975 45.3164 688.543 45.3164Z" fill="white" stroke="#ECECEC"/>
<path d="M626.072 191.364C626.309 190.871 626.533 190.502 626.741 190.255H620.022V189.77H626.741C626.533 189.524 626.309 189.155 626.072 188.662H626.476C626.96 189.224 627.467 189.639 627.997 189.909V190.117C627.467 190.378 626.96 190.794 626.476 191.364H626.072Z" fill="#4B4B4B"/>
<path d="M121.575 243.318H2.88093C1.44894 243.318 0.288086 244.481 0.288086 245.916V378.688C0.288086 380.122 1.44894 381.285 2.88093 381.285H121.575C123.007 381.285 124.168 380.122 124.168 378.688V245.916C124.168 244.481 123.007 243.318 121.575 243.318Z" fill="white" stroke="#ECECEC"/>
<path d="M263.404 243.318H144.709C143.277 243.318 142.116 244.481 142.116 245.916V378.688C142.116 380.122 143.277 381.285 144.709 381.285H263.404C264.835 381.285 265.996 380.122 265.996 378.688V245.916C265.996 244.481 264.835 243.318 263.404 243.318Z" fill="white" stroke="#ECECEC"/>
<path d="M405.232 243.318H286.537C285.105 243.318 283.944 244.481 283.944 245.916V378.688C283.944 380.122 285.105 381.285 286.537 381.285H405.232C406.664 381.285 407.824 380.122 407.824 378.688V245.916C407.824 244.481 406.664 243.318 405.232 243.318Z" fill="white" stroke="#ECECEC"/>
<path d="M547.061 243.318H428.366C426.934 243.318 425.773 244.481 425.773 245.916V378.688C425.773 380.122 426.934 381.285 428.366 381.285H547.061C548.493 381.285 549.654 380.122 549.654 378.688V245.916C549.654 244.481 548.493 243.318 547.061 243.318Z" fill="white" stroke="#ECECEC"/>
<path d="M688.889 243.318H570.194C568.762 243.318 567.602 244.481 567.602 245.916V378.688C567.602 380.122 568.762 381.285 570.194 381.285H688.889C690.321 381.285 691.482 380.122 691.482 378.688V245.916C691.482 244.481 690.321 243.318 688.889 243.318Z" fill="white" stroke="#ECECEC"/>
<path d="M0 47.9137C0 46.3196 1.28984 45.0273 2.88093 45.0273H204.546C206.137 45.0273 207.427 46.3196 207.427 47.9137V172.026H0V47.9137Z" fill="#FF6700"/>
<path d="M241.998 47.9137C241.998 46.3196 243.288 45.0273 244.879 45.0273H446.544C448.135 45.0273 449.425 46.3196 449.425 47.9137V172.026H241.998V47.9137Z" fill="#FF9A55"/>
<path d="M0 245.916C0 244.322 1.28984 243.029 2.88093 243.029H121.575C123.166 243.029 124.456 244.322 124.456 245.916V345.206H0V245.916Z" fill="#121212"/>
<path d="M43.4855 364.832H42L41.5499 367.143H40.7452L41.1954 364.832H39.8506V364.059H41.3417L41.7299 362.064H40.2782V361.28H41.8819L42.3433 358.935H43.1479L42.6865 361.28H44.172L44.6334 358.935H45.4436L44.9823 361.28H46.1301V362.064H44.8303L44.4421 364.059H45.7081V364.832H44.2958L43.8456 367.143H43.0354L43.4855 364.832ZM42.1463 364.059H43.6318L44.02 362.064H42.5346L42.1463 364.059ZM50.384 367.143H49.3374V360.192L47.2386 360.965V360.017L50.2208 358.896H50.384V367.143ZM58.8019 367.143H53.4337V366.393L56.2697 363.236C56.6898 362.759 56.9787 362.372 57.1362 362.075C57.2975 361.774 57.3781 361.464 57.3781 361.145C57.3781 360.716 57.2487 360.365 56.9899 360.091C56.7311 359.816 56.3859 359.679 55.9545 359.679C55.4369 359.679 55.0336 359.827 54.7448 360.125C54.4597 360.418 54.3171 360.827 54.3171 361.354H53.2762C53.2762 360.598 53.5181 359.987 54.0021 359.521C54.4897 359.055 55.1406 358.822 55.9545 358.822C56.716 358.822 57.3181 359.023 57.7607 359.426C58.2032 359.824 58.4245 360.356 58.4245 361.021C58.4245 361.829 57.9111 362.791 56.883 363.907L54.6885 366.292H58.8019V367.143ZM63.3255 367.143H62.2792V360.192L60.1801 360.965V360.017L63.1625 358.896H63.3255V367.143ZM71.7436 367.143H66.3753V366.393L69.2113 363.236C69.6313 362.759 69.9205 362.372 70.0778 362.075C70.2392 361.774 70.3198 361.464 70.3198 361.145C70.3198 360.716 70.1902 360.365 69.9315 360.091C69.6728 359.816 69.3277 359.679 68.8961 359.679C68.3787 359.679 67.9753 359.827 67.6867 360.125C67.4015 360.418 67.2586 360.827 67.2586 361.354H66.218C66.218 360.598 66.46 359.987 66.944 359.521C67.4314 359.055 68.0825 358.822 68.8961 358.822C69.6578 358.822 70.2599 359.023 70.7024 359.426C71.1449 359.824 71.3662 360.356 71.3662 361.021C71.3662 361.829 70.8522 362.791 69.8249 363.907L67.6302 366.292H71.7436V367.143ZM76.2672 367.143H75.2209V360.192L73.1218 360.965V360.017L76.1042 358.896H76.2672V367.143ZM84.6853 367.143H79.317V366.393L82.153 363.236C82.573 362.759 82.8623 362.372 83.0196 362.075C83.1809 361.774 83.2616 361.464 83.2616 361.145C83.2616 360.716 83.1319 360.365 82.8732 360.091C82.6145 359.816 82.2694 359.679 81.8378 359.679C81.3204 359.679 80.9171 359.827 80.6284 360.125C80.3432 360.418 80.2003 360.827 80.2003 361.354H79.1597C79.1597 360.598 79.4017 359.987 79.8857 359.521C80.3731 359.055 81.0237 358.822 81.8378 358.822C82.5995 358.822 83.2016 359.023 83.6442 359.426C84.0867 359.824 84.3079 360.356 84.3079 361.021C84.3079 361.829 83.794 362.791 82.7666 363.907L80.5719 366.292H84.6853V367.143Z" fill="#121212"/>
<path d="M184.075 364.83H182.589L182.139 367.142H181.334L181.784 364.83H180.439V364.058H181.931L182.319 362.062H180.867V361.279H182.471L182.932 358.934H183.737L183.275 361.279H184.761L185.222 358.934H186.032L185.571 361.279H186.719V362.062H185.419L185.031 364.058H186.297V364.83H184.885L184.435 367.142H183.624L184.075 364.83ZM182.735 364.058H184.221L184.609 362.062H183.123L182.735 364.058ZM191.946 364.385H193.083V365.236H191.946V367.142H190.9V365.236H187.169V364.622L190.838 358.934H191.946V364.385ZM188.351 364.385H190.9V360.36L190.776 360.586L188.351 364.385ZM194.293 367.142V358.934H196.971C197.86 358.934 198.528 359.118 198.974 359.486C199.424 359.854 199.65 360.399 199.65 361.121C199.65 361.504 199.541 361.845 199.323 362.141C199.106 362.435 198.809 362.662 198.434 362.824C198.877 362.947 199.225 363.185 199.481 363.534C199.739 363.88 199.869 364.293 199.869 364.774C199.869 365.51 199.631 366.089 199.155 366.51C198.678 366.931 198.005 367.142 197.134 367.142H194.293ZM195.373 363.303V366.257H197.157C197.659 366.257 198.055 366.127 198.344 365.868C198.637 365.605 198.783 365.244 198.783 364.785C198.783 363.797 198.246 363.303 197.174 363.303H195.373ZM195.373 362.435H197.005C197.477 362.435 197.855 362.316 198.136 362.079C198.421 361.842 198.563 361.521 198.563 361.116C198.563 360.664 198.432 360.338 198.17 360.134C197.907 359.928 197.508 359.824 196.971 359.824H195.373V362.435ZM205.597 364.385H206.734V365.236H205.597V367.142H204.551V365.236H200.82V364.622L204.488 358.934H205.597V364.385ZM202.002 364.385H204.551V360.36L204.427 360.586L202.002 364.385ZM207.943 367.142V358.934H210.622C211.511 358.934 212.179 359.118 212.625 359.486C213.075 359.854 213.3 360.399 213.3 361.121C213.3 361.504 213.192 361.845 212.974 362.141C212.756 362.435 212.46 362.662 212.085 362.824C212.527 362.947 212.876 363.185 213.131 363.534C213.39 363.88 213.519 364.293 213.519 364.774C213.519 365.51 213.282 366.089 212.805 366.51C212.329 366.931 211.656 367.142 210.785 367.142H207.943ZM209.023 363.303V366.257H210.807C211.31 366.257 211.706 366.127 211.995 365.868C212.288 365.605 212.433 365.244 212.433 364.785C212.433 363.797 211.897 363.303 210.824 363.303H209.023ZM209.023 362.435H210.656C211.128 362.435 211.505 362.316 211.786 362.079C212.072 361.842 212.214 361.521 212.214 361.116C212.214 360.664 212.083 360.338 211.82 360.134C211.558 359.928 211.158 359.824 210.622 359.824H209.023V362.435ZM219.248 364.385H220.384V365.236H219.248V367.142H218.201V365.236H214.471V364.622L218.139 358.934H219.248V364.385ZM215.652 364.385H218.201V360.36L218.077 360.586L215.652 364.385ZM221.594 367.142V358.934H224.272C225.161 358.934 225.829 359.118 226.276 359.486C226.726 359.854 226.951 360.399 226.951 361.121C226.951 361.504 226.842 361.845 226.624 362.141C226.407 362.435 226.11 362.662 225.735 362.824C226.178 362.947 226.527 363.185 226.782 363.534C227.041 363.88 227.17 364.293 227.17 364.774C227.17 365.51 226.932 366.089 226.455 366.51C225.98 366.931 225.306 367.142 224.436 367.142H221.594ZM222.675 363.303V366.257H224.458C224.961 366.257 225.357 366.127 225.645 365.868C225.938 365.605 226.084 365.244 226.084 364.785C226.084 363.797 225.548 363.303 224.475 363.303H222.675ZM222.675 362.435H224.306C224.779 362.435 225.156 362.316 225.437 362.079C225.723 361.842 225.865 361.521 225.865 361.116C225.865 360.664 225.733 360.338 225.471 360.134C225.209 359.928 224.809 359.824 224.272 359.824H222.675V362.435Z" fill="#121212"/>
<path d="M326.969 364.83H325.484L325.033 367.142H324.229L324.679 364.83H323.334V364.058H324.825L325.214 362.062H323.762V361.279H325.366L325.827 358.934H326.632L326.17 361.279H327.655L328.117 358.934H328.927L328.465 361.279H329.614V362.062H328.314L327.926 364.058H329.191V364.83H327.779L327.329 367.142H326.519L326.969 364.83ZM325.63 364.058H327.115L327.503 362.062H326.018L325.63 364.058ZM335.235 363.517H331.797V367.142H330.717V358.934H335.792V359.824H331.797V362.632H335.235V363.517ZM342.105 359.52L338.712 367.142H337.62L341.002 359.791H336.568V358.934H342.105V359.52ZM348.075 363.517H344.637V367.142H343.557V358.934H348.632V359.824H344.637V362.632H348.075V363.517ZM354.945 359.52L351.553 367.142H350.461L353.842 359.791H349.409V358.934H354.945V359.52ZM360.916 363.517H357.478V367.142H356.397V358.934H361.473V359.824H357.478V362.632H360.916V363.517ZM367.786 359.52L364.393 367.142H363.301L366.683 359.791H362.249V358.934H367.786V359.52Z" fill="#121212"/>
<path d="M468.711 364.832H467.226L466.775 367.143H465.971L466.421 364.832H465.076V364.059H466.567L466.956 362.064H465.504V361.28H467.108L467.569 358.935H468.374L467.912 361.28H469.398L469.859 358.935H470.669L470.208 361.28H471.356V362.064H470.056L469.668 364.059H470.934V364.832H469.521L469.071 367.143H468.261L468.711 364.832ZM467.372 364.059H468.858L469.245 362.064H467.76L467.372 364.059ZM476.977 363.518H473.539V367.143H472.459V358.935H477.534V359.826H473.539V362.633H476.977V363.518ZM482.547 363.535C482.33 363.794 482.069 364.003 481.765 364.161C481.465 364.318 481.135 364.398 480.775 364.398C480.303 364.398 479.89 364.281 479.537 364.048C479.188 363.815 478.919 363.488 478.727 363.067C478.535 362.643 478.44 362.174 478.44 361.664C478.44 361.115 478.543 360.62 478.75 360.181C478.959 359.741 479.256 359.405 479.639 359.172C480.021 358.939 480.467 358.822 480.978 358.822C481.788 358.822 482.426 359.127 482.891 359.736C483.36 360.341 483.594 361.167 483.594 362.216V362.52C483.594 364.118 483.279 365.285 482.649 366.021C482.018 366.754 481.068 367.13 479.796 367.149H479.593V366.269H479.813C480.672 366.254 481.332 366.031 481.794 365.598C482.255 365.162 482.506 364.475 482.547 363.535ZM480.944 363.535C481.293 363.535 481.613 363.428 481.906 363.214C482.202 362.999 482.418 362.734 482.553 362.419V362.002C482.553 361.318 482.405 360.761 482.109 360.333C481.812 359.905 481.437 359.69 480.984 359.69C480.526 359.69 480.158 359.867 479.88 360.22C479.603 360.57 479.464 361.032 479.464 361.607C479.464 362.167 479.597 362.629 479.863 362.994C480.134 363.355 480.494 363.535 480.944 363.535ZM489.818 363.518H486.38V367.143H485.299V358.935H490.374V359.826H486.38V362.633H489.818V363.518ZM495.388 363.535C495.17 363.794 494.909 364.003 494.606 364.161C494.306 364.318 493.975 364.398 493.615 364.398C493.143 364.398 492.73 364.281 492.378 364.048C492.028 363.815 491.759 363.488 491.568 363.067C491.376 362.643 491.281 362.174 491.281 361.664C491.281 361.115 491.384 360.62 491.59 360.181C491.8 359.741 492.096 359.405 492.479 359.172C492.862 358.939 493.308 358.822 493.818 358.822C494.628 358.822 495.266 359.127 495.731 359.736C496.2 360.341 496.435 361.167 496.435 362.216V362.52C496.435 364.118 496.119 365.285 495.489 366.021C494.859 366.754 493.908 367.13 492.636 367.149H492.434V366.269H492.653C493.512 366.254 494.172 366.031 494.634 365.598C495.096 365.162 495.347 364.475 495.388 363.535ZM493.784 363.535C494.133 363.535 494.454 363.428 494.746 363.214C495.043 362.999 495.259 362.734 495.393 362.419V362.002C495.393 361.318 495.245 360.761 494.949 360.333C494.652 359.905 494.277 359.69 493.824 359.69C493.366 359.69 492.998 359.867 492.721 360.22C492.443 360.57 492.305 361.032 492.305 361.607C492.305 362.167 492.438 362.629 492.704 362.994C492.974 363.355 493.334 363.535 493.784 363.535ZM502.658 363.518H499.22V367.143H498.14V358.935H503.215V359.826H499.22V362.633H502.658V363.518ZM508.076 365.001H504.644L503.873 367.143H502.759L505.888 358.935H506.833L509.967 367.143H508.858L508.076 365.001ZM504.97 364.11H507.756L506.36 360.271L504.97 364.11Z" fill="#121212"/>
<path d="M611.028 364.83H609.542L609.092 367.142H608.286L608.741 364.83H607.393V364.058H608.885L609.271 362.062H607.819V361.279H609.426L609.887 358.934H610.688L610.227 361.279H611.714L612.175 358.934H612.987L612.526 361.279H613.673V362.062H612.371L611.985 364.058H613.252V364.83H611.841L611.391 367.142H610.579L611.028 364.83ZM609.692 364.058H611.172L611.564 362.062H610.078L609.692 364.058ZM619.798 359.52L616.404 367.142H615.309L618.692 359.791H614.261V358.934H619.798V359.52ZM625.064 358.928V359.813H624.868C624.062 359.828 623.416 360.068 622.932 360.535C622.454 361.001 622.177 361.656 622.103 362.502C622.535 362.006 623.122 361.758 623.872 361.758C624.58 361.758 625.151 362.01 625.571 362.513C626.003 363.017 626.217 363.667 626.217 364.464C626.217 365.309 625.986 365.986 625.525 366.493C625.064 367.001 624.448 367.254 623.676 367.254C622.892 367.254 622.258 366.953 621.768 366.353C621.284 365.748 621.037 364.969 621.037 364.019V363.618C621.037 362.107 621.359 360.954 621.999 360.157C622.644 359.357 623.606 358.947 624.874 358.928H625.064ZM623.693 362.626C623.336 362.626 623.007 362.733 622.708 362.947C622.408 363.161 622.201 363.43 622.085 363.754V364.137C622.085 364.814 622.235 365.359 622.54 365.772C622.846 366.185 623.226 366.392 623.676 366.392C624.148 366.392 624.517 366.219 624.782 365.873C625.053 365.528 625.185 365.074 625.185 364.515C625.185 363.951 625.047 363.496 624.776 363.15C624.505 362.801 624.142 362.626 623.693 362.626ZM632.739 359.52L629.345 367.142H628.251L631.633 359.791H627.202V358.934H632.739V359.52ZM638.005 358.928V359.813H637.815C637.003 359.828 636.357 360.068 635.879 360.535C635.395 361.001 635.119 361.656 635.044 362.502C635.476 362.006 636.064 361.758 636.813 361.758C637.521 361.758 638.092 362.01 638.518 362.513C638.945 363.017 639.158 363.667 639.158 364.464C639.158 365.309 638.927 365.986 638.466 366.493C638.005 367.001 637.395 367.254 636.617 367.254C635.833 367.254 635.199 366.953 634.71 366.353C634.226 365.748 633.978 364.969 633.978 364.019V363.618C633.978 362.107 634.3 360.954 634.94 360.157C635.585 359.357 636.548 358.947 637.815 358.928H638.005ZM636.634 362.626C636.283 362.626 635.954 362.733 635.655 362.947C635.349 363.161 635.142 363.43 635.027 363.754V364.137C635.027 364.814 635.176 365.359 635.482 365.772C635.787 366.185 636.167 366.392 636.617 366.392C637.089 366.392 637.458 366.219 637.723 365.873C637.994 365.528 638.126 365.074 638.126 364.515C638.126 363.951 637.988 363.496 637.717 363.15C637.447 362.801 637.089 362.626 636.634 362.626ZM645.68 359.52L642.286 367.142H641.192L644.574 359.791H640.143V358.934H645.68V359.52ZM650.947 358.928V359.813H650.756C649.944 359.828 649.299 360.068 648.82 360.535C648.336 361.001 648.06 361.656 647.985 362.502C648.417 362.006 649.005 361.758 649.754 361.758C650.463 361.758 651.033 362.01 651.459 362.513C651.886 363.017 652.099 363.667 652.099 364.464C652.099 365.309 651.868 365.986 651.408 366.493C650.947 367.001 650.336 367.254 649.564 367.254C648.78 367.254 648.141 366.953 647.657 366.353C647.167 365.748 646.925 364.969 646.925 364.019V363.618C646.925 362.107 647.242 360.954 647.887 360.157C648.532 359.357 649.489 358.947 650.762 358.928H650.947ZM649.581 362.626C649.224 362.626 648.895 362.733 648.596 362.947C648.296 363.161 648.083 363.43 647.968 363.754V364.137C647.968 364.814 648.123 365.359 648.423 365.772C648.728 366.185 649.109 366.392 649.564 366.392C650.03 366.392 650.399 366.219 650.664 365.873C650.935 365.528 651.068 365.074 651.068 364.515C651.068 363.951 650.935 363.496 650.658 363.15C650.388 362.801 650.03 362.626 649.581 362.626Z" fill="#121212"/>
<path d="M141.828 245.916C141.828 244.322 143.118 243.029 144.709 243.029H263.403C264.994 243.029 266.284 244.322 266.284 245.916V345.206H141.828V245.916Z" fill="#4B4B4B"/>
<path d="M283.656 245.916C283.656 244.322 284.946 243.029 286.537 243.029H405.232C406.822 243.029 408.113 244.322 408.113 245.916V345.206H283.656V245.916Z" fill="#F7F7F7"/>
<path d="M425.485 245.916C425.485 244.322 426.775 243.029 428.366 243.029H547.061C548.652 243.029 549.942 244.322 549.942 245.916V345.206H425.485V245.916Z" fill="#F9F9FA"/>
<path d="M567.313 245.916C567.313 244.322 568.604 243.029 570.194 243.029H688.889C690.479 243.029 691.77 244.322 691.77 245.916V345.206H567.313V245.916Z" fill="#767676"/>
<path d="M483.997 47.9137C483.997 46.3196 485.287 45.0273 486.878 45.0273H688.543C690.134 45.0273 691.424 46.3196 691.424 47.9137V172.026H483.997V47.9137Z" fill="url(#paint0_linear_2722_46)"/>
<path d="M13.555 190.748V193.961H12.4746V185.753H15.4962C16.3927 185.753 17.0942 185.982 17.6007 186.441C18.1108 186.9 18.3659 187.506 18.3659 188.262C18.3659 189.059 18.1165 189.673 17.6175 190.105C17.1224 190.534 16.4115 190.748 15.485 190.748H13.555ZM13.555 189.863H15.4962C16.0739 189.863 16.5166 189.728 16.8241 189.457C17.1318 189.183 17.2855 188.788 17.2855 188.273C17.2855 187.785 17.1318 187.394 16.8241 187.101C16.5166 186.807 16.0945 186.655 15.5581 186.644H13.555V189.863ZM22.5241 188.798C22.3666 188.771 22.1959 188.758 22.0121 188.758C21.3293 188.758 20.8661 189.049 20.6222 189.632V193.961H19.5813V187.862H20.5941L20.611 188.566C20.9523 188.021 21.4363 187.749 22.0627 187.749C22.2653 187.749 22.4191 187.775 22.5241 187.828V188.798ZM24.6173 193.961H23.5763V187.862H24.6173V193.961ZM23.4919 186.244C23.4919 186.075 23.5426 185.932 23.6439 185.816C23.7489 185.699 23.9027 185.641 24.1052 185.641C24.3078 185.641 24.4616 185.699 24.5666 185.816C24.6717 185.932 24.7242 186.075 24.7242 186.244C24.7242 186.413 24.6717 186.554 24.5666 186.666C24.4616 186.78 24.3078 186.836 24.1052 186.836C23.9027 186.836 23.7489 186.78 23.6439 186.666C23.5426 186.554 23.4919 186.413 23.4919 186.244ZM27.2675 187.862L27.2956 188.538C27.7421 188.012 28.3441 187.749 29.1019 187.749C29.9534 187.749 30.5329 188.076 30.8406 188.73C31.0431 188.437 31.3057 188.2 31.6283 188.02C31.9547 187.839 32.3392 187.749 32.7818 187.749C34.1172 187.749 34.7962 188.457 34.8187 189.874V193.961H33.7777V189.936C33.7777 189.5 33.6783 189.175 33.4795 188.961C33.2807 188.743 32.9469 188.634 32.478 188.634C32.0916 188.634 31.7709 188.75 31.5158 188.984C31.2607 189.213 31.1125 189.523 31.0713 189.914V193.961H30.0247V189.964C30.0247 189.078 29.5914 188.634 28.7249 188.634C28.0421 188.634 27.5751 188.925 27.3238 189.508V193.961H26.2828V187.862H27.2675ZM40.1529 193.961C40.0929 193.841 40.0442 193.627 40.0067 193.319C39.5228 193.822 38.945 194.074 38.2736 194.074C37.6734 194.074 37.1801 193.905 36.7937 193.567C36.4111 193.225 36.2198 192.792 36.2198 192.27C36.2198 191.635 36.4599 191.143 36.94 190.793C37.4239 190.44 38.1029 190.263 38.9769 190.263H39.9898V189.784C39.9898 189.419 39.881 189.13 39.6634 188.916C39.4458 188.698 39.1251 188.589 38.7012 188.589C38.3298 188.589 38.0185 188.683 37.7672 188.871C37.5159 189.059 37.3902 189.286 37.3902 189.553H36.3436C36.3436 189.249 36.4505 188.955 36.6643 188.674C36.8819 188.388 37.1745 188.162 37.5421 187.997C37.9135 187.832 38.3205 187.749 38.7631 187.749C39.4646 187.749 40.0141 187.925 40.4118 188.279C40.8094 188.629 41.0157 189.111 41.0307 189.728V192.535C41.0307 193.095 41.102 193.541 41.2445 193.871V193.961H40.1529ZM38.4255 193.166C38.7519 193.166 39.0614 193.082 39.3539 192.913C39.6465 192.744 39.8585 192.524 39.9898 192.253V191.002H39.1739C37.8984 191.002 37.2608 191.376 37.2608 192.123C37.2608 192.451 37.3696 192.706 37.5871 192.891C37.8047 193.075 38.0841 193.166 38.4255 193.166ZM45.6053 188.798C45.4478 188.771 45.2771 188.758 45.0933 188.758C44.4106 188.758 43.9473 189.049 43.7035 189.632V193.961H42.6625V187.862H43.6753L43.6922 188.566C44.0336 188.021 44.5175 187.749 45.1439 187.749C45.3465 187.749 45.5003 187.775 45.6053 187.828V188.798ZM48.6607 192.434L50.0787 187.862H51.1928L48.7451 194.903C48.3663 195.918 47.7641 196.425 46.9389 196.425L46.7419 196.408L46.3537 196.335V195.489L46.635 195.512C46.9877 195.512 47.2615 195.44 47.4566 195.297C47.6554 195.155 47.8185 194.894 47.9461 194.514L48.1768 193.894L46.0049 187.862H47.1415L48.6607 192.434Z" fill="#121212"/>
<path d="M256.887 190.303C255.96 190.036 255.285 189.709 254.861 189.322C254.441 188.931 254.23 188.45 254.23 187.879C254.23 187.233 254.487 186.699 255.001 186.278C255.519 185.853 256.191 185.641 257.016 185.641C257.579 185.641 258.079 185.75 258.518 185.968C258.961 186.186 259.303 186.487 259.542 186.87C259.786 187.253 259.908 187.672 259.908 188.127H258.822C258.822 187.631 258.665 187.242 258.35 186.96C258.034 186.674 257.59 186.532 257.016 186.532C256.483 186.532 256.067 186.65 255.766 186.887C255.47 187.12 255.322 187.445 255.322 187.862C255.322 188.197 255.463 188.481 255.744 188.713C256.029 188.942 256.512 189.153 257.19 189.345C257.873 189.536 258.406 189.749 258.789 189.982C259.175 190.211 259.46 190.48 259.644 190.788C259.831 191.096 259.925 191.459 259.925 191.876C259.925 192.541 259.666 193.075 259.149 193.477C258.631 193.875 257.939 194.074 257.072 194.074C256.51 194.074 255.984 193.968 255.497 193.753C255.009 193.535 254.632 193.238 254.366 192.863C254.103 192.487 253.972 192.06 253.972 191.583H255.058C255.058 192.079 255.24 192.472 255.603 192.761C255.971 193.047 256.461 193.189 257.072 193.189C257.643 193.189 258.079 193.073 258.384 192.84C258.687 192.607 258.839 192.289 258.839 191.887C258.839 191.485 258.698 191.175 258.417 190.957C258.136 190.735 257.625 190.517 256.887 190.303ZM263.678 194.074C262.853 194.074 262.181 193.804 261.664 193.263C261.146 192.718 260.887 191.99 260.887 191.081V190.89C260.887 190.285 261.002 189.745 261.23 189.271C261.463 188.794 261.785 188.422 262.198 188.155C262.614 187.885 263.064 187.749 263.548 187.749C264.34 187.749 264.956 188.011 265.394 188.533C265.833 189.056 266.053 189.803 266.053 190.776V191.211H261.928C261.943 191.812 262.118 192.299 262.451 192.671C262.789 193.039 263.217 193.223 263.735 193.223C264.102 193.223 264.413 193.148 264.669 192.998C264.923 192.848 265.147 192.648 265.338 192.4L265.974 192.896C265.464 193.682 264.699 194.074 263.678 194.074ZM263.548 188.606C263.128 188.606 262.776 188.761 262.491 189.068C262.206 189.373 262.03 189.801 261.962 190.354H265.011V190.275C264.981 189.745 264.839 189.336 264.584 189.046C264.329 188.753 263.984 188.606 263.548 188.606ZM269.704 193.223C270.076 193.223 270.4 193.11 270.678 192.885C270.955 192.659 271.109 192.378 271.139 192.039H272.124C272.105 192.389 271.985 192.722 271.764 193.037C271.542 193.353 271.246 193.605 270.875 193.793C270.507 193.981 270.117 194.074 269.704 194.074C268.875 194.074 268.215 193.798 267.724 193.246C267.236 192.689 266.992 191.93 266.992 190.968V190.794C266.992 190.2 267.101 189.672 267.318 189.21C267.536 188.747 267.847 188.388 268.252 188.133C268.662 187.877 269.144 187.749 269.699 187.749C270.381 187.749 270.948 187.954 271.398 188.364C271.852 188.773 272.094 189.306 272.124 189.959H271.139C271.109 189.565 270.959 189.241 270.689 188.99C270.423 188.734 270.093 188.606 269.699 188.606C269.17 188.606 268.759 188.798 268.467 189.181C268.178 189.561 268.034 190.111 268.034 190.833V191.03C268.034 191.733 268.178 192.274 268.467 192.654C268.755 193.034 269.168 193.223 269.704 193.223ZM273.019 190.855C273.019 190.258 273.135 189.721 273.367 189.243C273.604 188.766 273.93 188.397 274.347 188.138C274.767 187.879 275.245 187.749 275.781 187.749C276.611 187.749 277.28 188.037 277.79 188.612C278.304 189.187 278.561 189.951 278.561 190.906V190.98C278.561 191.574 278.446 192.107 278.218 192.58C277.993 193.05 277.668 193.417 277.244 193.68C276.824 193.943 276.34 194.074 275.792 194.074C274.967 194.074 274.298 193.787 273.784 193.212C273.274 192.637 273.019 191.876 273.019 190.929V190.855ZM274.065 190.98C274.065 191.656 274.221 192.199 274.532 192.609C274.847 193.019 275.268 193.223 275.792 193.223C276.321 193.223 276.741 193.017 277.053 192.603C277.364 192.186 277.52 191.604 277.52 190.855C277.52 190.186 277.361 189.646 277.042 189.232C276.726 188.815 276.306 188.606 275.781 188.606C275.268 188.606 274.853 188.811 274.538 189.221C274.223 189.631 274.065 190.216 274.065 190.98ZM280.851 187.862L280.885 188.629C281.35 188.042 281.958 187.749 282.708 187.749C283.994 187.749 284.644 188.477 284.655 189.931V193.962H283.614V189.926C283.61 189.486 283.509 189.161 283.31 188.95C283.115 188.74 282.809 188.634 282.393 188.634C282.055 188.634 281.759 188.725 281.504 188.905C281.249 189.086 281.05 189.322 280.907 189.616V193.962H279.867V187.862H280.851ZM285.971 190.861C285.971 189.926 286.193 189.174 286.636 188.606C287.078 188.035 287.658 187.749 288.374 187.749C289.087 187.749 289.651 187.993 290.068 188.482V185.303H291.109V193.962H290.152L290.101 193.308C289.685 193.819 289.106 194.074 288.363 194.074C287.658 194.074 287.082 193.785 286.636 193.206C286.193 192.628 285.971 191.872 285.971 190.94V190.861ZM287.012 190.98C287.012 191.671 287.155 192.212 287.44 192.603C287.725 192.994 288.119 193.189 288.622 193.189C289.282 193.189 289.764 192.893 290.068 192.299V189.497C289.756 188.922 289.278 188.634 288.633 188.634C288.123 188.634 287.725 188.832 287.44 189.226C287.155 189.621 287.012 190.205 287.012 190.98ZM296.488 193.962C296.428 193.842 296.38 193.628 296.342 193.319C295.858 193.823 295.28 194.074 294.609 194.074C294.009 194.074 293.515 193.905 293.129 193.567C292.746 193.225 292.555 192.793 292.555 192.27C292.555 191.635 292.795 191.143 293.275 190.794C293.759 190.44 294.438 190.264 295.312 190.264H296.325V189.785C296.325 189.42 296.216 189.131 295.999 188.916C295.781 188.698 295.46 188.589 295.036 188.589C294.665 188.589 294.354 188.683 294.102 188.871C293.851 189.059 293.725 189.286 293.725 189.553H292.679C292.679 189.249 292.786 188.956 293 188.674C293.217 188.388 293.51 188.163 293.877 187.997C294.249 187.832 294.656 187.749 295.098 187.749C295.8 187.749 296.349 187.926 296.747 188.279C297.145 188.629 297.351 189.112 297.366 189.728V192.535C297.366 193.095 297.437 193.541 297.58 193.872V193.962H296.488ZM294.76 193.167C295.087 193.167 295.397 193.083 295.689 192.913C295.981 192.744 296.193 192.524 296.325 192.254V191.002H295.509C294.234 191.002 293.596 191.376 293.596 192.124C293.596 192.451 293.705 192.707 293.922 192.891C294.14 193.075 294.419 193.167 294.76 193.167ZM301.94 188.798C301.783 188.772 301.612 188.758 301.429 188.758C300.746 188.758 300.283 189.05 300.038 189.632V193.962H298.998V187.862H300.011L300.027 188.567C300.368 188.022 300.852 187.749 301.479 187.749C301.682 187.749 301.835 187.776 301.94 187.828V188.798ZM304.996 192.434L306.414 187.862H307.528L305.08 194.903C304.701 195.918 304.099 196.426 303.274 196.426L303.077 196.408L302.689 196.335V195.489L302.97 195.512C303.323 195.512 303.597 195.441 303.792 195.298C303.99 195.155 304.153 194.894 304.281 194.514L304.512 193.894L302.34 187.862H303.476L304.996 192.434Z" fill="#121212"/>
<path d="M502.52 192.885C502.243 193.283 501.855 193.582 501.356 193.782C500.861 193.977 500.283 194.074 499.623 194.074C498.955 194.074 498.363 193.918 497.845 193.607C497.327 193.291 496.926 192.844 496.64 192.265C496.359 191.686 496.215 191.015 496.207 190.252V189.536C496.207 188.3 496.494 187.342 497.068 186.662C497.646 185.981 498.456 185.641 499.499 185.641C500.354 185.641 501.042 185.861 501.564 186.301C502.085 186.737 502.405 187.357 502.52 188.161H501.44C501.238 187.075 500.592 186.532 499.505 186.532C498.781 186.532 498.231 186.787 497.856 187.298C497.484 187.806 497.297 188.542 497.293 189.508V190.179C497.293 191.1 497.503 191.833 497.923 192.378C498.344 192.919 498.912 193.189 499.628 193.189C500.034 193.189 500.388 193.144 500.692 193.054C500.996 192.964 501.247 192.812 501.446 192.598V190.754H499.55V189.875H502.52V192.885ZM507.106 188.798C506.949 188.772 506.778 188.758 506.595 188.758C505.912 188.758 505.449 189.05 505.205 189.632V193.962H504.164V187.862H505.177L505.193 188.567C505.535 188.022 506.018 187.749 506.645 187.749C506.847 187.749 507.001 187.776 507.106 187.828V188.798ZM511.602 193.962C511.542 193.842 511.493 193.628 511.456 193.319C510.972 193.823 510.395 194.074 509.723 194.074C509.123 194.074 508.63 193.905 508.243 193.567C507.86 193.225 507.669 192.793 507.669 192.27C507.669 191.635 507.909 191.143 508.389 190.794C508.873 190.44 509.552 190.264 510.426 190.264H511.439V189.785C511.439 189.42 511.33 189.131 511.113 188.916C510.895 188.698 510.574 188.589 510.151 188.589C509.779 188.589 509.468 188.683 509.217 188.871C508.965 189.059 508.839 189.286 508.839 189.553H507.793C507.793 189.249 507.9 188.956 508.113 188.674C508.331 188.388 508.624 188.163 508.991 187.997C509.363 187.832 509.77 187.749 510.212 187.749C510.914 187.749 511.463 187.926 511.861 188.279C512.258 188.629 512.465 189.112 512.48 189.728V192.535C512.48 193.095 512.551 193.541 512.694 193.872V193.962H511.602ZM509.875 193.167C510.201 193.167 510.511 193.083 510.803 192.913C511.096 192.744 511.308 192.524 511.439 192.254V191.002H510.623C509.348 191.002 508.71 191.376 508.71 192.124C508.71 192.451 508.819 192.707 509.036 192.891C509.254 193.075 509.534 193.167 509.875 193.167ZM513.859 190.861C513.859 189.925 514.08 189.174 514.523 188.606C514.965 188.035 515.545 187.749 516.261 187.749C516.974 187.749 517.539 187.993 517.955 188.482V185.303H518.996V193.962H518.039L517.989 193.308C517.572 193.819 516.993 194.074 516.25 194.074C515.545 194.074 514.969 193.785 514.523 193.206C514.08 192.628 513.859 191.872 513.859 190.94V190.861ZM514.9 190.98C514.9 191.671 515.042 192.212 515.327 192.603C515.612 192.994 516.006 193.189 516.509 193.189C517.169 193.189 517.651 192.893 517.955 192.299V189.497C517.643 188.922 517.165 188.634 516.52 188.634C516.01 188.634 515.612 188.832 515.327 189.226C515.042 189.621 514.9 190.205 514.9 190.98ZM521.748 193.962H520.707V187.862H521.748V193.962ZM520.622 186.244C520.622 186.075 520.673 185.932 520.774 185.816C520.879 185.699 521.033 185.641 521.235 185.641C521.438 185.641 521.592 185.699 521.697 185.816C521.802 185.932 521.854 186.075 521.854 186.244C521.854 186.413 521.802 186.554 521.697 186.667C521.592 186.78 521.438 186.836 521.235 186.836C521.033 186.836 520.879 186.78 520.774 186.667C520.673 186.554 520.622 186.413 520.622 186.244ZM525.945 194.074C525.12 194.074 524.448 193.804 523.931 193.263C523.413 192.718 523.154 191.99 523.154 191.081V190.89C523.154 190.285 523.269 189.745 523.498 189.271C523.73 188.794 524.052 188.422 524.465 188.155C524.882 187.885 525.332 187.749 525.816 187.749C526.607 187.749 527.223 188.011 527.661 188.533C528.1 189.056 528.32 189.803 528.32 190.776V191.211H524.195C524.21 191.812 524.384 192.299 524.719 192.671C525.056 193.039 525.484 193.223 526.001 193.223C526.369 193.223 526.68 193.148 526.935 192.998C527.19 192.848 527.414 192.648 527.605 192.4L528.241 192.896C527.731 193.682 526.966 194.074 525.945 194.074ZM525.816 188.606C525.396 188.606 525.043 188.761 524.758 189.068C524.472 189.373 524.296 189.801 524.229 190.354H527.279V190.275C527.249 189.745 527.106 189.336 526.851 189.046C526.596 188.753 526.251 188.606 525.816 188.606ZM530.514 187.862L530.548 188.629C531.013 188.042 531.621 187.749 532.371 187.749C533.657 187.749 534.306 188.477 534.318 189.931V193.962H533.277V189.925C533.273 189.486 533.172 189.161 532.973 188.95C532.778 188.74 532.472 188.634 532.056 188.634C531.718 188.634 531.422 188.725 531.167 188.905C530.912 189.086 530.713 189.322 530.57 189.616V193.962H529.529V187.862H530.514ZM537.3 186.385V187.862H538.436V188.668H537.3V192.451C537.3 192.695 537.351 192.879 537.452 193.003C537.553 193.124 537.726 193.184 537.97 193.184C538.089 193.184 538.255 193.161 538.465 193.116V193.962C538.191 194.037 537.925 194.074 537.666 194.074C537.2 194.074 536.85 193.933 536.613 193.652C536.377 193.37 536.259 192.969 536.259 192.451V188.668H535.15V187.862H536.259V186.385H537.3Z" fill="#121212"/>
<path d="M154.114 191.65H152.628L152.178 193.961H151.373L151.823 191.65H150.479V190.878H151.97L152.358 188.882H150.906V188.099H152.51L152.971 185.753H153.776L153.315 188.099H154.8L155.261 185.753H156.072L155.61 188.099H156.758V188.882H155.458L155.07 190.878H156.336V191.65H154.924L154.474 193.961H153.663L154.114 191.65ZM152.774 190.878H154.26L154.648 188.882H153.162L152.774 190.878ZM162.379 190.337H158.942V193.961H157.861V185.753H162.936V186.644H158.942V189.452H162.379V190.337ZM168.749 190.337H165.311V193.961H164.23V185.753H169.306V186.644H165.311V189.452H168.749V190.337ZM174.415 185.747V186.633H174.224C173.414 186.648 172.768 186.888 172.288 187.355C171.808 187.82 171.531 188.476 171.455 189.322C171.887 188.826 172.476 188.578 173.222 188.578C173.935 188.578 174.503 188.829 174.927 189.333C175.355 189.837 175.569 190.487 175.569 191.283C175.569 192.129 175.338 192.806 174.877 193.313C174.419 193.821 173.804 194.074 173.031 194.074C172.247 194.074 171.611 193.773 171.123 193.172C170.636 192.567 170.392 191.789 170.392 190.838V190.438C170.392 188.927 170.712 187.774 171.354 186.976C171.999 186.176 172.958 185.766 174.23 185.747H174.415ZM173.048 189.446C172.692 189.446 172.363 189.553 172.063 189.767C171.763 189.981 171.555 190.25 171.438 190.573V190.957C171.438 191.633 171.591 192.178 171.894 192.592C172.198 193.005 172.577 193.211 173.031 193.211C173.5 193.211 173.868 193.039 174.134 192.693C174.404 192.347 174.539 191.894 174.539 191.334C174.539 190.771 174.402 190.316 174.128 189.97C173.858 189.62 173.498 189.446 173.048 189.446ZM182.09 186.34L178.697 193.961H177.605L180.987 186.61H176.553V185.753H182.09V186.34ZM188.409 190.461C188.409 191.682 188.201 192.59 187.784 193.183C187.368 193.777 186.717 194.074 185.832 194.074C184.958 194.074 184.311 193.785 183.89 193.206C183.47 192.623 183.253 191.755 183.238 190.602V189.209C183.238 188.003 183.446 187.106 183.863 186.52C184.279 185.934 184.932 185.641 185.821 185.641C186.702 185.641 187.351 185.924 187.768 186.492C188.184 187.056 188.398 187.928 188.409 189.108V190.461ZM187.368 189.034C187.368 188.151 187.244 187.509 186.997 187.106C186.749 186.7 186.357 186.497 185.821 186.497C185.288 186.497 184.9 186.699 184.656 187.101C184.412 187.503 184.286 188.121 184.279 188.955V190.624C184.279 191.511 184.407 192.167 184.661 192.592C184.921 193.012 185.311 193.223 185.832 193.223C186.346 193.223 186.726 193.024 186.974 192.626C187.225 192.227 187.357 191.599 187.368 190.743V189.034ZM194.88 190.461C194.88 191.682 194.671 192.59 194.255 193.183C193.839 193.777 193.188 194.074 192.303 194.074C191.429 194.074 190.782 193.785 190.362 193.206C189.942 192.623 189.724 191.755 189.709 190.602V189.209C189.709 188.003 189.917 187.106 190.333 186.52C190.75 185.934 191.403 185.641 192.291 185.641C193.173 185.641 193.822 185.924 194.238 186.492C194.655 187.056 194.868 187.928 194.88 189.108V190.461ZM193.839 189.034C193.839 188.151 193.715 187.509 193.467 187.106C193.22 186.7 192.828 186.497 192.291 186.497C191.759 186.497 191.37 186.699 191.127 187.101C190.883 187.503 190.757 188.121 190.75 188.955V190.624C190.75 191.511 190.877 192.167 191.133 192.592C191.391 193.012 191.781 193.223 192.303 193.223C192.817 193.223 193.198 193.024 193.445 192.626C193.697 192.227 193.827 191.599 193.839 190.743V189.034Z" fill="#4B4B4B"/>
<path d="M394.959 191.65H393.474L393.023 193.961H392.219L392.669 191.65H391.324V190.878H392.815L393.204 188.882H391.752V188.099H393.356L393.817 185.753H394.622L394.16 188.099H395.646L396.107 185.753H396.917L396.456 188.099H397.604V188.882H396.304L395.916 190.878H397.182V191.65H395.77L395.32 193.961H394.509L394.959 191.65ZM393.62 190.878H395.106L395.494 188.882H394.008L393.62 190.878ZM403.225 190.337H399.787V193.961H398.707V185.753H403.782V186.644H399.787V189.452H403.225V190.337ZM409.594 190.337H406.156V193.961H405.076V185.753H410.152V186.644H406.156V189.452H409.594V190.337ZM415.165 190.353C414.947 190.613 414.687 190.822 414.383 190.979C414.083 191.137 413.753 191.216 413.393 191.216C412.92 191.216 412.507 191.099 412.155 190.867C411.806 190.633 411.536 190.307 411.344 189.885C411.153 189.461 411.057 188.993 411.057 188.482C411.057 187.933 411.161 187.439 411.367 186.999C411.577 186.56 411.873 186.223 412.256 185.99C412.638 185.757 413.085 185.641 413.595 185.641C414.406 185.641 415.043 185.945 415.508 186.554C415.977 187.159 416.211 187.985 416.211 189.034V189.339C416.211 190.936 415.897 192.103 415.266 192.84C414.636 193.572 413.685 193.948 412.414 193.967H412.211V193.087H412.431C413.29 193.072 413.95 192.849 414.411 192.417C414.872 191.981 415.124 191.293 415.165 190.353ZM413.562 190.353C413.91 190.353 414.231 190.246 414.524 190.032C414.82 189.818 415.035 189.553 415.171 189.237V188.82C415.171 188.136 415.023 187.58 414.726 187.151C414.43 186.723 414.055 186.509 413.601 186.509C413.143 186.509 412.776 186.685 412.498 187.039C412.22 187.388 412.082 187.85 412.082 188.425C412.082 188.985 412.215 189.448 412.481 189.812C412.751 190.173 413.112 190.353 413.562 190.353ZM422.441 191.819H419.008L418.237 193.961H417.124L420.252 185.753H421.197L424.331 193.961H423.222L422.441 191.819ZM419.334 190.928H422.12L420.725 187.09L419.334 190.928ZM425.642 189.846L426.058 185.753H430.256V186.717H426.942L426.695 188.955C427.096 188.719 427.551 188.6 428.062 188.6C428.808 188.6 429.401 188.849 429.84 189.344C430.279 189.837 430.498 190.504 430.498 191.346C430.498 192.191 430.269 192.858 429.812 193.347C429.358 193.831 428.722 194.074 427.904 194.074C427.18 194.074 426.59 193.873 426.132 193.471C425.674 193.069 425.414 192.512 425.35 191.802H426.334C426.398 192.272 426.565 192.627 426.835 192.867C427.105 193.105 427.461 193.223 427.904 193.223C428.388 193.223 428.767 193.057 429.041 192.727C429.318 192.396 429.457 191.939 429.457 191.357C429.457 190.808 429.307 190.368 429.007 190.038C428.711 189.703 428.315 189.536 427.82 189.536C427.366 189.536 427.01 189.636 426.75 189.835L426.475 190.06L425.642 189.846ZM432.113 189.846L432.53 185.753H436.727V186.717H433.413L433.165 188.955C433.567 188.719 434.022 188.6 434.532 188.6C435.279 188.6 435.872 188.849 436.311 189.344C436.75 189.837 436.969 190.504 436.969 191.346C436.969 192.191 436.74 192.858 436.282 193.347C435.829 193.831 435.193 194.074 434.375 194.074C433.651 194.074 433.06 193.873 432.603 193.471C432.145 193.069 431.884 192.512 431.82 191.802H432.805C432.869 192.272 433.036 192.627 433.306 192.867C433.576 193.105 433.933 193.223 434.375 193.223C434.859 193.223 435.238 193.057 435.512 192.727C435.789 192.396 435.928 191.939 435.928 191.357C435.928 190.808 435.778 190.368 435.478 190.038C435.182 189.703 434.786 189.536 434.29 189.536C433.837 189.536 433.48 189.636 433.222 189.835L432.946 190.06L432.113 189.846Z" fill="#4B4B4B"/>
<path d="M636.957 191.65H635.47L635.021 193.961H634.214L634.67 191.65H633.321V190.878H634.814L635.2 188.882H633.748V188.099H635.355L635.816 185.753H636.617L636.156 188.099H637.643L638.104 185.753H638.916L638.455 188.099H639.602V188.882H638.3L637.913 190.878H639.181V191.65H637.769L637.32 193.961H636.508L636.957 191.65ZM635.62 190.878H637.101L637.493 188.882H636.006L635.62 190.878ZM645.225 190.337H641.785V193.961H640.702V185.753H645.778V186.644H641.785V189.452H645.225V190.337ZM651.592 190.337H648.152V193.961H647.075V185.753H652.151V186.644H648.152V189.452H651.592V190.337ZM657.164 190.353C656.945 190.613 656.686 190.822 656.38 190.979C656.081 191.137 655.752 191.216 655.389 191.216C654.917 191.216 654.508 191.099 654.15 190.867C653.805 190.633 653.534 190.307 653.344 189.885C653.154 189.461 653.056 188.993 653.056 188.482C653.056 187.933 653.159 187.439 653.367 186.999C653.574 186.56 653.874 186.223 654.254 185.99C654.634 185.757 655.084 185.641 655.591 185.641C656.403 185.641 657.043 185.945 657.504 186.554C657.976 187.159 658.212 187.985 658.212 189.034V189.339C658.212 190.936 657.896 192.103 657.262 192.84C656.634 193.572 655.683 193.948 654.41 193.967H654.208V193.087H654.427C655.285 193.072 655.948 192.849 656.409 192.417C656.87 191.981 657.123 191.293 657.164 190.353ZM655.562 190.353C655.908 190.353 656.23 190.246 656.524 190.032C656.818 189.818 657.031 189.553 657.17 189.237V188.82C657.17 188.136 657.02 187.58 656.726 187.151C656.426 186.723 656.052 186.509 655.597 186.509C655.141 186.509 654.773 186.685 654.496 187.039C654.22 187.388 654.081 187.85 654.081 188.425C654.081 188.985 654.214 189.448 654.479 189.812C654.75 190.173 655.107 190.353 655.562 190.353ZM664.441 191.819H661.007L660.235 193.961H659.123L662.251 185.753H663.196L666.331 193.961H665.219L664.441 191.819ZM661.335 190.928H664.118L662.724 187.09L661.335 190.928ZM667.639 189.846L668.059 185.753H672.254V186.717H668.941L668.693 188.955C669.097 188.719 669.552 188.6 670.059 188.6C670.808 188.6 671.401 188.849 671.839 189.344C672.277 189.837 672.496 190.504 672.496 191.346C672.496 192.191 672.266 192.858 671.81 193.347C671.355 193.831 670.721 194.074 669.903 194.074C669.177 194.074 668.589 193.873 668.129 193.471C667.673 193.069 667.414 192.512 667.345 191.802H668.33C668.394 192.272 668.561 192.627 668.832 192.867C669.102 193.105 669.46 193.223 669.903 193.223C670.387 193.223 670.768 193.057 671.038 192.727C671.315 192.396 671.453 191.939 671.453 191.357C671.453 190.808 671.303 190.368 671.004 190.038C670.71 189.703 670.312 189.536 669.817 189.536C669.362 189.536 669.01 189.636 668.751 189.835L668.474 190.06L667.639 189.846ZM674.109 189.846L674.53 185.753H678.725V186.717H675.412L675.164 188.955C675.567 188.719 676.022 188.6 676.529 188.6C677.278 188.6 677.872 188.849 678.31 189.344C678.748 189.837 678.967 190.504 678.967 191.346C678.967 192.191 678.736 192.858 678.281 193.347C677.826 193.831 677.192 194.074 676.374 194.074C675.648 194.074 675.06 193.873 674.599 193.471C674.144 193.069 673.885 192.512 673.821 191.802H674.801C674.864 192.272 675.031 192.627 675.302 192.867C675.573 193.105 675.93 193.223 676.374 193.223C676.858 193.223 677.238 193.057 677.509 192.727C677.785 192.396 677.924 191.939 677.924 191.357C677.924 190.808 677.774 190.368 677.474 190.038C677.18 189.703 676.783 189.536 676.287 189.536C675.832 189.536 675.481 189.636 675.221 189.835L674.945 190.06L674.109 189.846Z" fill="#4B4B4B"/>
<path d="M573.577 191.65H572.091L571.641 193.961H570.836L571.286 191.65H569.941V190.878H571.433L571.821 188.882H570.369V188.099H571.973L572.434 185.753H573.239L572.777 188.099H574.263L574.724 185.753H575.534L575.073 188.099H576.221V188.882H574.921L574.533 190.878H575.799V191.65H574.387L573.937 193.961H573.126L573.577 191.65ZM572.237 190.878H573.723L574.111 188.882H572.625L572.237 190.878ZM581.844 190.337H578.404V193.961H577.321V185.753H582.397V186.644H578.404V189.452H581.844V190.337ZM588.211 190.337H584.771V193.961H583.694V185.753H588.77V186.644H584.771V189.452H588.211V190.337ZM593.881 185.747V186.633H593.685C592.878 186.648 592.233 186.888 591.749 187.355C591.271 187.82 590.994 188.476 590.919 189.322C591.351 188.826 591.939 188.578 592.682 188.578C593.397 188.578 593.967 188.829 594.388 189.333C594.82 189.837 595.033 190.487 595.033 191.283C595.033 192.129 594.803 192.806 594.342 193.313C593.881 193.821 593.264 194.074 592.492 194.074C591.709 194.074 591.075 193.773 590.585 193.172C590.101 192.567 589.853 191.789 589.853 190.838V190.438C589.853 188.927 590.176 187.774 590.816 186.976C591.461 186.176 592.423 185.766 593.691 185.747H593.881ZM592.509 189.446C592.152 189.446 591.824 189.553 591.524 189.767C591.225 189.981 591.017 190.25 590.902 190.573V190.957C590.902 191.633 591.052 192.178 591.357 192.592C591.662 193.005 592.037 193.211 592.492 193.211C592.965 193.211 593.328 193.039 593.598 192.693C593.869 192.347 594.002 191.894 594.002 191.334C594.002 190.771 593.864 190.316 593.593 189.97C593.322 189.62 592.959 189.446 592.509 189.446ZM601.556 186.34L598.162 193.961H597.067L600.449 186.61H596.018V185.753H601.556V186.34ZM607.871 190.461C607.871 191.682 607.663 192.59 607.248 193.183C606.834 193.777 606.182 194.074 605.295 194.074C604.419 194.074 603.774 193.785 603.353 193.206C602.933 192.623 602.714 191.755 602.702 190.602V189.209C602.702 188.003 602.91 187.106 603.325 186.52C603.739 185.934 604.396 185.641 605.284 185.641C606.165 185.641 606.816 185.924 607.231 186.492C607.646 187.056 607.859 187.928 607.871 189.108V190.461ZM606.833 189.034C606.833 188.151 606.707 187.509 606.459 187.106C606.211 186.7 605.819 186.497 605.284 186.497C604.753 186.497 604.362 186.699 604.12 187.101C603.878 187.503 603.751 188.121 603.739 188.955V190.624C603.739 191.511 603.872 192.167 604.125 192.592C604.385 193.012 604.771 193.223 605.295 193.223C605.808 193.223 606.188 193.024 606.436 192.626C606.689 192.227 606.822 191.599 606.833 190.743V189.034ZM614.341 190.461C614.341 191.682 614.134 192.59 613.719 193.183C613.304 193.777 612.653 194.074 611.766 194.074C610.89 194.074 610.245 193.785 609.824 193.206C609.403 192.623 609.184 191.755 609.173 190.602V189.209C609.173 188.003 609.38 187.106 609.795 186.52C610.21 185.934 610.867 185.641 611.754 185.641C612.636 185.641 613.287 185.924 613.702 186.492C614.116 187.056 614.33 187.928 614.341 189.108V190.461ZM613.304 189.034C613.304 188.151 613.177 187.509 612.93 187.106C612.682 186.7 612.29 186.497 611.754 186.497C611.224 186.497 610.832 186.699 610.59 187.101C610.348 187.503 610.221 188.121 610.21 188.955V190.624C610.21 191.511 610.342 192.167 610.596 192.592C610.855 193.012 611.247 193.223 611.766 193.223C612.278 193.223 612.659 193.024 612.906 192.626C613.16 192.227 613.293 191.599 613.304 190.743V189.034Z" fill="#4B4B4B"/>
<path d="M0 24.8223H691.424" stroke="#666666"/>
<path d="M0 458.352H691.424" stroke="#666666"/>
<path d="M179.598 506.264H181.22V499.152C181.22 497.73 181.091 496.289 181.017 494.922H181.091L182.548 497.711L187.471 506.264H189.222V492.705H187.6V499.762C187.6 501.165 187.729 502.68 187.821 504.047H187.729L186.291 501.258L181.368 492.705H179.598V506.264ZM196.647 506.504C199.099 506.504 201.293 504.583 201.293 501.258C201.293 497.914 199.099 495.975 196.647 495.975C194.195 495.975 192.001 497.914 192.001 501.258C192.001 504.583 194.195 506.504 196.647 506.504ZM196.647 505.1C194.914 505.1 193.752 503.567 193.752 501.258C193.752 498.949 194.914 497.379 196.647 497.379C198.38 497.379 199.56 498.949 199.56 501.258C199.56 503.567 198.38 505.1 196.647 505.1ZM206.749 506.504C207.357 506.504 208.021 506.319 208.593 506.135L208.261 504.878C207.929 505.008 207.468 505.137 207.117 505.137C205.956 505.137 205.569 504.435 205.569 503.197V497.6H208.279V496.233H205.569V493.407H204.167L203.965 496.233L202.397 496.326V497.6H203.891V503.16C203.891 505.156 204.61 506.504 206.749 506.504ZM214.167 506.504C216.619 506.504 218.813 504.583 218.813 501.258C218.813 497.914 216.619 495.975 214.167 495.975C211.714 495.975 209.52 497.914 209.52 501.258C209.52 504.583 211.714 506.504 214.167 506.504ZM214.167 505.1C212.433 505.1 211.272 503.567 211.272 501.258C211.272 498.949 212.433 497.379 214.167 497.379C215.9 497.379 217.08 498.949 217.08 501.258C217.08 503.567 215.9 505.1 214.167 505.1ZM229.49 506.504C232.311 506.504 234.081 504.805 234.081 502.662C234.081 500.648 232.864 499.725 231.297 499.041L229.361 498.21C228.31 497.766 227.13 497.268 227.13 495.956C227.13 494.737 228.126 493.961 229.656 493.961C230.91 493.961 231.906 494.46 232.735 495.236L233.639 494.146C232.68 493.148 231.26 492.465 229.656 492.465C227.204 492.465 225.397 493.98 225.397 496.067C225.397 498.044 226.89 499.004 228.144 499.54L230.099 500.39C231.371 500.962 232.348 501.406 232.348 502.791C232.348 504.121 231.279 505.008 229.509 505.008C228.107 505.008 226.743 504.343 225.784 503.327L224.752 504.49C225.932 505.728 227.573 506.504 229.49 506.504ZM238.887 506.504C240.123 506.504 241.247 505.857 242.206 505.063H242.261L242.409 506.264H243.792V500.094C243.792 497.619 242.759 495.975 240.325 495.975C238.721 495.975 237.302 496.695 236.38 497.286L237.043 498.45C237.836 497.914 238.887 497.379 240.049 497.379C241.69 497.379 242.114 498.616 242.114 499.909C237.855 500.39 235.956 501.479 235.956 503.659C235.956 505.47 237.209 506.504 238.887 506.504ZM239.367 505.156C238.371 505.156 237.597 504.694 237.597 503.548C237.597 502.255 238.74 501.424 242.114 501.018V503.825C241.137 504.694 240.344 505.156 239.367 505.156ZM246.99 506.264H248.668V498.986C249.682 497.97 250.383 497.452 251.415 497.452C252.743 497.452 253.314 498.247 253.314 500.131V506.264H254.992V499.909C254.992 497.342 254.033 495.975 251.932 495.975C250.567 495.975 249.535 496.732 248.576 497.674H248.521L248.373 496.233H246.99V506.264ZM260.88 506.504C263.24 506.504 264.53 505.155 264.53 503.53C264.53 501.627 262.926 501.036 261.47 500.482C260.345 500.057 259.312 499.706 259.312 498.746C259.312 497.97 259.903 497.305 261.175 497.305C262.06 497.305 262.76 497.674 263.443 498.191L264.254 497.101C263.479 496.492 262.392 495.975 261.156 495.975C258.981 495.975 257.69 497.231 257.69 498.819C257.69 500.519 259.22 501.202 260.622 501.72C261.728 502.144 262.908 502.588 262.908 503.622C262.908 504.49 262.263 505.192 260.935 505.192C259.737 505.192 258.833 504.712 257.967 504.01L257.137 505.119C258.096 505.913 259.46 506.504 260.88 506.504ZM273.978 506.264H275.693V494.164H279.786V492.705H269.885V494.164H273.978V506.264ZM286.798 506.504C288.55 506.504 289.877 505.802 290.947 504.564L290.006 503.493C289.14 504.435 288.163 505.008 286.872 505.008C284.291 505.008 282.668 502.865 282.668 499.447C282.668 496.067 284.365 493.961 286.927 493.961C288.089 493.961 288.992 494.497 289.693 495.254L290.615 494.146C289.841 493.278 288.55 492.465 286.909 492.465C283.479 492.465 280.917 495.125 280.917 499.503C280.917 503.899 283.443 506.504 286.798 506.504Z" fill="white"/>
<path d="M178.791 525.892H179.756V522.661H181.125L182.971 525.892H184.06L182.11 522.557C183.147 522.307 183.832 521.601 183.832 520.416C183.832 518.826 182.722 518.265 181.176 518.265H178.791V525.892ZM179.756 521.881V519.055H181.031C182.224 519.055 182.877 519.408 182.877 520.416C182.877 521.403 182.224 521.881 181.031 521.881H179.756ZM187.461 526.027C188.229 526.027 188.831 525.767 189.328 525.445L188.986 524.822C188.571 525.102 188.125 525.269 187.576 525.269C186.507 525.269 185.771 524.5 185.709 523.294H189.505C189.525 523.159 189.546 522.962 189.546 522.754C189.546 521.144 188.737 520.104 187.306 520.104C185.999 520.104 184.765 521.247 184.765 523.076C184.765 524.936 185.968 526.027 187.461 526.027ZM185.698 522.609C185.812 521.507 186.518 520.863 187.316 520.863C188.198 520.863 188.716 521.476 188.716 522.609H185.698ZM192.719 528.49C194.462 528.49 195.571 527.586 195.571 526.536C195.571 525.612 194.908 525.196 193.601 525.196H192.501C191.744 525.196 191.516 524.947 191.516 524.583C191.516 524.271 191.672 524.084 191.879 523.907C192.128 524.032 192.439 524.105 192.719 524.105C193.86 524.105 194.773 523.346 194.773 522.141C194.773 521.653 194.586 521.237 194.316 520.977H195.468V520.25H193.507C193.31 520.177 193.03 520.104 192.719 520.104C191.578 520.104 190.603 520.884 190.603 522.12C190.603 522.796 190.966 523.336 191.34 523.637V523.679C191.049 523.887 190.707 524.261 190.707 524.728C190.707 525.175 190.925 525.476 191.226 525.653V525.695C190.697 526.038 190.396 526.495 190.396 526.973C190.396 527.949 191.34 528.49 192.719 528.49ZM192.719 523.461C192.066 523.461 191.516 522.941 191.516 522.12C191.516 521.289 192.055 520.801 192.719 520.801C193.383 520.801 193.922 521.299 193.922 522.12C193.922 522.941 193.362 523.461 192.719 523.461ZM192.854 527.846C191.838 527.846 191.226 527.451 191.226 526.848C191.226 526.516 191.392 526.183 191.796 525.892C192.045 525.954 192.315 525.986 192.522 525.986H193.497C194.244 525.986 194.648 526.162 194.648 526.682C194.648 527.274 193.933 527.846 192.854 527.846ZM198.304 526.027C199.082 526.027 199.642 525.622 200.171 525.009H200.202L200.275 525.892H201.063V520.25H200.119V524.25C199.58 524.926 199.175 525.206 198.595 525.206C197.848 525.206 197.537 524.76 197.537 523.71V520.25H196.593V523.824C196.593 525.258 197.122 526.027 198.304 526.027ZM203.961 526.027C204.22 526.027 204.376 525.996 204.511 525.944L204.376 525.217C204.272 525.238 204.231 525.238 204.179 525.238C204.034 525.238 203.909 525.123 203.909 524.832V517.621H202.966V524.77C202.966 525.57 203.256 526.027 203.961 526.027ZM207.219 526.027C207.914 526.027 208.546 525.664 209.086 525.217H209.117L209.2 525.892H209.978V522.422C209.978 521.029 209.397 520.104 208.028 520.104C207.126 520.104 206.327 520.51 205.808 520.842L206.182 521.497C206.628 521.196 207.219 520.894 207.872 520.894C208.795 520.894 209.034 521.59 209.034 522.318C206.638 522.588 205.57 523.201 205.57 524.427C205.57 525.445 206.275 526.027 207.219 526.027ZM207.489 525.269C206.929 525.269 206.493 525.009 206.493 524.365C206.493 523.637 207.136 523.17 209.034 522.941V524.521C208.484 525.009 208.038 525.269 207.489 525.269ZM211.777 525.892H212.721V522.266C213.094 521.299 213.675 520.967 214.142 520.967C214.37 520.967 214.505 520.988 214.691 521.06L214.868 520.229C214.691 520.136 214.515 520.104 214.266 520.104C213.634 520.104 213.063 520.562 212.669 521.279H212.638L212.555 520.25H211.777V525.892Z" fill="#AAAAAA"/>
<path d="M178.76 541.477H179.838V537.695C179.838 537.009 179.745 536.022 179.693 535.325H179.735L180.336 537.092L181.674 540.739H182.421L183.748 537.092L184.36 535.325H184.402C184.34 536.022 184.246 537.009 184.246 537.695V541.477H185.366V533.819H183.977L182.597 537.695C182.421 538.204 182.276 538.723 182.099 539.232H182.047C181.871 538.723 181.716 538.204 181.539 537.695L180.139 533.819H178.76V541.477ZM189.64 541.612C190.387 541.612 191.04 541.362 191.569 541.009L191.154 540.251C190.739 540.521 190.304 540.677 189.795 540.677C188.81 540.677 188.126 540.022 188.032 538.931H191.735C191.766 538.786 191.797 538.557 191.797 538.318C191.797 536.707 190.978 535.616 189.464 535.616C188.136 535.616 186.86 536.77 186.86 538.619C186.86 540.51 188.095 541.612 189.64 541.612ZM188.022 538.1C188.136 537.102 188.769 536.552 189.484 536.552C190.314 536.552 190.76 537.123 190.76 538.1H188.022ZM195.1 541.612C195.743 541.612 196.334 541.269 196.759 540.833H196.801L196.894 541.477H197.869V533.195H196.676V535.315L196.728 536.261C196.261 535.866 195.847 535.616 195.193 535.616C193.917 535.616 192.746 536.77 192.746 538.619C192.746 540.521 193.669 541.612 195.1 541.612ZM195.38 540.625C194.488 540.625 193.98 539.908 193.98 538.609C193.98 537.372 194.623 536.614 195.421 536.614C195.847 536.614 196.251 536.749 196.676 537.133V539.929C196.261 540.407 195.857 540.625 195.38 540.625ZM199.662 541.477H200.855V535.762H199.662V541.477ZM200.253 534.692C200.689 534.692 201 534.411 201 533.975C201 533.549 200.689 533.268 200.253 533.268C199.818 533.268 199.517 533.549 199.517 533.975C199.517 534.411 199.818 534.692 200.253 534.692ZM204.32 541.612C205.098 541.612 205.658 541.217 206.176 540.614H206.208L206.301 541.477H207.276V535.762H206.083V539.731C205.606 540.334 205.243 540.583 204.714 540.583C204.04 540.583 203.76 540.188 203.76 539.212V535.762H202.567V539.357C202.567 540.812 203.096 541.612 204.32 541.612ZM209.071 541.477H210.264V537.424C210.731 536.905 211.156 536.645 211.54 536.645C212.193 536.645 212.494 537.04 212.494 538.027V541.477H213.686V537.424C214.164 536.905 214.578 536.645 214.973 536.645C215.616 536.645 215.927 537.04 215.927 538.027V541.477H217.119V537.882C217.119 536.427 216.559 535.616 215.367 535.616C214.651 535.616 214.07 536.063 213.51 536.666C213.261 536.011 212.784 535.616 211.934 535.616C211.228 535.616 210.658 536.042 210.171 536.562H210.139L210.046 535.762H209.071V541.477Z" fill="#AAAAAA"/>
<path d="M178.697 557.063H181.435C183.126 557.063 184.412 556.346 184.412 554.798C184.412 553.759 183.8 553.177 182.97 552.98V552.928C183.624 552.699 184.018 551.972 184.018 551.265C184.018 549.831 182.815 549.364 181.238 549.364H178.697V557.063ZM180.232 552.502V550.548H181.145C182.068 550.548 182.524 550.818 182.524 551.494C182.524 552.107 182.099 552.502 181.124 552.502H180.232ZM180.232 555.879V553.634H181.3C182.358 553.634 182.918 553.957 182.918 554.705C182.918 555.505 182.348 555.879 181.3 555.879H180.232ZM188.059 557.209C189.511 557.209 190.849 556.087 190.849 554.154C190.849 552.221 189.511 551.099 188.059 551.099C186.607 551.099 185.269 552.221 185.269 554.154C185.269 556.087 186.607 557.209 188.059 557.209ZM188.059 555.962C187.271 555.962 186.825 555.255 186.825 554.154C186.825 553.063 187.271 552.346 188.059 552.346C188.847 552.346 189.293 553.063 189.293 554.154C189.293 555.255 188.847 555.962 188.059 555.962ZM193.556 557.209C193.919 557.209 194.168 557.147 194.344 557.074L194.157 555.941C194.054 555.962 194.012 555.962 193.95 555.962C193.805 555.962 193.649 555.848 193.649 555.494V548.771H192.125V555.432C192.125 556.513 192.498 557.209 193.556 557.209ZM197.439 557.209C198.04 557.209 198.621 556.876 199.046 556.461H199.088L199.202 557.063H200.436V548.771H198.922V550.819L198.974 551.733C198.559 551.348 198.155 551.099 197.501 551.099C196.246 551.099 195.064 552.263 195.064 554.154C195.064 556.066 195.997 557.209 197.439 557.209ZM197.833 555.952C197.066 555.952 196.63 555.349 196.63 554.144C196.63 552.98 197.18 552.356 197.833 552.356C198.196 552.356 198.569 552.471 198.922 552.793V555.349C198.58 555.785 198.237 555.952 197.833 555.952Z" fill="#AAAAAA"/>
<path d="M19.4107 520.673C21.5679 513.774 23.5592 507.207 25.4675 500.058H25.7994C27.7907 507.124 29.6991 513.774 31.9393 520.673L34.8432 529.983H16.4237L19.4107 520.673ZM0.825195 554.755H8.62446L14.5154 536.135H36.7516L42.5595 554.755H50.6907L30.0309 493.74H21.4849L0.825195 554.755ZM71.1672 555.836C76.7262 555.836 81.7875 552.926 86.1019 549.352H86.3509L87.0146 554.755H93.2374V526.991C93.2374 515.852 88.5911 508.454 77.6389 508.454C70.4205 508.454 64.0317 511.696 59.8832 514.356L62.8701 519.593C66.4379 517.182 71.1672 514.771 76.3944 514.771C83.7788 514.771 85.6871 520.341 85.6871 526.16C66.5208 528.321 57.9748 533.225 57.9748 543.034C57.9748 551.181 63.6168 555.836 71.1672 555.836ZM73.3244 549.768C68.844 549.768 65.3592 547.689 65.3592 542.536C65.3592 536.717 70.5034 532.976 85.6871 531.147V543.783C81.2896 547.689 77.7219 549.768 73.3244 549.768Z" fill="white"/>
<path d="M389.396 504.533H396.809V503.129H394.098V490.975H392.808C392.07 491.418 391.203 491.732 390.005 491.954V493.025H392.402V503.129H389.396V504.533ZM402.936 504.533H411.436V503.074H407.693C407.011 503.074 406.181 503.148 405.48 503.203C408.651 500.192 410.772 497.44 410.772 494.743C410.772 492.323 409.26 490.734 406.845 490.734C405.13 490.734 403.968 491.529 402.862 492.729L403.839 493.69C404.577 492.803 405.535 492.12 406.642 492.12C408.32 492.12 409.131 493.247 409.131 494.798C409.131 497.126 407.176 499.823 402.936 503.536V504.533ZM421.343 504.774C423.74 504.774 425.676 503.333 425.676 500.913C425.676 499.066 424.404 497.846 422.818 497.477V497.403C424.238 496.867 425.215 495.777 425.215 494.133C425.215 491.991 423.556 490.734 421.288 490.734C419.721 490.734 418.522 491.418 417.508 492.36L418.412 493.431C419.167 492.656 420.126 492.12 421.214 492.12C422.615 492.12 423.5 492.97 423.5 494.263C423.5 495.722 422.542 496.849 419.757 496.849V498.142C422.874 498.142 423.961 499.232 423.961 500.839C423.961 502.409 422.818 503.37 421.214 503.37C419.684 503.37 418.651 502.649 417.858 501.818L417.01 502.926C417.895 503.887 419.223 504.774 421.343 504.774ZM432.946 499.453L436.026 494.835C436.413 494.17 436.782 493.505 437.113 492.84H437.187C437.15 493.542 437.095 494.632 437.095 495.297V499.453H432.946ZM437.095 504.533H438.681V500.802H440.469V499.453H438.681V490.975H436.818L431.195 499.694V500.802H437.095V504.533ZM449.989 504.774C452.275 504.774 454.414 503.093 454.414 500.118C454.414 497.144 452.589 495.814 450.339 495.814C449.528 495.814 448.938 496.018 448.329 496.35L448.661 492.434H453.769V490.975H447.186L446.762 497.329L447.666 497.883C448.44 497.366 449.012 497.089 449.915 497.089C451.611 497.089 452.718 498.234 452.718 500.174C452.718 502.15 451.427 503.37 449.841 503.37C448.274 503.37 447.297 502.649 446.523 501.873L445.693 502.982C446.596 503.887 447.887 504.774 449.989 504.774ZM464.929 497.385C466.57 497.385 467.382 498.548 467.382 500.377C467.382 502.224 466.368 503.462 465.077 503.462C463.381 503.462 462.367 501.929 462.164 499.121C462.993 497.883 464.081 497.385 464.929 497.385ZM465.077 504.774C467.179 504.774 468.949 503 468.949 500.377C468.949 497.551 467.492 496.128 465.206 496.128C464.137 496.128 462.957 496.756 462.127 497.772C462.201 493.561 463.768 492.138 465.612 492.138C466.441 492.138 467.253 492.526 467.787 493.173L468.709 492.12C467.972 491.325 466.958 490.734 465.556 490.734C462.938 490.734 460.56 492.766 460.56 498.068C460.56 502.538 462.477 504.774 465.077 504.774ZM477.529 504.533H479.281C479.483 499.232 480.073 496.073 483.245 492.009V490.975H474.782V492.434H481.327C478.691 496.128 477.75 499.398 477.529 504.533ZM493.373 504.774C495.917 504.774 497.614 503.24 497.614 501.264C497.614 499.416 496.507 498.4 495.327 497.717V497.625C496.139 496.997 497.134 495.777 497.134 494.355C497.134 492.268 495.733 490.79 493.428 490.79C491.326 490.79 489.722 492.157 489.722 494.226C489.722 495.648 490.552 496.664 491.548 497.348V497.44C490.312 498.105 489.058 499.361 489.058 501.171C489.058 503.259 490.884 504.774 493.373 504.774ZM494.295 497.181C492.709 496.553 491.252 495.851 491.252 494.226C491.252 492.914 492.156 492.027 493.41 492.027C494.866 492.027 495.696 493.117 495.696 494.447C495.696 495.445 495.217 496.368 494.295 497.181ZM493.41 503.517C491.787 503.517 490.589 502.464 490.589 501.024C490.589 499.73 491.345 498.659 492.433 497.957C494.35 498.733 496.01 499.416 496.01 501.227C496.01 502.575 494.959 503.517 493.41 503.517ZM504.976 495.131C504.976 493.284 505.972 492.064 507.262 492.064C508.996 492.064 510.028 493.542 510.213 496.332C509.346 497.606 508.313 498.142 507.392 498.142C505.787 498.142 504.976 496.96 504.976 495.131ZM506.894 504.774C509.438 504.774 511.798 502.668 511.798 497.181C511.798 492.877 509.862 490.734 507.262 490.734C505.161 490.734 503.39 492.508 503.39 495.131C503.39 497.939 504.866 499.398 507.115 499.398C508.24 499.398 509.401 498.751 510.231 497.735C510.102 501.929 508.59 503.37 506.838 503.37C505.972 503.37 505.142 502.982 504.589 502.335L503.649 503.388C504.405 504.182 505.437 504.774 506.894 504.774ZM522.055 504.774C524.618 504.774 526.259 502.428 526.259 497.717C526.259 493.025 524.618 490.734 522.055 490.734C519.474 490.734 517.833 493.007 517.833 497.717C517.833 502.428 519.474 504.774 522.055 504.774ZM522.055 503.425C520.507 503.425 519.474 501.707 519.474 497.717C519.474 493.764 520.507 492.083 522.055 492.083C523.586 492.083 524.618 493.764 524.618 497.717C524.618 501.707 523.586 503.425 522.055 503.425Z" fill="white"/>
<path d="M391.959 523.512C392.439 521.979 392.881 520.52 393.305 518.931H393.379C393.821 520.501 394.246 521.979 394.743 523.512L395.389 525.581H391.295L391.959 523.512ZM387.829 531.086H389.562L390.871 526.948H395.813L397.103 531.086H398.91L394.319 517.527H392.42L387.829 531.086ZM400.817 531.086H405.132C408.156 531.086 410.258 529.775 410.258 527.114C410.258 525.267 409.115 524.196 407.51 523.882V523.789C408.764 523.383 409.483 522.201 409.483 520.852C409.483 518.469 407.584 517.527 404.837 517.527H400.817V531.086ZM402.532 523.309V518.894H404.616C406.718 518.894 407.805 519.485 407.805 521.074C407.805 522.441 406.865 523.309 404.542 523.309H402.532ZM402.532 529.719V524.602H404.892C407.252 524.602 408.58 525.378 408.58 527.059C408.58 528.888 407.215 529.719 404.892 529.719H402.532ZM418.043 531.326C419.794 531.326 421.122 530.624 422.191 529.387L421.251 528.315C420.384 529.257 419.407 529.83 418.116 529.83C415.535 529.83 413.912 527.687 413.912 524.27C413.912 520.889 415.609 518.783 418.172 518.783C419.333 518.783 420.237 519.319 420.937 520.076L421.859 518.968C421.085 518.1 419.794 517.287 418.153 517.287C414.724 517.287 412.161 519.947 412.161 524.325C412.161 528.722 414.687 531.326 418.043 531.326ZM424.693 531.086H428.159C432.234 531.086 434.465 528.555 434.465 524.27C434.465 519.966 432.234 517.527 428.086 517.527H424.693V531.086ZM426.408 529.682V518.931H427.938C431.128 518.931 432.695 520.834 432.695 524.27C432.695 527.687 431.128 529.682 427.938 529.682H426.408ZM437.351 531.086H445.353V529.627H439.066V524.695H444.192V523.235H439.066V518.987H445.15V517.527H437.351V531.086ZM448.19 531.086H449.905V525.009H455.068V523.568H449.905V518.987H455.99V517.527H448.19V531.086ZM463.476 531.326C465.301 531.326 466.795 530.661 467.661 529.756V524.067H463.236V525.489H466.094V529.036C465.56 529.534 464.619 529.83 463.66 529.83C460.747 529.83 459.143 527.687 459.143 524.27C459.143 520.889 460.913 518.783 463.624 518.783C465.006 518.783 465.873 519.356 466.555 520.076L467.477 518.968C466.703 518.137 465.467 517.287 463.587 517.287C460.01 517.287 457.392 519.947 457.392 524.325C457.392 528.722 459.936 531.326 463.476 531.326ZM470.878 531.086H472.592V524.695H478.898V531.086H480.595V517.527H478.898V523.217H472.592V517.527H470.878V531.086ZM484.293 531.086H486.007V517.527H484.293V531.086ZM492.22 531.326C494.857 531.326 495.926 529.442 495.926 527.114V517.527H494.23V526.948C494.23 528.999 493.511 529.83 492.054 529.83C491.077 529.83 490.321 529.387 489.713 528.315L488.496 529.183C489.289 530.587 490.506 531.326 492.22 531.326ZM499.579 531.086H501.294V526.8L503.617 524.03L507.674 531.086H509.573L504.687 522.7L508.909 517.527H506.991L501.349 524.344H501.294V517.527H499.579V531.086ZM511.499 531.086H519.114V529.627H513.214V517.527H511.499V531.086ZM521.51 531.086H523.059V523.586C523.059 522.422 522.93 520.778 522.856 519.596H522.93L523.999 522.681L526.562 529.719H527.705L530.268 522.681L531.338 519.596H531.411C531.319 520.778 531.19 522.422 531.19 523.586V531.086H532.794V517.527H530.729L528.148 524.787C527.834 525.729 527.539 526.671 527.226 527.613H527.134C526.802 526.671 526.488 525.729 526.175 524.787L523.575 517.527H521.51V531.086ZM536.473 531.086H538.096V523.974C538.096 522.552 537.967 521.111 537.893 519.744H537.967L539.423 522.533L544.346 531.086H546.098V517.527H544.475V524.584C544.475 525.988 544.604 527.502 544.696 528.869H544.604L543.166 526.08L538.243 517.527H536.473V531.086ZM554.776 531.326C558.169 531.326 560.547 528.611 560.547 524.27C560.547 519.929 558.169 517.287 554.776 517.287C551.384 517.287 549.005 519.929 549.005 524.27C549.005 528.611 551.384 531.326 554.776 531.326ZM554.776 529.83C552.342 529.83 550.757 527.65 550.757 524.27C550.757 520.871 552.342 518.783 554.776 518.783C557.192 518.783 558.796 520.871 558.796 524.27C558.796 527.65 557.192 529.83 554.776 529.83ZM563.464 531.086H565.179V525.711H567.41C570.378 525.711 572.388 524.381 572.388 521.517C572.388 518.562 570.36 517.527 567.336 517.527H563.464V531.086ZM565.179 524.325V518.931H567.115C569.493 518.931 570.692 519.559 570.692 521.517C570.692 523.457 569.567 524.325 567.188 524.325H565.179ZM580.111 529.922C577.679 529.922 576.091 527.724 576.091 524.27C576.091 520.871 577.679 518.783 580.111 518.783C582.525 518.783 584.132 520.871 584.132 524.27C584.132 527.724 582.525 529.922 580.111 529.922ZM584.242 534.485C585.054 534.485 585.769 534.337 586.178 534.189L585.844 532.859C585.492 532.97 585.031 533.063 584.426 533.063C582.968 533.063 581.712 532.453 581.107 531.252C583.965 530.754 585.884 528.167 585.884 524.27C585.884 519.929 583.504 517.287 580.111 517.287C576.717 517.287 574.34 519.929 574.34 524.27C574.34 528.241 576.331 530.864 579.281 531.271C580.036 533.137 581.753 534.485 584.242 534.485ZM588.8 531.086H590.511V525.341H592.948L596.227 531.086H598.163L594.7 525.156C596.543 524.713 597.759 523.457 597.759 521.351C597.759 518.525 595.789 517.527 593.04 517.527H588.8V531.086ZM590.511 523.956V518.931H592.781C594.901 518.931 596.065 519.559 596.065 521.351C596.065 523.106 594.901 523.956 592.781 523.956H590.511ZM604.011 531.326C606.834 531.326 608.603 529.627 608.603 527.484C608.603 525.47 607.387 524.547 605.82 523.863L603.884 523.032C602.83 522.589 601.648 522.09 601.648 520.778C601.648 519.559 602.645 518.783 604.178 518.783C605.428 518.783 606.425 519.282 607.255 520.058L608.159 518.968C607.203 517.971 605.78 517.287 604.178 517.287C601.723 517.287 599.92 518.802 599.92 520.889C599.92 522.866 601.412 523.826 602.663 524.362L604.622 525.212C605.889 525.784 606.869 526.228 606.869 527.613C606.869 528.943 605.797 529.83 604.028 529.83C602.628 529.83 601.262 529.165 600.306 528.149L599.275 529.313C600.45 530.55 602.092 531.326 604.011 531.326ZM613.656 531.086H615.373V518.987H619.464V517.527H609.565V518.987H613.656V531.086ZM626.666 531.326C629.432 531.326 631.535 529.848 631.535 525.489V517.527H629.893V525.544C629.893 528.814 628.476 529.83 626.666 529.83C624.915 529.83 623.532 528.814 623.532 525.544V517.527H621.821V525.489C621.821 529.848 623.924 531.326 626.666 531.326ZM637.579 531.086H639.556L643.848 517.527H642.114L639.942 524.879C639.464 526.468 639.129 527.761 638.634 529.35H638.559C638.04 527.761 637.729 526.468 637.251 524.879L635.056 517.527H633.264L637.579 531.086ZM647.19 531.086H649.218L651.229 522.921C651.448 521.85 651.69 520.871 651.909 519.836H651.984C652.203 520.871 652.41 521.85 652.647 522.921L654.692 531.086H656.743L659.544 517.527H657.902L656.484 524.916C656.225 526.357 655.966 527.816 655.706 529.294H655.614C655.303 527.816 654.992 526.357 654.658 524.916L652.779 517.527H651.212L649.345 524.916C649.017 526.376 648.683 527.835 648.371 529.294H648.297C648.037 527.835 647.761 526.376 647.501 524.916L646.084 517.527H644.332L647.19 531.086ZM660.356 531.086H662.142L664.096 527.429C664.447 526.745 664.798 526.062 665.185 525.249H665.259C665.703 526.062 666.072 526.745 666.418 527.429L668.411 531.086H670.29L666.348 524.177L670.036 517.527H668.244L666.441 521C666.106 521.628 665.847 522.201 665.478 522.977H665.403C664.966 522.201 664.689 521.628 664.338 521L662.494 517.527H660.61L664.297 524.085L660.356 531.086ZM674.646 531.086H676.363V525.821L680.419 517.527H678.65L676.898 521.37C676.489 522.367 676.028 523.309 675.55 524.325H675.475C674.997 523.309 674.594 522.367 674.15 521.37L672.416 517.527H670.589L674.646 525.821V531.086ZM680.788 531.086H690.099V529.627H682.891L690.024 518.543V517.527H681.433V518.987H687.921L680.788 530.07V531.086Z" fill="white"/>
<path d="M391.774 557.882C393.01 557.882 394.134 557.235 395.093 556.441H395.149L395.296 557.642H396.679V551.472C396.679 548.996 395.646 547.352 393.213 547.352C391.608 547.352 390.189 548.073 389.267 548.664L389.931 549.828C390.723 549.292 391.774 548.756 392.936 548.756C394.577 548.756 395.001 549.994 395.001 551.287C390.742 551.767 388.843 552.857 388.843 555.037C388.843 556.847 390.097 557.882 391.774 557.882ZM392.254 556.533C391.258 556.533 390.484 556.071 390.484 554.926C390.484 553.633 391.627 552.802 395.001 552.395V555.203C394.024 556.071 393.231 556.533 392.254 556.533ZM404.284 557.882C406.589 557.882 408.635 555.905 408.635 552.451C408.635 549.384 407.234 547.352 404.634 547.352C403.528 547.352 402.403 547.98 401.5 548.775L401.555 546.964V542.937H399.877V557.642H401.223L401.371 556.607H401.445C402.311 557.401 403.362 557.882 404.284 557.882ZM404.007 556.478C403.344 556.478 402.44 556.201 401.555 555.425V550.16C402.514 549.255 403.399 548.775 404.247 548.775C406.146 548.775 406.884 550.271 406.884 552.488C406.884 554.982 405.667 556.478 404.007 556.478ZM415.221 557.882C416.419 557.882 417.562 557.42 418.466 556.607L417.728 555.48C417.101 556.053 416.29 556.478 415.368 556.478C413.524 556.478 412.271 554.945 412.271 552.636C412.271 550.326 413.598 548.756 415.423 548.756C416.216 548.756 416.825 549.126 417.415 549.643L418.281 548.535C417.562 547.907 416.659 547.352 415.35 547.352C412.787 547.352 410.519 549.292 410.519 552.636C410.519 555.961 412.566 557.882 415.221 557.882ZM423.617 557.882C424.815 557.882 425.866 557.235 426.659 556.459H426.714L426.862 557.642H428.226V542.937H426.567V546.798L426.641 548.535C425.756 547.796 425 547.352 423.82 547.352C421.533 547.352 419.487 549.384 419.487 552.636C419.487 555.979 421.109 557.882 423.617 557.882ZM423.986 556.478C422.215 556.478 421.22 555.037 421.22 552.617C421.22 550.326 422.492 548.775 424.115 548.775C424.944 548.775 425.7 549.07 426.567 549.828V555.092C425.719 556.016 424.907 556.478 423.986 556.478ZM435.678 557.882C437.042 557.882 438.111 557.42 438.996 556.847L438.388 555.739C437.65 556.238 436.858 556.533 435.88 556.533C433.981 556.533 432.672 555.166 432.561 553.023H439.31C439.347 552.783 439.384 552.432 439.384 552.063C439.384 549.2 437.945 547.352 435.401 547.352C433.078 547.352 430.884 549.384 430.884 552.636C430.884 555.942 433.022 557.882 435.678 557.882ZM432.543 551.804C432.746 549.846 434 548.701 435.419 548.701C436.987 548.701 437.909 549.791 437.909 551.804H432.543ZM442.125 557.642H443.803V548.978H445.923V547.611H443.803V546.022C443.803 544.729 444.264 544.046 445.223 544.046C445.573 544.046 445.979 544.138 446.347 544.304L446.716 543.03C446.255 542.827 445.647 542.697 445.038 542.697C443.047 542.697 442.125 543.972 442.125 546.004V547.611L440.761 547.703V548.978H442.125V557.642ZM450.931 562.26C454.028 562.26 456.001 560.653 456.001 558.787C456.001 557.143 454.821 556.404 452.498 556.404H450.544C449.198 556.404 448.792 555.961 448.792 555.314C448.792 554.76 449.069 554.427 449.437 554.113C449.88 554.335 450.433 554.464 450.931 554.464C452.959 554.464 454.582 553.116 454.582 550.973C454.582 550.105 454.25 549.366 453.77 548.904H455.817V547.611H452.332C451.982 547.482 451.484 547.352 450.931 547.352C448.903 547.352 447.17 548.738 447.17 550.936C447.17 552.137 447.815 553.097 448.479 553.633V553.707C447.962 554.076 447.354 554.741 447.354 555.573C447.354 556.367 447.741 556.903 448.276 557.217V557.291C447.335 557.9 446.801 558.713 446.801 559.563C446.801 561.299 448.479 562.26 450.931 562.26ZM450.931 553.319C449.769 553.319 448.792 552.395 448.792 550.936C448.792 549.458 449.751 548.59 450.931 548.59C452.111 548.59 453.07 549.477 453.07 550.936C453.07 552.395 452.074 553.319 450.931 553.319ZM451.171 561.114C449.364 561.114 448.276 560.412 448.276 559.341C448.276 558.75 448.57 558.159 449.29 557.642C449.732 557.752 450.212 557.808 450.581 557.808H452.314C453.641 557.808 454.36 558.122 454.36 559.045C454.36 560.098 453.088 561.114 451.171 561.114ZM457.946 557.642H459.624V550.363C460.638 549.347 461.339 548.83 462.371 548.83C463.699 548.83 464.27 549.624 464.27 551.509V557.642H465.948V551.287C465.948 548.719 464.989 547.352 462.887 547.352C461.523 547.352 460.49 548.11 459.569 549.033L459.624 546.964V542.937H457.946V557.642ZM469.145 557.642H470.823V547.611H469.145V557.642ZM469.993 545.542C470.657 545.542 471.118 545.099 471.118 544.415C471.118 543.769 470.657 543.325 469.993 543.325C469.33 543.325 468.869 543.769 468.869 544.415C468.869 545.099 469.33 545.542 469.993 545.542ZM473.191 562.13C475.164 562.13 475.92 560.837 475.92 558.787V547.611H474.242V558.787C474.242 560.006 474.002 560.763 473.006 560.763C472.638 560.763 472.306 560.671 472.048 560.579L471.716 561.872C472.066 562.001 472.582 562.13 473.191 562.13ZM475.071 545.542C475.717 545.542 476.178 545.099 476.178 544.415C476.178 543.769 475.717 543.325 475.071 543.325C474.408 543.325 473.947 543.769 473.947 544.415C473.947 545.099 474.408 545.542 475.071 545.542ZM479.319 557.642H480.978V555L482.859 552.802L485.791 557.642H487.616L483.836 551.656L487.174 547.611H485.293L481.034 552.913H480.978V542.937H479.319V557.642ZM491.262 557.882C491.723 557.882 492 557.826 492.239 557.734L492 556.441C491.815 556.478 491.742 556.478 491.649 556.478C491.391 556.478 491.17 556.275 491.17 555.757V542.937H489.492V555.647C489.492 557.069 490.008 557.882 491.262 557.882ZM494.75 557.642H496.428V550.363C497.35 549.329 498.198 548.83 498.954 548.83C500.226 548.83 500.816 549.624 500.816 551.509V557.642H502.494V550.363C503.434 549.329 504.245 548.83 505.02 548.83C506.292 548.83 506.882 549.624 506.882 551.509V557.642H508.56V551.287C508.56 548.719 507.583 547.352 505.518 547.352C504.301 547.352 503.25 548.147 502.217 549.274C501.812 548.091 500.982 547.352 499.452 547.352C498.253 547.352 497.202 548.11 496.336 549.07H496.28L496.133 547.611H494.75V557.642ZM511.819 557.642H513.497V550.363C514.511 549.347 515.212 548.83 516.245 548.83C517.572 548.83 518.144 549.624 518.144 551.509V557.642H519.821V551.287C519.821 548.719 518.863 547.352 516.761 547.352C515.396 547.352 514.364 548.11 513.405 549.052H513.35L513.202 547.611H511.819V557.642ZM526.981 557.882C529.433 557.882 531.628 555.961 531.628 552.636C531.628 549.292 529.433 547.352 526.981 547.352C524.529 547.352 522.335 549.292 522.335 552.636C522.335 555.961 524.529 557.882 526.981 557.882ZM526.981 556.478C525.248 556.478 524.086 554.945 524.086 552.636C524.086 550.326 525.248 548.756 526.981 548.756C528.714 548.756 529.894 550.326 529.894 552.636C529.894 554.945 528.714 556.478 526.981 556.478ZM534.273 561.872H535.951V558.473L535.914 556.718C536.817 557.457 537.776 557.882 538.679 557.882C540.984 557.882 543.031 555.905 543.031 552.469C543.031 549.384 541.63 547.352 539.048 547.352C537.887 547.352 536.762 548.017 535.858 548.756H535.803L535.656 547.611H534.273V561.872ZM538.403 556.478C537.739 556.478 536.854 556.201 535.951 555.425V550.16C536.928 549.255 537.794 548.775 538.643 548.775C540.542 548.775 541.279 550.271 541.279 552.488C541.279 554.982 540.062 556.478 538.403 556.478ZM552.067 561.872H553.727V547.611H552.399L552.233 548.572H552.178C551.311 547.777 550.482 547.352 549.32 547.352C547.034 547.352 544.987 549.384 544.987 552.636C544.987 555.979 546.61 557.882 549.117 557.882C550.279 557.882 551.33 557.272 552.141 556.478L552.067 558.307V561.872ZM549.486 556.478C547.716 556.478 546.72 555.037 546.72 552.617C546.72 550.326 547.992 548.775 549.615 548.775C550.445 548.775 551.201 549.07 552.067 549.828V555.092C551.219 556.016 550.408 556.478 549.486 556.478ZM557.14 557.642H558.818V551.195C559.482 549.477 560.514 548.886 561.344 548.886C561.749 548.886 561.989 548.923 562.321 549.052L562.634 547.574C562.321 547.408 562.008 547.352 561.565 547.352C560.44 547.352 559.426 548.165 558.726 549.44H558.67L558.523 547.611H557.14V557.642ZM566.834 557.882C569.194 557.882 570.485 556.533 570.485 554.908C570.485 553.005 568.881 552.414 567.424 551.86C566.3 551.435 565.267 551.084 565.267 550.123C565.267 549.347 565.857 548.682 567.129 548.682C568.014 548.682 568.715 549.052 569.397 549.569L570.208 548.479C569.434 547.87 568.346 547.352 567.111 547.352C564.935 547.352 563.644 548.608 563.644 550.197C563.644 551.897 565.175 552.58 566.576 553.097C567.682 553.522 568.862 553.966 568.862 555C568.862 555.868 568.217 556.57 566.89 556.57C565.691 556.57 564.788 556.09 563.921 555.388L563.091 556.496C564.05 557.291 565.415 557.882 566.834 557.882ZM575.58 557.882C576.186 557.882 576.855 557.697 577.425 557.512L577.091 556.256C576.763 556.385 576.302 556.515 575.948 556.515C574.787 556.515 574.4 555.813 574.4 554.575V548.978H577.108V547.611H574.4V544.785H572.998L572.795 547.611L571.228 547.703V548.978H572.722V554.538C572.722 556.533 573.441 557.882 575.58 557.882ZM582.288 557.882C583.671 557.882 584.668 557.161 585.607 556.071H585.665L585.791 557.642H587.197V547.611H585.515V554.723C584.558 555.924 583.838 556.422 582.807 556.422C581.481 556.422 580.928 555.628 580.928 553.762V547.611H579.246V553.966C579.246 556.515 580.191 557.882 582.288 557.882ZM592.734 557.642H594.688L598.249 547.611H596.589L594.688 553.319C594.394 554.298 594.083 555.333 593.766 556.275H593.691C593.38 555.333 593.069 554.298 592.752 553.319L590.873 547.611H589.122L592.734 557.642ZM601.775 557.642H603.751L605.151 552.266C605.411 551.305 605.612 550.363 605.831 549.347H605.923C606.165 550.363 606.35 551.287 606.609 552.229L608.067 557.642H610.095L612.786 547.611H611.201L609.726 553.411C609.501 554.372 609.317 555.277 609.098 556.219H609.023C608.781 555.277 608.562 554.372 608.32 553.411L606.753 547.611H605.117L603.567 553.411C603.307 554.353 603.106 555.277 602.881 556.219H602.789C602.605 555.277 602.403 554.372 602.201 553.411L600.709 547.611H598.992L601.775 557.642ZM613.558 557.642H615.327L616.669 555.296C617.021 554.686 617.355 554.076 617.706 553.504H617.799C618.167 554.076 618.536 554.686 618.864 555.296L620.34 557.642H622.183L618.882 552.58L621.924 547.611H620.172L618.939 549.809C618.645 550.382 618.352 550.936 618.035 551.49H617.96C617.631 550.936 617.28 550.382 616.969 549.809L615.621 547.611H613.811L616.854 552.414L613.558 557.642ZM624.321 561.964C626.315 561.964 627.363 560.449 628.049 558.473L631.829 547.611H630.187L628.4 553.19C628.124 554.076 627.824 555.092 627.548 555.997H627.455C627.144 555.092 626.793 554.058 626.499 553.19L624.453 547.611H622.702L626.718 557.66L626.499 558.417C626.096 559.655 625.375 560.579 624.229 560.579C623.975 560.579 623.676 560.486 623.474 560.412L623.146 561.761C623.457 561.89 623.843 561.964 624.321 561.964ZM632.22 557.642H639.797V556.275H634.341L639.613 548.516V547.611H632.791V548.978H637.493L632.22 556.736V557.642Z" fill="white"/>
<path d="M137.133 488.08V557.641" stroke="white" stroke-opacity="0.1"/>
</g>
<defs>
<linearGradient id="paint0_linear_2722_46" x1="587.711" y1="45.0273" x2="587.711" y2="172.026" gradientUnits="userSpaceOnUse">
<stop stop-color="#FF6700"/>
<stop offset="1" stop-color="#FF9A55"/>
</linearGradient>
<clipPath id="clip0_2722_46">
<rect width="692" height="579" fill="white"/>
</clipPath>
</defs>
</svg>
