<svg width="100" height="80" viewBox="0 0 100 80" fill="none" xmlns="http://www.w3.org/2000/svg">
<mask id="mask0_2490_151" style="mask-type:alpha" maskUnits="userSpaceOnUse" x="0" y="0" width="100" height="80">
<rect width="100" height="80" fill="#C4C4C4"/>
</mask>
<g mask="url(#mask0_2490_151)">
<path d="M77.7105 27.3522C77.7105 11.1367 63.8114 -1.70942 47.1747 0.185903C34.5392 1.66004 24.4308 11.7684 23.1672 24.4039C22.1143 34.0912 26.1155 42.7254 32.8545 48.2008C35.8027 50.7279 37.6981 54.3079 37.6981 58.3092V58.941H62.969V58.7304C62.969 54.9397 64.6538 51.1491 67.6021 48.622C73.7092 43.5678 77.7105 35.9865 77.7105 27.3522Z" fill="#3C88A9"/>
<path d="M64.2326 23.5619L57.9148 19.3501C57.2831 18.9289 56.2301 18.9289 55.5983 19.3501L50.3336 22.7195L45.2794 19.3501C44.6476 18.9289 43.5946 18.9289 42.9628 19.3501L36.6451 23.5619C36.2239 23.9831 35.8027 24.4043 35.8027 25.036C35.8027 25.6678 35.8027 26.2996 36.2239 26.7208L44.2264 36.6186V58.9413H48.4382V35.7762C48.4382 35.355 48.2276 34.9338 48.017 34.5127L41.0675 25.8784L44.2264 23.7725L49.2806 27.142C49.9124 27.5631 50.9653 27.5631 51.5971 27.142L56.6513 23.7725L59.8102 25.8784L52.8607 34.5127C52.6501 34.9338 52.4395 35.355 52.4395 35.7762V58.9413H56.6513V36.6186L64.6538 26.7208C65.075 26.2996 65.2856 25.6678 65.075 25.036C64.8644 24.4043 64.6538 23.7725 64.2326 23.5619Z" fill="white"/>
<path d="M50.3339 79.9998C53.8231 79.9998 56.6516 77.1712 56.6516 73.682C56.6516 70.1928 53.8231 67.3643 50.3339 67.3643C46.8447 67.3643 44.0161 70.1928 44.0161 73.682C44.0161 77.1712 46.8447 79.9998 50.3339 79.9998Z" fill="#3C88A9"/>
<path d="M54.5456 75.7882H46.1219C41.4889 75.7882 37.6982 71.9976 37.6982 67.3645V56.835H62.9692V67.3645C62.9692 71.9976 59.1786 75.7882 54.5456 75.7882Z" fill="#3C88A9"/>
<path d="M62.9686 67.3643L38.396 70.6764C38.904 72.0733 40.3506 73.7707 41.8247 74.6131L61.705 71.7867C62.5474 70.5231 62.9686 69.049 62.9686 67.3643Z" fill="white"/>
<path d="M37.6978 62.5205V66.7323L62.9687 63.1523V58.9404L37.6978 62.5205Z" fill="white"/>
</g>
</svg>
