<svg width="100" height="80" viewBox="0 0 100 80" fill="none" xmlns="http://www.w3.org/2000/svg">
<mask id="mask0_2490_153" style="mask-type:alpha" maskUnits="userSpaceOnUse" x="0" y="0" width="100" height="80">
<rect width="100" height="80" fill="#C4C4C4"/>
</mask>
<g mask="url(#mask0_2490_153)">
<path fill-rule="evenodd" clip-rule="evenodd" d="M12.3233 5H88.4998C93.6468 5 97.7645 9.11765 97.7645 14.2647V65.7353C97.7645 70.8824 93.6468 75 88.4998 75H12.3233C7.17624 75 3.05859 70.8824 3.05859 65.7353V14.2647C3.05859 9.11765 7.17624 5 12.3233 5ZM67.4998 38.3529L54.1174 30.7353L40.7351 22.9118C40.1174 22.7059 39.4998 22.7059 38.8821 22.9118C38.2645 23.3235 38.0586 23.9412 38.0586 24.5588V55.4412C38.0586 56.0588 38.2645 56.6765 38.8821 57.0882C39.4998 57.2941 40.1174 57.2941 40.7351 57.0882L54.1174 49.2647L67.4998 41.6471C68.1174 41.2353 68.3233 40.6176 68.3233 40C68.3233 39.3824 68.1174 38.7647 67.4998 38.3529ZM11.2939 13.2353H21.588V23.5294H11.2939V13.2353ZM11.2939 27.6471H21.588V37.9412H11.2939V27.6471ZM11.2939 42.0588H21.588V52.3529H11.2939V42.0588ZM11.2939 56.4706H21.588V66.7647H11.2939V56.4706ZM79.4409 13.2353H89.7351V23.5294H79.4409V13.2353ZM79.4409 27.6471H89.7351V37.9412H79.4409V27.6471ZM79.4409 42.0588H89.7351V52.3529H79.4409V42.0588ZM79.4409 56.4706H89.7351V66.7647H79.4409V56.4706Z" fill="#3C88A9"/>
</g>
</svg>
