<svg width="100" height="80" viewBox="0 0 100 80" fill="none" xmlns="http://www.w3.org/2000/svg">
<mask id="mask0_2490_148" style="mask-type:alpha" maskUnits="userSpaceOnUse" x="0" y="0" width="100" height="80">
<rect width="100" height="80" fill="#C4C4C4"/>
</mask>
<g mask="url(#mask0_2490_148)">
<path d="M59.3971 8.14117C57.9124 8.62076 56.5869 9.67178 56.0154 10.7912C55.9012 11.0422 50.943 23.2656 45.0032 37.9799C33.3736 66.7451 33.6941 65.8084 34.539 67.7962C36.1838 71.6574 41.4614 72.137 43.7236 68.6421C43.9063 68.3676 48.9553 56.0299 54.9185 41.2483C66.5715 12.4136 66.2971 13.2126 65.4971 11.2932C65.0399 10.2197 64.0348 9.1228 63.0063 8.59729C62.0022 8.07178 60.243 7.86668 59.3971 8.14117Z" fill="#3C88A9"/>
<path d="M23.0236 15.8863C21.744 16.4802 0.999104 37.1577 0.450125 38.3914C-0.189669 39.7618 -0.143751 41.4067 0.564411 42.8005C1.31849 44.3087 21.3103 64.3005 22.8185 65.0546C24.2582 65.7627 26.497 65.6485 27.845 64.7576C29.2613 63.8209 29.9929 62.5413 30.1072 60.8281C30.2674 58.223 30.4501 58.4515 21.1052 49.0617L12.5593 40.4934L20.8991 32.1536C26.2684 26.7842 29.4215 23.472 29.695 22.8771C30.8827 20.4557 29.8552 17.371 27.4327 16.1138C25.994 15.3608 24.3256 15.2689 23.0236 15.8863Z" fill="#3C88A9"/>
<path d="M72.6253 16.0926C70.4315 17.2354 69.3356 19.5885 69.9294 22.0099C70.1805 23.0609 70.706 23.6323 78.7253 31.6976C83.4325 36.4272 87.2702 40.3793 87.2702 40.4946C87.2702 40.6313 83.5692 44.4241 79.0223 48.9486C74.4294 53.5405 70.5692 57.5854 70.2947 58.0874C69.2896 59.9609 69.7917 62.6343 71.4376 64.1874C72.7856 65.467 75.1621 65.9006 76.9437 65.17C77.5151 64.919 81.1478 61.4455 88.5957 54.0201C98.26 44.3558 99.4253 43.1221 99.7457 42.116C100.157 40.8823 100.066 39.4425 99.4947 38.2323C99.312 37.8435 94.2855 32.6578 88.3447 26.7395C79.1825 17.5773 77.4233 15.9324 76.6468 15.7273C75.1386 15.315 73.9733 15.4293 72.6253 16.0926Z" fill="#3C88A9"/>
</g>
</svg>
